<?xml version="1.0" encoding="UTF-8"?><svg id="Layer_2" xmlns="http://www.w3.org/2000/svg" viewBox="0 0 225.2297 257.1118"><defs><style>.cls-1{fill:#fff;}</style></defs><g id="Layer_1-2"><g><path d="m146.5403,154.2703c.2217.9328.4146,1.8738.6733,2.7961.2536.9043.5412,1.8022.8771,2.6784.2118.5525.1493.886-.4011,1.176-.8982.4733-1.7726.9962-2.6339,1.5357-.5532.3465-.8759.2291-1.0883-.3742-1.3304-3.7787-2.5565-7.605-2.5053-11.656.0439-3.4769.3726-6.9501.5727-10.4251.0125-.2165.0016-.4344.0016-.7172-1.2936.889-2.5116,1.7889-3.7888,2.5933-7.6233,4.8013-15.8761,6.5725-24.694,4.6741-2.6107-.562-5.0364-1.999-7.5432-3.044-.1439-.06-.2546-.2008-.5311-.427.8829-.5405,1.6799-1.0283,2.5393-1.5544-.4754-.8867-.9526-1.7768-1.4864-2.7724-.2332.3382-.4301.5986-.6012.8753-2.6413,4.2733-4.0176,8.9979-4.6809,13.929-.5722,4.2539-.3994,8.4936.996,12.6096.2.5898.4687,1.1559.7169,1.7605.9551-.495,1.8207-1.0466,2.7595-1.4018.9644-.3648,1.9947-.7335,3.0056-.7621,5.6559-.1603,10.7349-1.9419,15.2145-5.3854,2.3302-1.7912,4.5004-3.7929,6.8159-5.6047,2.5445-1.991,5.0288-4.0981,8.0881-5.2995,1.4908-.5854,1.6026-.517,1.513,1.0702-.1078,1.9096-.4088,3.8213-.3563,5.7245.1736,6.2902,2.2718,11.7179,7.3353,15.716,1.0034.7922,1.9816,1.6173,2.9969,2.3933.4534.3465.4056.6366.0244.9565-1.8018,1.5121-3.7811,2.7229-6.0061,3.4879-.2468.0848-.6481.0228-.8563-.1345-2.8565-2.1585-5.78-4.2688-7.6138-7.4712-2.5147-4.3913-3.513-9.1159-2.8948-14.1672.0482-.3941.0766-.7906.1333-1.3881-1.0867.8324-2.0431,1.556-2.9901,2.2919-5.2101,4.049-10.7892,7.4586-16.9433,9.852-1.3293.517-2.7003.9446-4.0802,1.3038-1.3555.3529-2.7467.5664-4.1033.8374-.4187,1.3376-.871,2.7353-1.2937,4.142-1.5459,5.1454-2.5771,10.3729-2.1113,15.7802.1831,2.1259.594,4.2337.9481,6.3417.0976.5811.0486.9498-.5266,1.2464-.9508.4903-1.8568,1.0687-2.9871,1.7303.9451,1.4303,1.8689,2.8283,2.7875,4.2185,1.4083-.8843,2.6038-1.6406,3.8061-2.3859.2891-.1792.6138-.3012.8991-.4855,1.7845-1.1525,3.6951-1.2058,5.706-.7801,3.7958.8035,7.619,1.4927,11.5182,1.2701,3.5854-.2047,7.0077-1.1775,10.3124-2.574.2271-.096.4278-.2556.6036-.4796-1.7328.428-3.4782.8104-5.1958,1.2933-3.6719,1.0323-7.1591.4517-10.5449-1.1248-.4159-.1936-.7876-.4836-1.1601-.8659,7.4597-.5928,14.1912-3.4541,20.928-6.3073-1.6769.4101-3.3406.8903-5.0334,1.2165-4.2273.8145-8.4471,1.7245-12.711,2.2693-2.5395.3245-5.1204.5571-7.7585.0071-1.3623-.284-2.9727.4449-4.4228.8796-.5792.1736-1.0419.2791-1.4881-.0965-1.6042-1.3504-3.2194-2.6913-4.7592-4.1141-.6929-.6403-.5229-1.1017.4306-1.3499,1.342-.3493,2.7275-.542,4.052-.9437,1.3775-.4176,2.7245-.9581,4.0446-1.5378.5979-.2626,1.1012-.2674,1.5806.1027,1.3247,1.0225,2.6634,2.0329,3.9172,3.1393.5705.5034.9977.783,1.8368.6007,3.0133-.6545,6.0552-1.1754,9.0998-1.9282-.631-.1096-1.2601-.2317-1.8932-.3268-3.1753-.4769-5.8818-1.891-8.2616-4.045-1.1534-1.0439-2.4333-1.9461-3.7455-2.9832.2576-.2862.5475-.6082.8846-.9827-.7113.183-1.3764.3542-2.2089.5684,1.6877-4.1118,2.6268-8.3289,5.3905-11.6769,1.8348-2.2227,4.3282-3.4463,6.9788-4.3813.12-.0423.2675-.0054.5388-.0054-.1761.3104-.2682.5449-.4201.7295-2.123,2.5798-3.1868,5.6858-4.2955,8.7681-.4497,1.2501-.7326,2.5855-1.9629,3.4433.154.0295.2239.0669.2563.0457,1.3693-.894,2.4418-.3536,3.5718.5822,1.7242,1.4279,3.4735,2.8563,5.361,4.0443,2.2265,1.4014,4.8134,1.7968,7.3998,1.9231,4.2767.2089,8.3584-.8628,12.4034-2.0973,3.1293-.955,6.2549-1.9225,9.381-2.8884.1037-.032.1944-.107.3878-.2167-1.5433-.8824-3.0239-1.729-4.596-2.6279.2827-.3072.481-.6452.7749-.8217,1.771-1.0637,3.5567-2.1031,5.3537-3.1217.5283-.2995,1.0597-.2284,1.5965.121.7354.4787,1.5419.8458,2.2815,1.3186,3.4306,2.1933,7.2507,2.5637,11.1725,2.4476,2.2584-.0669,4.1289-1.0627,5.8446-2.4824.9985-.8262,2.1131-1.5086,3.1516-2.288.2203-.1653.4346-.4523.4838-.7152.1886-1.0062.3089-2.0254.4585-3.0666-1.1859.8254-2.3113,1.6521-3.4792,2.4123-2.3206,1.5104-4.8128,2.6515-7.5124,3.2727-1.6682.3839-3.3361.1254-4.9182-.4146-1.4822-.5059-2.8921-1.2256-4.3403-1.8355-.2251-.0948-.4864-.1557-.7285-.1485-5.7854.1706-10.4869-2.2477-14.5561-6.1759-.7314-.7061-1.3512-1.7849-2.4731-.5584-.7973-1.0618-.5909-2.1647.4262-2.7463.8296-.4743,1.6798-.9205,2.4666-1.4595.5372-.3681.8958-.2675,1.3357.1338,1.4076,1.284,2.8131,2.5728,4.2694,3.7995,4.0637,3.4233,8.8243,4.6357,13.9798,3.9873,2.1977-.2764,4.3265-1.1689,6.4585-1.8684.4669-.1532.8609-.636,1.2071-1.0382.8544-.9923,1.6263-2.0587,2.5085-3.0237.2762-.3021.8007-.5242,1.2075-.5179.5628.0087.9072-.2031,1.3442-.5125,1.1926-.8442,2.4641-1.5752,3.7044-2.3511,1.894.3785,2.8907-1.4796,4.5133-1.8053.6994.8279.7021,1.1548.0198,2.0119-.0833.1047-.1381.2512-.1581.3856-.4664,3.1339-.9265,6.2687-1.3849,9.4038-.0077.0525.0198.1101.0626.3243,3.3888-2.0269,5.3579-5.2666,7.7098-8.3758-1.178.3871-2.1927.7206-3.2073,1.0541-.0553-.0826-.1107-.1652-.166-.2478,2.7729-3.9982,4.7375-8.3363,5.5739-12.9193-2.1246,1.2944-4.3569,2.6281-6.5625,4.005-2.5958,1.6205-7.541.6946-8.984-3.3892-.1139-.3224-.2308-.6453-.3165-.9759-.508-1.9592-.3447-2.3285,1.3934-3.3506,1.3509-.7944,2.7603-1.4671,3.7829-2.7695,1.7767-2.2628,4.3759-2.9085,7.0405-3.2777,1.3485-.1868,2.7219-.191,4.211-.2859.0049-.0532.0654-.351.0541-.6459-.1062-2.7658-.1956-5.533-.3593-8.2955-.0424-.7156.0736-1.1508.7569-1.4881,1.0298-.5083,2.0006-1.138,3.2332-1.8536.8107,4.5827.912,8.9735.2395,13.4508,1.2697-.5977,2.4725-1.1455,3.6512-1.7419.1463-.074.2584-.421.2274-.6159-.4988-3.1388-1.1884-6.2344-2.7267-9.0434-2.6916-4.9151-5.4468-9.7949-8.1741-14.6902-.6068-1.0891-1.2084-2.1811-1.9991-3.2275.2039,1.2578.466,2.5094.5989,3.7748.2292,2.1825.3885,4.3727.5462,6.562.0176.2447-.0895.6257-.2665.7368-1.1662.7316-2.3674,1.4065-3.6709,2.1662-.1277-.3965-.3072-.6805-.2945-.9554.1702-3.6651-.7209-7.2076-1.2094-10.7951-.3304-2.4265-.3582-2.4224,1.7694-3.6575.3658-.2124.7292-.4289,1.1741-.6907-.6635-.7961-.144-1.1539.5402-1.4874.506-.2466.9957-.5386,1.4588-.86.5954-.4132.9473-.3555,1.3099.3428,1.0096,1.9444,2.0949,3.8489,3.1525,5.7679.1347.2444.2819.4818.5641.6678-.0884-.2772-.1642-.5593-.2673-.8309-.7896-2.0798-1.5794-4.1596-2.3798-6.2352-.4242-1.1001-.4353-1.0988.6031-1.6811.2157-.121.4458-.216.742-.3578.1827.4176.3587.7684.493,1.1346,1.1868,3.2369,2.3752,6.4732,3.5433,9.7169.4689,1.3022.4465,1.3104-.7396,2.0703.1502.2601.3076.5204.4535.7871,1.8845,3.4442,3.8331,6.8548,5.632,10.3438,1.7878,3.4675,2.5186,7.2645,2.8652,11.1148.3743,4.1584.5425,8.3314-.4248,12.4512-.2006.8544-.4423,1.7006-.7078,2.5368-.0578.1821-.2736.3734-.4601.4439-1.0213.3862-1.3836,1.133-1.5095,2.201-.5215,4.4232-2.1201,8.5035-4.0747,12.4588-.7178,1.4525-1.436,2.9047-2.2413,4.5335.56-.4061,1.01-.7079,1.4318-1.0454.3924-.314.705-.3496,1.0967.0402.806.802,1.6643,1.5503,2.4883,2.3344.4411.4197.4389.7691-.1221,1.1481-1.0089.6815-1.9702,1.4344-3.2142,2.3511.7478.5721,1.4393,1.1011,2.264,1.7319-1.3299.9715-2.4489,1.8216-3.6142,2.6014-.157.1051-.6552-.0536-.8121-.2437-.9893-1.1995-1.9446-2.4294-2.8533-3.6916-.0883-.1227.144-.6253.3529-.7939.7906-.6381,1.6328-1.2112,2.5154-1.8518-.3242-.2904-.5941-.5321-.7248-.6492-2.2193,1.6937-4.3655,3.3527-6.5351,4.9801-1.4012,1.051-2.9872,1.6989-4.7096,1.9869-.5679.095-1.3002.1557-1.4211-.5302-.0859-.4875.1535-1.2336.5167-1.5623.9612-.8699,2.0687-1.5757,3.2911-2.4741.1319.5123.2313.8987.3584,1.3924,1.1941-.0935,2.5512-.3085,3.4887-1.192,2.514-2.3693,3.7548-5.556,5.1041-8.5081-1.3663,1.0338-2.7862,2.1093-4.2075,3.1832-1.1341.8569-2.4175.9222-3.7243.6176-1.2943-.3017-2.5666-.6989-3.9952-1.0949-.1382,1.3898-.3782,2.7932-.3844,4.1976-.0047,1.0579-.3541,1.6907-1.2944,2.117-.7164.3248-1.3717.7851-2.0602,1.1746-.6892.3899-.994.222-.9561-.5977.0554-1.1977.1796-2.3922.277-3.5879.0254-.3117.0599-.6226.1065-1.1-.9417.6637-1.7653,1.2646-2.609,1.8353-3.0924,2.0917-6.3153,3.9002-9.996,4.7435-3.3399.7653-6.6622.683-9.9813-.1087-.1053-.0251-.2146-.0331-.3016-.046-.5085,2.8858-2.4082,5.0674-3.644,7.6269,2.0459.2312,3.9668-.1965,5.8492-.7443,4.8077-1.3991,9.3812-3.3361,13.4-6.4039.9136-.6974,1.8092-1.0138,2.8987-.687,1.6804.504,3.3601,1.012,5.0282,1.5553.358.1166.6654.391,1.1838.7073-1.6946,1.1317-3.175,2.2832-4.7973,3.1716-3.958,2.1675-8.0957,3.9115-12.5448,4.7956-4.0412.803-7.9635.2956-11.8204-1.154-.6031.8664-1.1991,1.7226-1.77,2.5428.3676.2408.7599.4226,1.0583.7053,2.1305,2.018,4.6827,3.0735,7.5648,2.8834,2.9223-.1928,5.8093-.6115,8.5112-2.0412,2.9353-1.5532,5.4612-3.5987,7.9073-5.7895,1.8645-1.6698,3.9719-2.9271,6.3069-3.7994.2537-.0948.5301-.1277.7959-.1893l.163.1905c-.2829.3482-.5311.7335-.8537,1.039-5.3233,5.0409-11.3723,8.9656-17.9752,12.1018-3.1534,1.4978-6.4253,2.2521-9.8478,2.6843-2.9707.3751-5.6783-.1328-8.1871-1.7395-.4974-.3186-.8871-.8113-1.391-1.1151-.4508-.2718-.9905-.3937-1.6134-.6277.8011-1.1605,1.6514-2.3925,2.6523-3.8426-.4437.1417-.6439.189-.8309.2679-1.7732.7482-3.5447,1.5004-5.3148,2.2559-.181.0773-.3694.1587-.5216.28-4.5483,3.6227-9.7027,6.1306-15.034,8.3146-.0169.0069-.0233.0398-.0755.1359.7285.2983,1.4432.6151,2.178.8738.1701.0599.4305-.0374.6121-.1336.5501-.2916,1.0933-.5998,1.6189-.934,2.8851-1.8346,5.8974-2.0312,9.1767-1.1326,2.7965.7662,5.6841,1.2877,8.5651,1.6247,3.9728.4647,7.8497-.3077,11.6216-1.5745,7.9481-2.6696,15.2272-6.5838,21.8092-11.8305,1.3221-1.0539,2.356-2.3038,3.215-3.7044.9713-1.5837,2.2775-2.7701,3.8478-3.666,1.4273-.8143,2.9053-1.5408,4.3806-2.2653.383-.1881.8395-.2244,1.3336-.2203-1.5892,2.6993-3.1993,5.3275-5.7097,7.2922.9904-.3156,1.9684-.682,2.9748-.9325,1.0155-.2527,2.0592-.3903,3.0905-.5784.0436.1056.0872.2112.1308.3167-.1811.231-.3504.4726-.545.6915-3.7453,4.2135-7.5899,8.342-11.2137,12.6589-3.5667,4.2489-6.9364,8.6674-10.3442,13.0495-3.6582,4.7042-7.4263,9.3122-11.7245,13.44-5.6173,5.3946-11.9181,9.6804-19.4715,11.8785-3.5205,1.0245-7.0948,1.5989-10.7557,1.8667-2.9307.2144-5.7365-.2871-8.5711-.7858-.1623-.0286-.3292-.0308-.679-.0615-.0634,2.8639-1.1707,5.081-3.887,6.2467-1.0395.4461-1.9749,1.2009-3.4415,1.0248,1.4058-.926,1.3248-2.3232,1.61-3.5684.2989-1.3052.5598-2.6192.8712-4.0892-1.1978.7107-2.2976,1.3867-3.4193,2.0232-1.4921.8466-2.9909,1.6828-4.5104,2.4778-.3904.2043-.869.2372-1.3071.3489l-.1302-.2688c.5134-.4196.9905-.8977,1.5467-1.2484,2.235-1.4089,4.4928-2.7811,6.7457-4.1612,1.1113-.6808,1.8752-1.6077,2.1582-2.9167.0634-.293.1876-.6341.3985-.8235,1.5398-1.3834,3.3038-2.3743,5.5157-3.0878-.6916,2.5441-1.332,4.9001-2.023,7.4421.9956-.4087,1.7992-.7095,2.572-1.0764.1914-.0909.3231-.3795.4139-.6052,1.6051-3.9907,3.1631-8.0013,4.8293-11.9657.3081-.733,1.0437-1.2836,1.4786-1.7965-1.2668.2963-2.7149.6631-4.176.9663-.9082.1884-1.8343.3766-2.7555.3933-1.4229.0259-2.2911,1.1394-3.4742,1.6153-1.6349,2.6855-4.5337,3.7067-6.9906,5.2621-5.4379,3.4425-10.8813,6.891-16.6961,9.6816-4.1852,2.0086-8.4556,3.7873-12.9875,4.8401-1.793.4165-3.6248.6909-5.4461.23-.6957-.176-1.3244-.6207-1.9719-.9372-2.8074,1.6654-5.7176,3.4817-8.7111,5.1461-4.3008,2.3914-8.8791,4.0668-13.7394,4.8609-1.5008.2452-3.0362.3251-4.5591.3707-2.04.0611-4.0866.0883-6.1238-.0099-1.428-.0688-2.6482.3734-3.8378,1.0541h-.8508c.3345-.4747.5853-1.0533,1.0175-1.4065,2.1885-1.7882,4.5549-3.3242,7.377-3.8036,1.4642-.2487,2.995-.1001,4.4957-.1305,2.4649-.0498,4.9557.1105,7.3891-.1943,4.4567-.5583,8.7041-1.8867,12.4309-4.5431,1.9504-1.3903,3.861-2.8372,5.7895-4.2585l-.1542-.2471c-.4807.2654-.9643.5259-1.4418.7971-4.332,2.4601-8.9419,4.2022-13.8141,5.1507-2.5013.4869-5.07.5783-7.5739-.116-.938-.2601-1.821-.7218-2.8803-1.1532-2.0286,2.6369-4.9009,4.3065-8.1233,5.4075-.0766-.0888-.1531-.1775-.2297-.2663.2302-.3288.4363-.6783.694-.9835,6.5507-7.7581,13.1071-15.5113,19.6607-23.2669.1647-.1949.3122-.4049.4633-.6112.6041-.825,1.1248-1.7325,1.8324-2.4542.707-.7212,1.6002-1.2569,2.2725-1.768-.9236-1.0817-1.8706-2.1908-2.8801-3.373.0498-.0601.1888-.3275.4075-.4746,1.0955-.7373,1.7308-1.8506,2.4435-2.9111,7.0424-10.4777,14.1331-20.9229,21.1154-31.4411,1.9457-2.931,3.561-6.0835,5.3691-9.1094.3109-.5203.769-1.002,1.2643-1.349,1.0446-.7319,2.1675-1.3494,3.237-2.0471.1976-.1289.2948-.414.4383-.627-.0814-.0736-.1628-.1471-.2443-.2207-.8606.6085-1.7212,1.2171-2.7596,1.9513-.3321-.6269-.7063-1.1807-.935-1.7899-1.4152-3.7684-1.7458-7.6891-1.8077-11.6954-.0995-6.4469,2.1714-12.1826,4.836-17.8355.1273-.27.3505-.523.5882-.7061.8302-.6394,1.6978-1.2295,2.528-1.8689.435-.3351.7859-.4349,1.0586.1632.7436-.9307,1.473-1.8276,2.1749-2.7458.0746-.0976.0071-.3244-.0268-.4843-.3301-1.559-.667-3.1165-1.0234-4.7739-.7195.4163-1.5241.84-2.2836,1.3343-.6126.3987-1.0131.2921-1.1926-.3997-.2191-.8444-.5314-1.706-.5299-2.5597.0072-4.333,1.0761-8.4778,2.3679-12.5734.0916-.2903.1887-.5787.2833-.868-.0923-.0302-.1845-.0605-.2768-.0907-.551,1.7436-1.1948,3.464-1.6334,5.2359-.8535,3.4479-1.4213,6.9428-.9823,10.5185.0895.7286.3152,1.44.4084,2.1685.0299.2336-.0916.6063-.2695.7264-.7.4727-1.4643.8475-2.1773,1.3023-.6358.4056-.9725.1648-1.0705-.4801-.1756-1.1555-.3875-2.3175-.4179-3.4811-.1649-6.3155,1.3924-12.1969,4.3871-17.7392.8914-1.6497,2.3484-2.3053,3.9113-2.9354.1747-.0704.3416-.2528.4338-.4257,2.2909-4.2942,5.3024-8.0367,8.777-11.3905.9253-.8931,2.1772-1.4425,3.2791-2.1496.0956.0794.1912.1588.2868.2382-.1516.2812-.2618.5971-.461.8384-2.1541,2.6092-4.4866,5.0874-6.4502,7.8338-3.4532,4.8297-5.309,10.3758-6.366,16.1893-.3305,1.8178-.47,3.678-.5803,5.5258-.0469.7859.206,1.5899.4577,2.378.183-7.0896,1.4928-13.8302,4.9285-20.1125,3.4343-6.2799,8.5048-10.8405,14.1331-14.8896.12.1106.2399.2211.3599.3317-.1945.2232-.3712.4657-.5861.6666-2.1813,2.0386-4.5131,3.9362-6.5254,6.1315-4.4793,4.8869-7.3145,10.6698-8.6298,17.2048-.651,3.2346-.9965,6.4894-.8414,9.7906.017.3619.07.722.1167,1.1864,2.2533-2.1131,4.7941-3.5239,7.5022-4.6645-1.1077-1.4122-2.2058-2.8064-3.2957-4.2071-.1915-.2461-.3522-.5169-.5209-.7804-.7328-1.1446-.797-1.2409.3398-2.0251,1.098-.7574,1.7314-1.71,2.0691-2.9713.1899-.7093.5894-1.3587.8346-2.0564.7347-2.0903,2.0845-3.6405,4.0118-4.6745,1.4984-.8038,3.0137-1.5771,4.5403-2.325.3474-.1702.7726-.1792,1.2455-.1591-1.8112,3.2954-2.8564,6.793-3.5579,10.5681,3.1019,4.4711,7.2732,7.7444,12.8123,9.207,3.1958.8438,6.3726.8994,9.5753.3235,2.313-.4159,4.5986-.9863,6.8977-1.4815.319-.0687.6456-.1012.9687-.1504.0525.0705.1051.141.1576.2115-.2527.3006-.4686.6451-.7636.895-3.1584,2.6752-6.7887,4.4059-10.8365,5.1059-2.8822.4984-5.8109.9873-8.7209,1.0001-4.8291.0213-9.2914-1.4478-13.2014-4.4101-.2015-.1527-.4149-.2896-.7867-.5477.1345.3492.1942.5392.2784.7176,1.9015,4.0304,5.1273,6.6994,9.098,8.3354,2.447,1.0082,5.107,1.1328,7.6254-.2398.9388-.5116,1.97-.8535,2.9677-1.2507.2105-.0838.4589-.0707.6899-.1022.0432.0685.0864.137.1296.2055-.2345.2916-.4278.6336-.7096.8673-3.61,2.9936-7.5202,5.4264-12.2186,6.2214-4.308.729-8.0861-.4797-11.4584-3.2676-2.1038-1.7393-3.7688-3.7693-4.9176-6.2437-.1179-.254-.262-.4956-.5311-.7158.0236.2178.0314.4388.0733.6529.4376,2.2352,1.2644,4.3196,2.4718,6.2409.3621.5762.2817.8912-.3212,1.1768-.5338.2528-1.0295.587-1.6734.9617.3679.2184.6584.4053.9615.5685,5.1495,2.7712,10.6524,3.5161,16.397,2.9309,3.5359-.3602,6.9351-1.2642,10.1001-2.8583,3.2658-1.6447,6.0216-4.0298,8.4089-6.7947,2.7341-3.1667,5.3387-6.4467,8.0444-9.6389.4596-.5422,1.1525-.8805,1.7214-1.3337.1803-.1436.308-.3542.4597-.5342-.1735-.1482-.3241-.3738-.5237-.4335-6.7953-2.0342-12.2052-6.22-16.9534-11.3185-2.9549-3.1728-4.41-7.1979-5.5052-11.346-.0282-.1069-.0583-.2134-.1105-.4043-.2201.1383-.3965.2571-.5801.3633-1.2264.7101-2.4274,1.472-3.691,2.1073-.8942.4496-1.2343.2315-1.2107-.7504.0285-1.1881.0221-2.4276.3534-3.5479.8475-2.8652,1.7883-5.7098,2.8507-8.5011,1.3059-3.431,3.7628-6.0181,6.5782-8.2366,1.3258-1.0448,2.8352-1.8576,4.2869-2.7324.393-.2368.8793-.3164,1.3228-.4681.0538.0742.1075.1484.1613.2227-.3302.348-.6482.7089-.9929,1.0416-1.1029,1.0648-2.3335,2.021-3.2998,3.1984-1.9365,2.3594-3.0821,5.1598-3.9787,8.0638-.1831.593-.3615,1.1875-.5822,1.9134.5961-.1931,1.078-.3492,1.6644-.5392.0246.2783.0984.4989.0531.6909-.9143,3.8783-.021,7.4993,1.4041,11.0936,1.6197,4.0853,4.1457,7.4453,7.5409,10.1696.3275.2628.7056.4614,1.0602.6898.8335.6712,1.6669,1.3424,2.5004,2.0136,2.2402,1.8358,4.7359,3.2292,7.4422,4.2127,1.4403.5234,2.9218.9589,4.4148,1.3007,1.5406.3528,3.1122.5837,4.6797.7977,3.8235.522,7.667.378,11.3005-.8479,3.1909-1.0765,5.8419-3.1867,7.8537-5.9826.1742-.2421.2268-.6384.1997-.951-.1235-1.422-.3117-2.8382-.437-4.26-.0243-.2757.0364-.714.2146-.8278,1.1585-.7389,2.3603-1.4089,3.7237-2.204.1454.6412.294,1.1155.3562,1.601.395,3.0832.7775,6.1681,1.1377,9.2555.0225.1931-.1216.5051-.2834.6048-1.033.6365-2.0939,1.2268-3.1433,1.8366-.6567.3816-.7508-.2028-.8326-.5644-.1812-.8009-.2675-1.6236-.3959-2.4594-7.776,5.919-16.4263,7.4828-25.849,5.559-.2255,2.8659-.0302,5.6192.5112,8.3914.5767,2.9529,1.8977,5.5256,3.3831,8.0635.3447.589.6757.8354,1.3142.4587.1606-.0948.3968-.0596.6998.0921-.2787.3326-.5573.6653-.8339.9953.1919.7064.5933.811,1.214.5359.5102-.2261,1.0564-.3697,1.5866-.5499.0548.0781.1097.1563.1645.2344-.4567.6222-.9134,1.2445-1.3949,1.9006.3312.4033.6394.77.9379,1.1446.2507.3147.2412.5656-.1927.6966-.745.225-1.5157.3925-2.2219.7067-.3632.1615-.6886.5418-.8961.9021-.7171,1.2459-2.0205,1.1915-3.0908,1.6525-.0737-.0752-.1474-.1503-.221-.2255.8898-1.326,1.7795-2.652,2.7008-4.0249-.1459-.1798-.2996-.3692-.5791-.7138-.4734,1.9169-2.0515,2.0515-3.6283,2.6217.5751-1.6656,1.5347-2.8531,2.6-4.0729-3.833-5.1516-5.2928-11.0019-4.9233-17.5715-2.8005,3.3475-5.4383,6.5005-7.9436,9.4951.0263.5952.1252,1.0709.0552,1.5198-.845,5.4136-1.2709,10.8334-.3219,16.2804.072.4131.2504.8073.3793,1.2103,0,0-.0198-.0232-.0198-.0232Zm-72.9852,61.8525c2.7898,3.4684,6.4848,5.5392,10.4602,7.1475,4.5317,1.8334,9.223,2.0412,13.9857,1.1255,4.0316-.7752,7.3659-2.8823,10.4652-5.4909,2.5848-2.1756,5.351-4.0698,8.6532-5.025.8513-.2463,1.6569-.6532,2.4944-.9908-.1331-1.3176.6038-2.1247,1.6531-2.5391,1.3235-.5227,2.7164-.8802,4.0981-1.2351.8052-.2068.8538-.1955.6008-1.0133-7.5418,2.1793-14.9846,1.6181-22.4458-.7334-.0807.1208-.2266.3295-.3622.5448-.1481.235-.2866.4762-.4802.7998,2.5779,1.7577,4.8968,3.9412,8.6274,3.2392-.9171,1.4439-1.5613,2.798-2.5064,3.887-3.916,4.5122-8.7355,7.2648-14.8233,7.5315-5.0877.223-9.8367-.817-14.1794-3.528-.6843-.4272-1.2703-1.0356-1.8414-1.6201-.6116-.6258-.671-1.2932-.0939-2.0562,1.3172-1.7417,2.5351-3.56,3.8594-5.2959,3.3685-4.4156,6.7775-8.7998,10.1524-13.2104.1858-.2428.2961-.6124.2938-.9219-.0143-1.8831-.0747-3.7659-.1124-5.649-.0121-.6034-.0019-1.2072-.0019-1.9868-.1946.2727-.276.3811-.3517.4934-4.5287,6.7195-9.0413,13.4501-13.5944,20.1529-1.4625,2.153-2.619,4.5333-4.5506,6.3745Zm50.7105,2.275c-.032.0692-.064.1385-.096.2077.7025.3805,1.3818.8149,2.1113,1.1325,3.5291,1.5364,7.0729,1.0546,10.5484-.1349,4.2759-1.4634,8.0381-3.9403,11.8024-6.3894.7113-.4628,1.4063-.9508,2.1088-1.4272-4.1803.688-8.3275.7376-12.5196.4431.8903,2.1481.5094,3.1991-1.5219,4.1925-.934.4567-1.8781.9281-2.8667,1.2295-3.1246.9528-6.3068,1.3885-9.5668.7462Zm27.5407,12.3185l.2884.1817c1.0002-.9185,2.0169-1.8199,2.9868-2.7698.1956-.1915.2404-.5608.3096-.8587.8189-3.5235,1.6132-7.0528,2.4471-10.5727.5845-2.4669,1.2374-4.9174,1.8191-7.3849.1296-.5498.0886-1.1404.1377-1.8881-.9557.716-1.7147,1.2847-2.5031,1.8754.9734.2815.82,1.037.6583,1.6302-.5757,2.1116-1.2138,4.2069-1.8688,6.2955-1.4117,4.5013-2.8485,8.9947-4.2751,13.4913Zm13.6406-27.0599c-.0609,1.0819.0054,2.0026-.1842,2.8662-.5009,2.2814-1.1112,4.5384-1.6807,6.8044-.6009,2.3906-1.2052,4.7804-1.808,7.1706.0912.0469.1823.0938.2735.1407.5875-.8852,1.3501-1.7021,1.7223-2.6713.5898-1.5358.9567-3.1639,1.3499-4.7699.9-3.6763,1.7589-7.3628,2.5939-10.8749-4.9804,1.9834-10.0107,3.9867-14.9365,5.9484.2671.1132.7351.2552,1.1434.4986.526.3136.9237.2331,1.4496-.0721,1.1965-.6946,2.4577-1.2757,3.692-1.9041.6474-.3295,1.3196-.6188,1.935-1.001,1.3222-.8211,2.6171-1.6856,4.4498-2.1355Zm-24.8559,33.816c.0034.0368.0067.0736.01.1104.7766-.1856,1.5806-.2972,2.3222-.577.7797-.2943,1.5388-.6905,2.2296-1.158.3744-.2534.7213-.7074.852-1.1409.8062-2.6722,1.4913-5.382,2.3236-8.0454,1.1464-3.6688,2.4107-7.3001,3.5717-10.9645.2831-.8935.3606-1.8531.5327-2.7823-.0912-.0425-.1824-.085-.2737-.1275-.4903.3117-.9907.609-1.4634.9458-.1087.0775-.1893.3007-.1691.4402.218,1.5041-.2861,2.8794-.7495,4.2528-1.8008,5.3377-3.6133,10.6714-5.4544,15.995-.1472.4257-.4787.8548-.8406,1.1237-.9289.6902-1.9231,1.2912-2.8913,1.9278Zm-25.5889-7.4977c-.0333-.0763-.0666-.1525-.0998-.2288-1.5173.6026-3.1534,1.007-4.5298,1.8448-4.1765,2.542-8.1109,5.4879-12.6536,7.4053-2.3009.9711-4.5971,1.8814-7.1551,1.6489-1.801-.1638-3.5968-.3847-5.3975-.5529-.2931-.0274-.5992.087-.8992.1358l.0346.2377c.2038.0118.4076.0236.6078.0351-.0097,1.2525.1841,1.6535,1.3674,1.7933,1.2998.1536,2.672.2426,3.9413-.0076,3.2488-.6403,6.3896-1.7335,9.314-3.291,3.6872-1.9638,7.2817-4.1056,10.8979-6.2027,1.5478-.8976,3.0494-1.8762,4.5719-2.8179Zm30.0227-12.3646c-.1265-.0763-.253-.1527-.3795-.229-.4088.3566-1.0002.6361-1.1875,1.0862-.3655.8781-.434,1.877-.75,2.7817-1.5952,4.5668-3.2204,9.1231-4.8683,13.6709-.1542.4256-.479.8429-.8322,1.1293-.7099.5755-1.4941,1.0579-2.4051,1.6875,1.2662,0,2.3367-.0189,3.406.0091.443.0116.6441-.1385.7723-.5739.3541-1.2025.7479-2.3938,1.153-3.5801,1.4819-4.34,2.9952-8.6694,4.4477-13.0193.318-.9523.4343-1.9731.6435-2.9624Zm-6.9685,3.601c-.0759-.0831-.1517-.1662-.2276-.2494-.4971.4315-1.2208.7648-1.4541,1.3108-1.3729,3.2138-2.5806,6.4992-3.9492,9.715-.7226,1.6978-.8704,3.7395-2.7953,4.8335.7759.1231,1.4026.1611,1.9907.3329.6077.1776.8331-.003,1.0352-.5885,1.2539-3.6315,2.5531-7.2471,3.8332-10.8694.5276-1.4931,1.045-2.9898,1.5671-4.4848Zm58.9562-76.5181c-2.393,3.9475-6.4167,3.6578-10.2066,3.9693,1.0644,2.1726,4.1711,2.6264,5.7345,2.4617.175-.0184.3603-.1599.4969-.2909,1.8116-1.7364,2.9898-3.8872,3.9752-6.1401Zm5.0737,16.8869c.4237-2.6712.8453-5.3286,1.2669-7.9861-.069-.0414-.1381-.0829-.2071-.1243-1.2744,2.9127-3.0673,5.3589-6.0522,6.79,1.7342.4587,3.2836.8685,4.9925,1.3204Zm-59.6952,25.2857c.6517.2388,1.105.3417,1.4937.5612.6887.3889,1.2714.3202,1.8101-.2447.8774-.9199,1.9208-1.0932,3.1055-.7417.5682.1686,1.1607.2526,1.7339.4063,1.6539.4435,1.6522.4498,2.1642-1.2366.0083-.0272.0196-.0535.0286-.0805.1813-.547.2138-1.0143-.6734-.9792.2306-.3173.3866-.5318.6305-.8674-3.4667,1.0719-6.7941,2.1007-10.293,3.1826Zm33.6176,11.0186l-.1914-.1477c-.4618.2621-.9002.5878-1.3909.772-.7858.2949-1.0945.8623-1.2589,1.6429-.3699,1.7561-.8054,3.4981-1.2101,5.2468-.2261.9768-.444,1.9555-.6656,2.9333.0674.0308.1349.0616.2023.0923.5463-.7482,1.2819-1.4222,1.604-2.2581,1.0514-2.7287,1.952-5.5165,2.9106-8.2815Zm30.6018-53.895c-.9817,3.0257-1.9021,5.8623-2.8392,8.7502.5624-.4112,1.0814-.8553,1.6604-1.196.6018-.3542.8804-.835.9085-1.5166.0807-1.9561.1742-3.9117.2704-6.0376Zm-25.6157,52.8148c.0633.0361.1266.0721.1899.1082,2.0027-2.2307,4.0054-4.4614,6.0082-6.6921-1.6732,1.0355-3.2512,2.1533-4.817,3.2882-.1955.1417-.3947.3491-.4747.5694-.3269.8996-.6083,1.816-.9064,2.7263Zm-82.6277-16.803c-.1059-.0496-.2118-.0991-.3177-.1487-.3651.9158-.9668,1.8108-1.0478,2.7514-.1902,2.2079-.1769,4.4381-.1541,6.6583.0116,1.1291.2218,2.2562.3421,3.3842l.2065-.0064c-.4178-4.2737-.0037-8.4792.9709-12.6388Zm5.9627,25.9053c3.2716.7261,7.4878.8676,9.0335.4284-2.6683-.3461-5.6827-.7372-8.7618-1.1366-.071.1852-.17.4432-.2717.7083Zm28.728,1.9932c-.0756.0878-.1512.1755-.2269.2633.3793.4275.7316,1.1903,1.1425,1.2238,1.6859.1375,3.3896.0561,5.0866.0426.1156-.0009.2304-.1055.3999-.1886-2.1899-.4587-4.296-.8999-6.4022-1.3411Zm52.0049-47.6145c-.9333.8694-1.7682,1.6472-2.6658,2.4834.7301.2328,1.3873.4424,2.1103.673.1881-1.069.3586-2.0376.5555-3.1564Z"/><path d="m0,176.6913c.422-.4162.8592-.8179,1.2635-1.2508,2.7604-2.9561,5.5454-5.8797,9.1612-7.8214.1921-.1031.3849-.3599.4244-.5738,1.0979-5.9508,3.3858-11.4617,5.9319-16.9052.9002-1.9246,1.9621-3.4653,3.9495-4.2579.7071-.282,1.0304-.8284,1.2651-1.5611,3.1872-9.9497,7.2677-19.5049,12.5824-28.5,1.0409-1.7617,2.2217-3.4395,3.4054-5.2597-1.5751.6291-2.9056,1.7008-4.7234,1.78.1196-.3086.1449-.519.2599-.648,1.263-1.4172,1.8593-3.1856,2.5435-4.9022,1.234-3.0965,2.3273-6.2551,3.6779-9.2982,1.9606-4.4178,4.4879-8.4868,7.74-12.0976,4.4723-4.9656,9.4135-9.3594,15.03-12.9639,6.3513-4.076,13.2141-7.0621,20.2866-9.5921.9303-.3328,1.8806-.6088,2.8217-.9111.0642.1043.1283.2085.1925.3127-.3019.3341-.5699.7094-.9113.9958-2.4858,2.0849-5.3367,3.4874-8.3717,4.5635-3.7498,1.3296-7.513,2.6971-10.8691,4.8572-2.219,1.4282-4.2823,3.1641-6.1968,4.9944-2.1948,2.0983-4.3469,4.3029-6.1563,6.7343-2.3165,3.1129-4.3199,6.4721-5.551,10.2381.7927-1.0696,1.5633-2.1568,2.3833-3.2047,1.1407-1.4576,2.1908-3.0218,3.5182-4.2862,1.2032-1.146,2.7258-1.9515,4.0609-2.8748.7461.4809.4648.8305.1472,1.1949-.2977.3416-.5774.699-.7823,1.1836.3575-.2077.7148-.4159,1.0726-.6231.6584-.3812,1.3045-.7873,1.9825-1.1293.252-.1271.5789-.1035.8716-.1485-.0623.2989-.0402.6578-.2006.887-1.0781,1.5397-2.2527,3.0133-3.2851,4.5824-1.4209,2.1595-2.7415,4.386-4.113,6.5788-.1168.1867-.2638.3852-.4462.4942-.9931.5933-1.9911,1.1807-3.0137,1.7196-.2159.1138-.5413.0166-.8107.0166-.2727.2736-.5642.667-.9454.9266-.6975.4749-1.4117.9605-2.185,1.2784-1.1507.4731-1.6385,1.3656-1.9022,2.586.3499-.1719.6516-.3202.9533-.4685l.1657.1073c-.0923.214-.1443.4602-.2832.637-.9855,1.2537-1.9977,2.486-2.9849,3.7384-4.6521,5.9024-8.0976,12.5107-11.1792,19.3387-3.5268,7.8143-6.4967,15.8239-8.4019,24.2038-.6376,2.8046-1.1082,5.6477-1.4776,8.5674.8525-1.0765,1.7168-2.1437,2.5557-3.2309,5.2235-6.7695,10.6421-13.3707,16.5359-19.5652.2248-.2363.408-.5515.5071-.8633.3423-1.0773.6388-2.1693.9527-3.2558-.0607-.0449-.1214-.0899-.1821-.1348-.2481.1532-.4899.318-.7452.4579-1.7773.9735-3.4152,2.2804-5.5654,2.369-.0974.004-.1969.0842-.286.1432-1.2621.8359-2.52,1.6782-3.7868,2.5069-.1553.1016-.4785.2308-.5165.1824-.5128-.6551-.8938-.0672-1.2793.1373-.8169.4333-1.6091.9139-2.3859,1.3604-.5796-.3387-.3814-.704-.2052-1.1235,1.9235-4.5823,4.7464-8.6311,7.4291-12.7633.2327-.3584.5028-.6948.7092-1.0674,1.1474-2.071,2.7233-3.6745,4.913-4.6114.5679-.243.8267-.6806,1.0279-1.2522.7947-2.2581,1.6187-4.5065,2.4821-6.7387.1978-.5112.5045-1.0579.9171-1.3934,2.3061-1.8755,4.7709-3.4815,7.7067-4.198.1398-.0341.3182-.1343.3747-.2537.6661-1.4072,1.3125-2.824,1.9093-4.1197-.3795-.0935-.7114-.1753-1.1596-.2857,1.068-1.395,2.6095-2.0253,3.1078-3.7499-1.7663.0986-2.8895,1.4894-4.3726,1.9835-.4876-.3884-.4121-.7534.0329-1.0391,1.1302-.7256,2.2839-1.4139,3.4147-2.1386.2202-.1411.4646-.3458.5537-.5775,1.8003-4.6771,4.5855-8.7474,7.483-12.7861,5.7663-8.0374,13.3788-13.8898,21.6414-19.0051,8.7757-5.433,18.2567-9.1407,28.2618-11.5021,3.3144-.7823,6.6561-1.4792,10.0159-2.0234,2.2453-.3637,4.5421-.44,6.8203-.5542,3.9823-.1996,7.9679-.3321,11.9524-.4826.2894-.0109.5818.0601.9724.1043-.1346.2146-.1703.3373-.2511.3907-1.7443,1.1513-3.5752,2.1278-5.71,2.1976-3.1995.1047-6.4037.0734-9.6024.1957-10.0385.3837-19.7158,2.5363-29.0782,6.1683-.906.3515-1.7741.8021-2.6222,1.3247.6031-.112,1.2075-.2169,1.8088-.3379.5964-.1201,1.1896-.2563,1.7468-.3774.4018.5514.1157.7611-.2568,1.0114-2.4941,1.6765-5.0082,3.3257-7.4519,5.0745-3.007,2.1518-5.4914,4.8593-7.7196,7.8009-.696.9188-1.4369,1.5811-2.6557,1.6786-.9032.0722-1.7883.3729-3.0109.6451.2108-.5611.2699-.9505.4754-1.2312,3.6684-5.0095,8.2161-9.0377,13.5086-12.2283.2911-.1755.5732-.3663.8566-.5544.0453-.03.0755-.0831.1123-.126-1.9273.1937-13.8818,8.6052-18.1174,13.0293-5.2242,5.4567-9.7068,11.4776-12.6528,18.6087,1.7502-.8996,3.5032-1.7939,5.2489-2.7023.4942-.2572.948-.6033,1.4591-.8127.2148-.088.5301.0729.7998.1207.0036.1113.0072.2226.0109.3339-1.6353.951-3.268,1.9067-4.9075,2.8505-.5855.337-1.208.6126-1.7741.9784-.3583.2315-.6437.5778-.9337.8466.3929.1097.7137.1992,1.0497.2929-.0866.2486-.0914.3347-.1248.348-1.7245.6849-2.3824,2.2552-3.1426,3.7675-3.4886,6.9395-6.3349,14.1465-8.8833,21.4802-.421,1.2114-.9658,2.3838-1.3188,3.6134-.4295,1.4959-.8198,3.0183-1.0417,4.5563-.3692,2.5588-1.4878,4.5111-3.893,5.5895-2.9818,1.3371-4.7835,4.0027-6.7746,6.3678-5.2796,6.2711-10.3847,12.6912-15.5611,19.0506-.8563,1.052-1.9326,1.7409-3.2666,2.0231-.2896.0613-.5546.2411-1.0979.4873.4881-4.1733,1.3453-8.0949,2.0648-12.06-.1236.2141-.2654.4198-.3681.6436-1.9216,4.1843-3.4386,8.5088-4.3694,13.0288-.16.777-.1474,1.5889-.2761,2.3745-.0473.2891-.2056.6997-.4265.7989-2.7712,1.2441-4.7412,3.4392-6.75,5.6123-1.4482,1.5667-3.0053,3.0307-4.483,4.5705C2.1832,179.066,1.1023,180.2897,0,181.4925c0-1.6004,0-3.2008,0-4.8012Zm56.1569-88.8798c-2.0502,2.2934-4.0251,4.6719-5.3428,7.5156,1.7809-2.5052,3.5618-5.0104,5.3428-7.5156Zm-24.3844,47.1178c.0599.0435.1199.0871.1798.1306.8144-1.4629,1.6288-2.9257,2.4433-4.3886-.0707-.039-.1414-.078-.2121-.117-.8037,1.4583-1.6073,2.9167-2.411,4.375Z"/><path d="m172.7792,34.3698c.3001.3741.5576.633.7437.9364,2.1914,3.5731,4.6207,6.9612,7.8019,9.7141,2.0035,1.7338,4.3168,2.9315,6.9215,3.4928,1.1909.2566,2.2198-.1043,3.1546-.8611.2158-.1747.5327-.2553.8161-.3077,2.0525-.3791,4.0999-.8039,6.1666-1.0802,1.0981-.1468,2.2314-.026,3.4646-.026.143-.4888.2891-1.223.5789-1.8941.1861-.431.5161-.8728.9003-1.1287.9833-.6549,2.0329-1.2085,3.1784-1.8737.572,1.3723-.411,2.441-.4998,3.6142-.1191,1.5744-1.7168,1.6188-2.5937,2.4791.2593.5297.5249,1.0721.8207,1.6763.978-.8557,1.772-.4247,2.5603.2743.7868.6977,1.5925,1.3768,2.4229,2.0207,1.1691.9066,2.5189,1.2467,3.9857,1.2269.6918-.0093,1.1465-.2651,1.5072-.8727,1.5172-2.5559,1.9983-5.3133,1.6638-8.2402-.1167-1.021-.2505-2.0407-.4093-3.0558-.0766-.4895.046-.8147.4983-1.0459.6168-.3153,1.2116-.6741,1.9668-1.0992.6087,3.4505,1.1242,6.7182-.0848,10.2287.8238-.4482,1.4437-.7853,2.0674-1.1246.2735.6795-.5987,3.3151-1.5725,5.104-.8942,1.6429-2.2304,2.7523-3.95,3.5353.5065.3839.9845.7284,1.4426,1.0981.5643.4554.8851-.12,1.2587-.3209.4625-.2487.8428-.445,1.1636.2231,2.4278-2.4592,3.6249-5.3553,3.8154-8.715.1658-2.9244-.5627-5.7268-1.0985-8.5549-.2973-1.5691-.6874-3.1204-.9756-4.6909-.0734-.4001.119-.8427.1206-1.266.0012-.3202-.0561-.6614-.1742-.9581-1.6929-4.253-4.1394-8.0446-7.1071-11.4891-4.7708-5.5371-10.7459-9.42-17.2352-12.5824-5.5509-2.7051-11.3143-4.7182-17.4764-5.374-4.8224-.5132-9.6383-.8831-14.4618.2222-1.3412.3073-2.8163-.0127-4.2285.0199-9.852.2276-19.3756,2.0789-28.3679,6.2107-5.5352,2.5433-10.7751,5.6252-15.1688,9.9643-.8892.8782-1.6865,1.8512-2.5215,2.7846-.0906.1013-.1506.2304-.2789.4315.8361.2942,1.6259.5559,2.4013.8557.2055.0795.3665.276.5479.4189-.2092.1422-.4023.3675-.6303.4123-1.0264.2016-2.0576.4103-3.097.5031-.9074.081-1.5504.4243-1.9111,1.3904.5635.2121,1.1347.4099,1.6898.6462.1754.0747.3075.2525.4595.3831-.1558.1411-.2897.3561-.4711.4108-.8665.261-1.769.4165-2.6118.7354-.4866.1841-1.0571.5095-1.2949.9376-2.2371,4.0287-4.4597,8.0673-6.5895,12.1544-2.5377,4.87-4.9717,9.7948-7.4732,14.6841-.3353.6554-.7579,1.28-1.2269,1.8457-.2673.3224-.6863.6455-1.0788.7101-1.222.2011-2.464.2791-3.6365.3985,3.8912-4.0026,6.0352-9.1264,8.4244-14.0872,2.4166-5.0178,4.7234-10.0895,7.55-14.9333-1.1097-.3991-2.1717-.781-3.5081-1.2616.4883-.382.7559-.7217,1.0977-.8358,1.3688-.4572,2.7615-.8415,4.1431-1.2604.2393-.0726.4676-.1823.6839-.3838-1.7375.9102-3.015-.5254-4.5154-.72-.0377-.089-.0754-.1779-.1131-.2669.2479-.1926.4681-.4787.7481-.5624,1.7594-.5264,3.5247-1.0376,5.3046-1.4873.5983-.1512,1.082-.3167,1.4701-.861,4.3072-6.0397,10.2483-10.0351,16.6889-13.3578,7.2914-3.7616,15.0525-6.0239,23.1893-6.8755,3.9995-.4186,8.0276-.5601,12.0435-.8153.3533-.0224.7122.0429,1.1421.0726-.4148-.9232.1513-1.0329.8344-1.2139,3.3769-.8944,6.8083-.751,10.2306-.5566,13.1325.7459,24.5683,5.8535,34.6267,14.1505,5.9152,4.8794,10.1108,11.0912,12.4901,18.4746.06.1864.141.366.2317.5988.4386-.2124.851-.4121,1.3923-.6742.2883,1.2994.5874,2.4763.8064,3.6682.541,2.9439,1.2222,5.8767,1.5196,8.8473.3719,3.715-.6089,7.1625-3.082,10.0297-.8766,1.0163-1.9838,1.8305-3.0542,2.799,1.7363,4.0749,2.0986,8.4754,1.5757,12.956-.5193,4.4494-2.0416,8.5643-4.4573,12.3505.1048.0244.1649.0594.2118.0463,1.5459-.4331,1.5808-.4456,2.1047,1.1302.7897,2.3754,1.7284,4.726,2.2378,7.1648.9007,4.3121-.2151,8.1035-3.8867,10.7374-1.2564.9013-2.8859,1.2678-4.326,1.921-.3064.139-.6879.4178-.7687.7075-1.1819,4.2378-2.4904,8.4251-4.4444,12.3821-.1147.2323-.1466.6545-.0136.8408,2.6374,3.6933,4.0881,7.9182,5.4349,12.1918q.7803,2.4762-1.44,3.7621-1.1369.6586-1.5173-.5844c-1.2256-3.9766-2.4632-7.9509-4.5895-11.5613-.5044-.8565-1.1002-1.6606-1.6855-2.4656-.313-.4305-.2021-.6397.1925-.9604.4802-.3902.9711-.8651,1.2349-1.4122,1.978-4.1026,3.3411-8.4219,4.3182-12.8694.0245-.1115.0741-.2303.0565-.3364-.3334-2.0135,1.1004-2.4741,2.5386-2.8563.2685-.0713.6935.1957.9501.4188.2176.1891.2736.5552.4408.8173.422.6617.857.7232,1.4541.2198,3.3621-2.8343,4.1646-6.502,3.1502-10.6004-.6325-2.5554-1.5975-5.0271-2.5856-7.6081-.3914,1.6527-1.6307,2.2034-3.0839,2.7883-.0911-.6077-.1922-1.1237-.2427-1.6447-.3491-3.6037-1.1347-7.0955-2.6159-10.4084-1.5001-3.3552-3.7327-6.1943-6.2731-8.7853-1.69-1.7236-3.4981-3.3306-5.2779-4.9627-.273-.2503-.6937-.3289-1.0193-.5307-.6208-.3848-1.3013-.7185-1.8178-1.2192-2.0879-2.0239-3.199-4.6099-3.9143-7.3767-.1999-.7734-.507-1.0152-1.3202-1.1405-3.0862-.4753-5.7147-1.99-7.9834-4.0985-3.3899-3.1506-6.0104-6.9144-8.3114-10.9158-.2521-.4385-.4847-.8887-.712-1.3409-.0246-.0489.0472-.1471.1477-.4264Zm41.6376,48.5651c1.1848-2.1035,1.9935-4.1542,2.63-6.2868,1.3951-4.6741,1.4622-9.381.4102-14.1224-.0659-.2968-.1337-.6587-.3333-.8488-.9148-.8713-1.8566-1.717-2.8292-2.5222-.6299-.5215-1.3055-.9982-2.006-1.4183-.5106-.3062-2.1306.0185-2.4957.4233-1.1407,1.2646-2.0435,2.7019-2.4352,4.354-.2281.962-.298,2.0772-.0406,3.012.3235,1.1747.907,2.3474,1.6369,3.3248,2.4118,3.2292,3.9525,6.8213,4.7889,10.7464.2236,1.0496.4254,2.104.6738,3.3379Zm-13.6897-34.1678c-.0898.0519-.1796.1037-.2694.1556.1331.5802.2667,1.1603.3994,1.7406.6871,3.0043.9629,6.0308.3123,9.0728-.1254.5861-.0643.9271.3969,1.2945.5982.4765,1.1343,1.0323,1.6953,1.5561.4402.4111.8776.8254,1.3693,1.2882.9637-3.1755,2.8358-5.4545,5.541-7.0902,1.1307-.6837,2.2344-1.2348,3.6268-1.0694.417.0495,1.0017-.268,1.3164-.6022,1.147-1.2177,1.8298-2.7119,2.2111-4.0436-1.0065.6959-2.1514,1.517-3.3256,2.2932-2.26,1.4942-4.5505,1.319-6.7779-.0404-.8402-.5128-1.6248-1.1609-2.3177-1.8644-.7133-.7244-1.3341-.8994-2.1375-.198-.5393.4708-.8456.2677-1.0746-.3911-.2521-.7252-.6381-1.4032-.9658-2.1018Zm-6.6876,3.8214c.1943.463.432,1.0295.6848,1.6321.5626-.3295,1.0708-.6299,1.5816-.9259q2.1048-1.2196,1.3856-3.537c-.0067-.0216-.0319-.0374-.0591-.0679-1.177.9495-2.3525,1.8979-3.593,2.8986Zm-.4968-1.646c1.6793-.989,3.2506-1.9144,4.822-2.8399-.0256-.0929-.0512-.1859-.0768-.2788-1.7689.1848-3.5378.3696-5.3585.5598.2231.9309.4081,1.7027.6132,2.5589Z"/><path d="m146.879,117.4795c-.8335-.6712-1.6669-1.3424-2.5004-2.0136-5.2488-5.6341-8.6305-12.1117-8.9217-19.9951-.0224-.6063-.1575-1.2083-.2751-2.0671.1141-.0956.4153-.3521.7209-.603.2831-.2324.571-.4589.9344-.7501-.4501-.31-.8306-.5721-1.3169-.907.3245-.3576.5702-.705.8868-.9647,1.971-1.6168,4.1564-2.8629,6.5102-3.8298.9212-.3784,1.6291-.1984,2.2633.5364,1.5986,1.8523,3.1955,3.7063,4.8157,5.5392,3.8912,4.4023,7.8759,8.7606,12.9602,11.7631,4.5074,2.6618,9.2552,4.9103,13.8978,7.3395.22.1151.4485.2137.8333.3959-.3037.3596-.5065.6898-.7894.9203-2.1293,1.7352-4.4261,3.1782-7.0592,4.0195-.122.039-.2437.1247-.3311.2205-1.9878,2.1804-4.4951,3.6054-7.2071,4.5343-1.1442.3919-2.5655.1097-3.8375-.052-4.0027-.509-7.7304-1.8546-11.1788-3.9752-.1148-.0706-.2693-.0756-.4053-.1112Zm20.9376-.9373c-.0917-.1398-.1098-.2024-.1495-.2231-3.9651-2.0658-7.9301-4.132-11.904-6.1807-.1914-.0987-.5045-.1306-.6865-.0406-.4674.2311-.8929.5483-1.4242.8881,4.2374,3.2917,8.942,4.9668,14.1642,5.5563Z"/><path d="m126.5988,88.7484c.7535.3088,1.3092.5366,1.865.7643.0046.1021.0093.2043.0139.3064-.5396.0931-1.0761.2174-1.6196.2721-.9073.0913-1.7457.2536-2.0044,1.2319.9588.3418,1.9115.6813,2.8642,1.0209.0018.0792.0036.1584.0054.2376-.1801.0834-.3525.1992-.5416.2448-1.0724.2591-2.1546.4796-3.2199.7647-.2662.0712-.6439.293-.6956.5116-.3326,1.4069-1.6778,1.4103-2.5093,2.1112-.0728-.0405-.1457-.081-.2185-.1215.016-.3655.032-.7309.051-1.1649-.5088.2413-.9911.4605-1.465.6967-1.4386.7171-2.4167.6214-3.9235-.4477.1845-.1466.3274-.318.5097-.3961,2.0818-.8923,4.1762-1.7553,6.2501-2.6655.3989-.1751.724-.521,1.0831-.7881-.0421-.0723-.0842-.1446-.1263-.2169-.9169.3525-1.8951.5966-2.7373,1.081-1.536.8833-2.7808.114-4.1634-.4582.1057-.1621.1453-.3048.2259-.3344,2.0207-.7421,4.0445-1.4754,6.0711-2.2012.2924-.1047.6044-.2426.9018-.23,1.5247.0644,2.4509-.8612,3.4069-1.8806,4.9497-5.2782,10.9232-8.8762,17.9268-10.575,5.8831-1.4271,11.8048-1.3426,17.4351,1.0323,2.7146,1.145,5.1457,2.9765,7.6921,4.5191.5747.3482,1.0949.7877,1.7788,1.0625-.7449-1.0107-1.4883-2.0225-2.2351-3.0318-1.6181-2.1872-1.5329-1.7331.6432-3.042.4905-.295.6826-.1829.9931.2656,2.1826,3.1525,4.4044,6.2774,6.6235,9.425-.0267-.1594-.0376-.3605-.0951-.547-.6106-1.9788-1.5054-3.8021-2.8191-5.4171-.6586-.8097-.6145-.8583.2784-1.3815.5854-.343,1.1923-.6535,1.7527-1.0337.4882-.3312.7649-.1993,1.114.2315,1.3425,1.6567,2.3201,3.503,2.9818,5.528.0687.2102.1582.4135.2516.6553.4751-.2749.9318-.5031,1.3492-.7894.548-.3759.8169-.2373,1.0524.3724.7892,2.0432.8389,4.1162.3578,6.2258-.0761.3338-.1655.6648-.259.9942-1.0855,3.8249-.7707,3.0054-4.4866,5.1087.0787-.4668.0971-.7741.1842-1.0602.494-1.624,1.0043-3.2429,1.5091-4.8635-.0817-.0514-.1633-.1028-.245-.1542-.5492.2918-1.0985.5835-1.8086.9608-.269-1.3164-.5192-2.5408-.7808-3.8208-.7047.4109-1.3234.7458-1.9143,1.1248-.4429.284-.7101.1707-.9617-.2581-.5296-.9025-1.0871-1.7884-1.6658-2.7345-.6498.3542-1.2342.6728-1.9547,1.0656,2.2867,3.0944,4.5429,6.1627,6.818,9.2166.6121.8217,1.2723,1.6079,1.9285,2.395.4176.5009.4444.8454-.2145,1.1826-.9292.4754-1.8242,1.0221-2.7141,1.5708-.4158.2564-.7126.2251-1.0045-.1715-3.0182-4.1014-6.0371-8.2023-9.0689-12.2936-.4313-.582-.314-.9235.3011-1.254.9643-.5182,1.896-1.0981,2.9131-1.6938-4.5302-3.2846-8.8692-6.7551-14.4538-7.869-7.1086-1.4179-13.9428-.5619-20.3833,2.8387-1.332.7033-2.5613,1.6775-3.6793,2.7025-1.7556,1.6096-3.3764,3.3685-5.1642,5.1753Z"/><path d="m146.5601,154.2936c-.1955-.7343.1404-1.3083.6359-1.7545,2.264-2.0388,4.8384-3.5435,7.7312-4.499.771-.2546,1.2731.0332,1.6337.662.3678.6415.6449,1.3379,1.0372,1.9621.1315.2093.4856.2983.7551.3923.3546.1237.7855.1085,1.0811.3077,2.3768,1.6011,4.7385,3.2255,7.0807,4.8775.4045.2853.7095.3115,1.1473.1182,1.9182-.8468,3.5704-2.0758,5.1214-3.4713.2714-.2442.6798-.5213.9998-.4932,2.3649.2082,4.6176.8599,6.7396,1.9434.1686.0861.3028.2404.5389.433-2.6023,2.7487-5.7269,4.4393-9.3135,5.3127.0236.0905.0224.1559.0536.1954.8768,1.111.8884,1.2789-.1766,2.2008-2.336,2.022-4.9791,3.5181-7.8559,4.6211-2.8891,1.1078-5.3397.1909-7.683-1.5184-2.1202-1.5465-3.5867-3.6265-4.8617-5.862-1.0707-1.8772-2.057-3.8032-3.1066-5.7558-.4916.094-1.036.1981-1.5792.3034.0012.0013.021.0245.021.0245Z"/><path d="m190.3586,130.6302c-1.7831,3.1351-3.7327,5.8229-6.4564,7.8946-3.0725,2.3371-6.3259,4.2774-10.2147,4.7995-1.5052.2021-3.0391.2346-4.5607.2475-.8417.0071-1.2803-.5863-1.0764-1.2626-1.9291-.7311-3.68-1.7206-4.8869-3.4962-2.1531-3.1678-1.7426-6.3802,1.3438-8.6235,1.8418-1.3387,3.8523-2.4707,5.8784-3.5155,2.4995-1.289,5.0024-1.0735,7.4052.4304,1.7439,1.0915,3.402,2.2721,4.599,3.9901.3052.438.5894.5035,1.1273.3871,1.795-.3882,3.6105-.6854,5.4252-.9722.3944-.0623.8181.0635,1.416.1206Z"/><path d="m7.9335,183.0078c.1427-.2705.2185-.4485.3231-.6073,4.7417-7.2045,9.4318-14.4494,14.825-21.1866,5.7024-7.1235,11.8993-13.7945,18.5971-19.9769,3.3802-3.12,6.8306-6.1687,10.3525-9.1247,2.0873-1.752,4.6772-2.4943,7.3302-2.948.178-.0305.3709.0274.8306.0689-.5168.4785-.8504.8323-1.2277,1.1299-5.8583,4.621-11.1389,9.8774-16.4124,15.1415-9.8562,9.8387-18.0545,21.0009-25.4589,32.762-2.1146,3.3589-5.202,4.2911-8.6909,4.7899-.1078.0154-.2229-.0213-.4687-.0486Z"/><path d="m110.1956,161.2752c-.7549.1856-1.5177.3437-2.2628.5631-1.1445.3369-2.143.0767-2.9657-.7466-.7552-.7558-.5819-1.6809-.2527-2.563.5492-1.4717,1.6749-2.5175,2.8226-3.4751,3.4471-2.8762,7.2437-5.144,11.5893-6.3814,2.3425-.667,4.7135-.9211,7.0833-.2435.8215.2349,1.6334.6552,2.3273,1.1612,1.6358,1.1931,1.733,2.834.3205,4.3123-1.6862,1.7647-3.7517,2.9939-5.9045,4.0671-3.1249,1.5578-6.3704,2.78-9.849,3.2566-.9489.13-1.9097.1722-2.865.2547-.0144-.0685-.0288-.137-.0433-.2054Z"/><path d="m96.8424,55.9389c.2379-.4822.316-.8262.5261-1.0352,1.1091-1.1034,2.2812-2.1432,3.3762-3.2602,2.4114-2.4598,5.1952-4.4117,8.1647-6.0982,1.1676-.6631,2.4023-1.2517,3.6748-1.6552.3977-.1261,1.0194.4652,1.5386.728-.17.219-.2989.4996-.5165.6474-1.8983,1.289-3.8218,2.5403-5.7156,3.8359-.506.3462-.9354.806-1.4331,1.2428,2.1012-.6719,4.1184-1.386,6.1738-1.9615,6.3572-1.7799,12.8544-2.301,19.4227-1.991,3.6655.173,7.2727.8106,10.8143,1.7608,3.1123.8351,6.2591,1.606,9.2755,2.7214,4.496,1.6625,8.4737,4.3619,12.4955,6.9389.1552.0994.22.342.3269.5179-.2225.0663-.4673.2296-.6639.1836-1.6311-.3819-3.1849-.8661-4.6462-1.8158-3.6943-2.4007-7.4464-4.7375-11.6024-6.277-3.1495-1.1667-6.3714-2.0209-9.7364-2.3576-9.9923-.9998-19.6909.0502-28.9903,4.0297-.9589.4103-1.8438.9939-2.7767,1.4697-.2312.1179-.5137.1582-.777.1796-.1879.0153-.3966-.0279-.5729-.1014-1.1869-.4948-2.1982-.3302-2.9774.7661-.6173.8685-1.6255.8062-2.4978,1.0286-.8321.2121-1.695.3018-2.8827.5024Z"/><path d="m183.9176,95.8959c1.1163,2.9297,2.0537,5.6965.9369,8.6847-.1448.3874-.3564.8291-.6712,1.06-3.093,2.268-5.9294,2.9713-9.8097.2127-3.4643-2.4628-6.334-5.615-8.7987-9.1122-2.9027-4.1187-5.8032-8.239-8.7078-12.3563-1.3654-1.9354-2.9586-3.611-5.1715-4.5783-.169-.0739-.3047-.2252-.6044-.4539.8378-.491,1.5632-.9504,2.3253-1.3358.1663-.0841.4792.0619.6993.1599,1.9703.8768,3.5284,2.2631,4.7718,4.0139,3.0984,4.3627,6.1881,8.7318,9.2743,13.1033,2.2675,3.2118,5.0193,5.953,7.9898,8.4975,1.4948,1.2805,3.2244,1.8435,5.1199,2.0635.6594.0765.9797-.0965,1.1933-.8172.7073-2.3865-.0205-4.584-.7776-6.7631-.2712-.7805-.1166-1.1361.5637-1.4511.5314-.2461,1.0282-.5681,1.6667-.9275Z"/><path d="m67.3318,223.3956c-.389.5509-.6445.9634-.9484,1.3357-4.223,5.1738-8.4123,10.3764-12.6956,15.4992-2.6261,3.1407-5.3543,6.1983-8.1208,9.2149-1.8706,2.0397-4.2329,3.4069-6.7874,4.4214-.3449.137-.7434.137-1.3611.2419.2992-.3984.4314-.6016.5897-.7814,4.2441-4.8205,8.5496-9.5878,12.7179-14.474,3.1151-3.6515,5.9989-7.5028,9.0916-11.1745,1.8211-2.1621,4.3113-3.3808,6.948-4.2792.0931-.0317.2062-.004.5661-.004Z"/><path d="m85.556,109.502c1.0672-.4786,2.1345-.9572,3.3473-1.5012-.293,1.4806-.5819,2.7421-.7879,4.0172-.7528,4.6592-.5912,9.2627.8318,13.7973.5268,1.6787.5078,1.7468-.9601,2.6766-1.3042.8261-2.6906,1.5202-4.0407,2.2726-.1182-.0553-.2364-.1107-.3547-.166-.5069-2.5273-1.2058-5.0343-1.4728-7.5871-.3451-3.2993.0051-6.6024.6335-9.8767.2711-1.4126.9253-2.4038,2.1295-3.0977.2581-.1487.4719-.3753.7062-.5661,0,0-.0322.0309-.0322.031Z"/><path d="m177.2784,56.9435c.9278,1.1413,1.8295,2.3057,2.7902,3.4182,1.1908,1.3791,2.4326,2.7134,3.647,4.072.1831.2048.3368.4363.5739.7469-.78.4525-1.4585.9123-2.1972,1.2302-.1965.0846-.6579-.1946-.8618-.4276-3.3567-3.8345-6.7038-7.6776-10.028-11.5408-3.4356-3.9926-6.8607-7.9947-10.255-12.0229-1.13-1.3411-1.1487-1.098.3702-2.0071.1941-.1162.3955-.2216.5809-.3503.4229-.2935.7224-.2296,1.0724.1849,4.4636,5.2861,8.9449,10.557,13.4249,15.829.1804.2123.3923.3976.5895.5955.0977.0907.1954.1814.293.2721Z"/><path d="m198.8645,76.7569c-.4211-1.4673-.8108-2.9449-1.2802-4.3963-.1642-.508-.1023-.7691.3634-1.022.918-.4985,1.8266-1.0196,2.7049-1.5854.5728-.369.9388-.1872,1.0966.3697.4412,1.5564.8336,3.1273,1.2228,4.6981.1162.4689.1528.9573.2353,1.4352.304,1.7621.3467,1.3571-.9936,2.1795-.8624.5291-1.749,1.0181-2.7294,1.5857.3849.9717.7269,1.9314,1.1463,2.8554.2318.5107.2198.813-.3163,1.0958-.9226.4867-1.8274,1.0131-2.7083,1.5729-.5159.3278-.8534.2448-1.0574-.3041-.5247-1.4116-1.0472-2.8248-1.5333-4.2502-.6891-2.0205-1.3268-4.0589-2.0275-6.0751-.179-.515-.0686-.7604.3937-1.0063.8974-.4772,1.7865-.9793,2.6335-1.5409.65-.431.9744-.2075,1.1992.4244.4762,1.3384.9477,2.6784,1.4212,4.0178.0764-.0181.1528-.0362.2292-.0542Z"/><path d="m91.2031,101.7596c.1731-.2149.3072-.4898.5261-.6341.8949-.59,1.3509-1.4953,1.8536-2.3943,1.6506-2.9518,3.3309-5.8869,5.0232-8.8147.252-.436.5767-.8623.9584-1.1837,2.0385-1.7164,4.3166-3.0303,6.8059-3.9677.2108-.0794.4518-.1992.6509-.1591.2771.0558.6086.185.7625.3968.1102.1517.0484.5423-.0753.7369-1.0224,1.6091-2.124,3.1685-3.1109,4.7987-1.3848,2.2876-2.6853,4.627-4.0396,6.9336-.1797.306-.4118.6503-.708.8062-2.1882,1.1512-4.3836,2.2915-6.6129,3.3585-.5777.2765-1.2836.281-1.9305.4104-.0344-.0958-.0689-.1917-.1033-.2875Z"/><path d="m186.2855,76.2909c.091-.1249.1151-.1828.1582-.2134,1.4455-1.0244,1.434-1.0171,2.3186.5014,2.3946,4.1104,4.876,8.1719,7.1719,12.3373,1.3151,2.386,2.4131,4.9041,3.4612,7.4251.6876,1.654.5695,1.7039-.7798,2.6989.7977,1.8092,1.6995,3.5861,2.3743,5.4465,1.0677,2.9438,1.954,5.954,2.9813,8.9135.3081.8878.0953,1.3917-.7233,1.7217-.2317.0934-.4577.2009-.7826.3444-.1212-.4203-.2343-.7913-.3353-1.1657-1.4244-5.2798-3.3316-10.3687-5.8484-15.2248-.6408-1.2363-.8142-1.0674.537-1.8389.1947-.1112.3835-.2331.6495-.3956-2.8406-7.3423-7.6207-13.603-11.1827-20.5505Z"/><path d="m177.2784,56.9435c-.0977-.0907-.1954-.1814-.293-.2721-2.2658-3.499-4.0915-7.2392-5.6827-11.0781-1.5354-3.7042-2.8166-7.515-4.2372-11.2683-.2238-.5913-.0611-.8985.455-1.1574.5957-.2988,1.1704-.6399,1.7094-.9378,1.5772,4.0658,3.0168,8.0776,4.6844,11.9907,1.6597,3.8945,3.4156,7.7597,5.9991,11.3798-.9551.4869-1.7949.915-2.6348,1.3432Z"/><path d="m196.3738,124.8428c-.0439.3597-.0306.5858-.1012.781-3.2544,8.9905-8.3398,16.5711-16.6081,21.6384-3.0322,1.8583-6.3527,3.0832-9.8516,3.6431-1.4169.2267-2.9503.1105-4.363-.1817-.8578-.1774-1.6199-.9469-2.3579-1.5359-.3397-.2711-.2792-.667.2381-.8234.2138-.0646.4162-.1676.6237-.2534.8384-.3469,1.4466-.5586,2.29.3819,1.2828,1.4305,3.2083,1.3253,5.02,1.2125,4.158-.2589,7.1443-2.7926,10.2044-5.2346,5.7594-4.5961,9.1178-10.8244,11.7748-17.518.3547-.8935.7921-1.4339,1.6783-1.6637.4461-.1157.8824-.2695,1.4527-.4462Z"/><path d="m124.7222,36.2183c-.3494.3523-.6589.7612-1.0561,1.0457-1.0141.7264-2.0598,1.4091-3.1064,2.088-2.0611,1.337-4.2667,2.0712-6.7575,1.6295-.9923-.176-1.8114.1346-2.6782.7157-1.5252,1.0225-3.1808,1.8522-4.8081,2.712-.4827.2551-1.0535.3408-1.5839.5041-.0714-.0608-.1427-.1216-.2141-.1824.1399-.3999.1759-.8967.4384-1.1821.9143-.9943,1.813-2.0443,2.8875-2.8403,3.2988-2.4438,6.9227-4.2774,11.0183-4.829,1.8752-.2526,3.8117-.043,5.7204-.043l.1398.3817Z"/><path d="m109.1427,59.8241c-.4057.2843-.6278.4712-.8766.6095-3.0625,1.7026-6.2041,3.2756-9.1754,5.1263-3.7571,2.3402-7.3966,4.8693-10.253,8.3724-.3595.4409-1.1829.5331-1.8135.7042-.6701.1818-1.3644.2791-2.0525.384-.2414.0368-.4959-.0136-.7444-.0242.0794-.3043.0657-.6969.2536-.8985,1.1428-1.2257,2.2378-2.5232,3.5216-3.5844,4.9674-4.1063,10.4613-7.3885,16.2895-10.0796,1.2635-.5834,2.7394-.707,4.1257-1.0034.1549-.0331.3636.1893.7249.3937Z"/><path d="m191.1133,99.9423c-.1355.1514-.276.3942-.4853.5266-.6674.422-1.3804.7721-2.0378,1.2082-.6719.4458-.8925.1426-1.0106-.4989-.2942-1.5982-.5183-3.2158-.9256-4.7848-.4639-1.7868-1.0503-3.546-1.6783-5.2824-.239-.6609-.1438-.9846.4614-1.2747.5584-.2676,1.078-.617,1.6167-.9268.8958-.5149,1.0317-.5125,1.3682.5042.6516,1.9692,1.2757,3.9517,1.8005,5.9581.3812,1.4573.5844,2.9619.8908,4.5704Z"/><path d="m210.6913,99.2404c-.3366-.724-.607-1.3741-.9325-1.9948-1.8486-3.5243-3.6968-7.049-5.5832-10.5528-.2701-.5018-.2279-.7532.2488-1.004,2.2591-1.1885,1.7707-1.6193,3.0714.776,1.8845,3.4704,3.5934,7.0374,5.3987,10.5519.2937.5718.2539.9169-.3623,1.2011-.6037.2784-1.168.6439-1.8409,1.0226Z"/><path d="m87.8001,85.6334c-.1121.1265-.1982.2335-.2942.3306-3.9987,4.0418-7.9475,8.1362-12.0319,12.0882-1.0872,1.0519-2.5871,1.6727-3.9097,2.4709-.0932.0563-.3608-.0107-.417-.1019-.0857-.1391-.0863-.3528-.0659-.5281.0106-.0909.1428-.1685.2221-.2501,3.3296-3.4266,6.6747-6.8382,9.9828-10.2857,1.6319-1.7006,3.5835-2.9235,5.6181-4.0394.1755-.0962.4179-.1448.6085-.1076.1116.0218.1819.2577.2872.4231Z"/><path d="m114.3459,82.6843c.6097.4182.4015.7098.0946,1.0966-2.298,2.8967-4.7675,5.6834-6.7806,8.7711-1.2134,1.8611-2.9091,2.7487-4.6329,3.7727-.1289.0765-.3458.0024-.5219-.0016.0153-.2816-.0719-.6324.0621-.8339,1.1974-1.801,2.3793-3.6171,3.6752-5.3454,1.1089-1.479,2.4039-2.815,3.5392-4.2754,1.2046-1.5496,3.0532-2.0822,4.5642-3.184Z"/><path d="m123.1648,78.6379c.1107.1724.2282.3552.3675.5721-.8159.7057-1.682,1.3223-2.3873,2.0891-2.3491,2.5542-4.7018,5.1101-6.9333,7.7674-1.592,1.8958-3.5548,3.2085-5.7051,4.3047-.1728.0881-.4289.0101-.6463.0093.0343-.2174-.0082-.5038.1141-.6421,2.4492-2.771,4.9202-5.5224,7.381-8.283,2.1959-2.4635,4.789-4.3841,7.8095-5.8175Z"/><path d="m81.3818,88.2397c-.2106.1825-.3978.3432-.5834.5057-1.9415,1.6997-3.993,3.2905-5.7904,5.133-1.5368,1.5754-2.7597,3.4585-4.1705,5.1643-.3997.4833-.9432.8649-1.4709,1.217-.702.4684-1.4428.882-2.1897,1.275-.2006.1056-.4842.0512-.7296.0702.0272-.2541-.0232-.5538.0934-.7553,1.455-2.5132,3.3506-4.6825,5.4554-6.638,2.5692-2.387,5.2457-4.6617,8.403-6.2606.2066-.1046.4571-.1731.6829-.1627.0947.0044.1781.2583.2998.4513Z"/><path d="m111.6567,61.299c.3266.4857.1922.7546-.2766,1.0208-2.2108,1.2552-4.4206,2.5141-6.5971,3.8283-1.1112.671-2.1312,1.4943-3.2334,2.182-.4829.3013-1.0557.4833-1.6104.6347-.8041.2195-1.6255.3821-2.4471.5239-.2138.0369-.456-.0935-.6852-.147.0721-.2455.0666-.5905.2296-.7198.7982-.6331,1.6048-1.2707,2.4756-1.7928,2.4731-1.4829,4.9304-3.007,7.4939-4.3162,1.1598-.5924,2.5557-.7166,3.8458-1.0477.2627-.0674.5316-.1104.8048-.1661Z"/><path d="m133.2542,108.9807c0,.497.0941.8516-.0149,1.1237-.8565,2.1389-1.7501,4.2628-2.6382,6.3888-.0749.1794-.1514.4089-.2976.4991-1.1276.6956-2.2689,1.3692-3.4187,2.0271-.1046.0598-.401.004-.4305-.0701-.0863-.2165-.1721-.5023-.0998-.703.5314-1.4733,1.132-2.9215,1.6517-4.3987.6445-1.832,1.7502-3.1934,3.5792-3.927.5131-.2057.9741-.5432,1.6687-.9401Z"/><path d="m85.5882,109.471c-2.0305.9344-4.0883,1.8133-6.086,2.8141-4.9099,2.4597-9.792,4.9758-14.6859,7.468-.2197.1119-.445.2125-.6485.3093-.4534-.3695-.4446-.6582.0318-.9356,6.5369-3.8065,13.1734-7.4153,20.1518-10.3485.6974-.2931,1.389-.6006,2.0909-.8819.5267-.2111.5322-.1971.811.4152-.5655.3966-1.131.7931-1.6969,1.1899-.0004.0003.0318-.0306.0318-.0306Z"/><path d="m130.0136,107.1199c0,.466.0957.8014-.0151,1.039-.8901,1.9085-1.8135,3.8013-2.7427,5.6909-.1331.2707-.3005.5825-.54.7318-1.1468.7146-2.3239,1.3799-3.6886,2.1789-.0386-.446-.1753-.7885-.0714-1.0226.7972-1.7968,1.5844-3.6031,2.5014-5.3384.3221-.6095.9413-1.113,1.5261-1.5155.8977-.6178,1.883-1.1065,3.0304-1.7642Z"/><path d="m120.8492,231.8853c-.8504,2.2086-15.1013,10.8766-17.3971,10.3528.279-.1797.558-.3594.8369-.539.881-.5673,1.7032-1.2783,2.6547-1.6728,2.1846-.9058,4.004-2.3691,5.953-3.6427,2.0459-1.337,4.1382-2.6035,6.2355-3.8579.4859-.2906,1.0744-.4069,1.7169-.6403Z"/><path d="m74.5892,110.9799c-1.1693.6755-2.3078,1.2807-3.3935,1.9704-3.1328,1.99-6.2485,4.0073-9.3621,6.0279-1.4137.9174-2.7978,1.8815-4.2188,2.7871-.1891.1205-.5167.0202-.7801.0222.0966-.2543.118-.6129.3013-.7469,2.0404-1.4921,4.038-3.0605,6.1802-4.3906,3.3906-2.1052,6.8804-4.0486,10.3339-6.0503.5734-.3324.587-.3086.9391.3803Z"/><path d="m202.6753,38.8691c.1046.5012.2359.8625.2474,1.2276.1023,3.2376-1.7767,4.9022-4.7354,5.7923-.0359-.2343-.1503-.5247-.1091-.7907.1828-1.1816.4002-2.3582.6311-3.5315.0393-.1998.1593-.4503.3197-.5484,1.1493-.703,2.3187-1.3727,3.6464-2.1493Z"/><path d="m103.169,69.2091c-.2372-.4035-.1168-.6545.3399-.8933,1.9023-.9949,3.7299-2.1564,5.6915-3.0072,1.3334-.5784,2.8423-.7487,4.2781-1.0779.1029-.0236.3631.1614.3553.2253-.0259.2125-.082.506-.232.6032-.5681.3679-1.1806.6654-1.7712.9988-2.6917,1.5194-5.3859,3.0306-8.6616,3.1512Z"/><path class="cls-1" d="m34.3956,130.6712c-.8144,1.4629-1.6288,2.9257-2.4433,4.3886"/><path d="m208.0634,64.3922c.023-1.3694.3864-2.2969,1.4198-2.87.6349-.3521,1.2257-.8056,1.892-1.072.4332-.1731,1.0512-.2732,1.4398-.0901,1.2418.5849,1.6794,1.8094,1.8746,3.0592.1571,1.0056-.4428,1.7113-1.3053,2.1882-.4646.2569-.9535.4901-1.3661.8176-.9544.7576-1.8697.3969-2.7361-.088-.8161-.4568-1.2703-1.2008-1.2189-1.945Zm2.9857-2.122c-.5679,1.2687-.1558,2.1026,1.1912,2.494-.4507-.9436-.821-1.7188-1.1912-2.494Z"/></g></g></svg>