<svg width="424" height="420" viewBox="0 0 424 420" fill="none" xmlns="http://www.w3.org/2000/svg">
<mask id="path-1-outside-1_22_177" maskUnits="userSpaceOnUse" x="0" y="0" width="424" height="420" fill="black">
<rect fill="white" width="424" height="420"/>
<path d="M206.813 15.3188C207.67 9.32072 216.33 9.32072 217.187 15.3188C217.998 21.003 226.049 21.4112 227.457 15.8448C228.943 9.97448 237.555 10.8647 237.772 16.9162C237.978 22.6513 245.943 23.8871 247.931 18.5035C250.026 12.8275 258.501 14.5936 258.076 20.6292C257.673 26.3498 265.468 28.401 268.011 23.2606C270.691 17.8423 278.936 20.4664 277.876 26.4175C276.871 32.0588 284.41 34.9041 287.477 30.0638C290.708 24.963 298.637 28.4183 296.955 34.2179C295.36 39.7161 302.56 43.3261 306.115 38.8386C309.86 34.1105 317.386 38.3617 315.103 43.945C312.939 49.2391 319.721 53.5753 323.722 49.4886C327.937 45.1835 334.977 50.1867 332.122 55.4924C329.415 60.5239 335.704 65.5401 340.105 61.8972C344.742 58.06 351.218 63.7629 347.825 68.7335C344.606 73.448 350.332 79.0899 355.084 75.9282C360.09 72.5981 365.93 78.9405 362.039 83.5231C358.347 87.8702 363.445 94.0764 368.496 91.428C373.816 88.6385 378.954 95.5523 374.608 99.699C370.485 103.633 374.898 110.336 380.192 108.227C385.769 106.005 390.146 113.416 385.395 117.084C380.887 120.564 384.566 127.689 390.046 126.14C395.82 124.508 399.386 132.335 394.281 135.486C389.438 138.477 392.341 145.946 397.949 144.972C403.859 143.946 406.572 152.101 401.17 154.705C396.043 157.177 398.138 164.905 403.816 164.516C409.798 164.105 411.628 172.5 405.985 174.53C400.63 176.456 401.893 184.36 407.58 184.558C413.574 184.767 414.497 193.306 408.674 194.742C403.148 196.105 403.565 204.094 409.202 204.879C415.145 205.706 415.145 214.294 409.202 215.121C403.565 215.906 403.148 223.896 408.674 225.258C414.497 226.694 413.574 235.233 407.58 235.442C401.893 235.641 400.63 243.544 405.985 245.471C411.628 247.501 409.798 255.895 403.816 255.485C398.138 255.095 396.043 262.824 401.17 265.295C406.572 267.899 403.859 276.055 397.949 275.029C392.341 274.055 389.437 281.523 394.281 284.514C399.386 287.666 395.82 295.492 390.046 293.861C384.566 292.312 380.887 299.437 385.395 302.917C390.146 306.585 385.769 313.995 380.192 311.774C374.898 309.665 370.485 316.367 374.608 320.301C378.954 324.448 373.816 331.362 368.496 328.572C363.445 325.924 358.347 332.13 362.039 336.477C365.93 341.06 360.09 347.402 355.084 344.072C350.332 340.911 344.606 346.552 347.825 351.267C351.218 356.238 344.742 361.94 340.105 358.103C335.704 354.46 329.415 359.476 332.122 364.508C334.977 369.814 327.937 374.817 323.722 370.512C319.721 366.425 312.939 370.761 315.103 376.055C317.386 381.639 309.86 385.89 306.115 381.162C302.56 376.674 295.36 380.284 296.955 385.783C298.637 391.582 290.708 395.037 287.477 389.937C284.41 385.096 276.871 387.942 277.876 393.583C278.936 399.534 270.691 402.158 268.011 396.74C265.468 391.599 257.673 393.651 258.076 399.371C258.501 405.407 250.026 407.173 247.931 401.497C245.943 396.113 237.978 397.349 237.772 403.084C237.555 409.136 228.943 410.026 227.457 404.156C226.049 398.589 217.998 398.997 217.187 404.682C216.33 410.68 207.67 410.68 206.813 404.682C206.002 398.997 197.951 398.589 196.543 404.156C195.058 410.026 186.445 409.136 186.228 403.084C186.023 397.349 178.057 396.113 176.069 401.497C173.974 407.173 165.499 405.407 165.924 399.371C166.327 393.651 158.532 391.599 155.99 396.74C153.31 402.158 145.064 399.534 146.124 393.583C147.129 387.942 139.59 385.096 136.524 389.937C133.292 395.037 125.363 391.582 127.045 385.783C128.64 380.284 121.44 376.674 117.885 381.162C114.14 385.89 106.615 381.639 108.897 376.055C111.061 370.761 104.279 366.425 100.278 370.512C96.0627 374.817 89.0232 369.814 91.878 364.508C94.5852 359.476 88.2965 354.46 83.8948 358.103C79.2584 361.94 72.7823 356.238 76.1755 351.267C79.3937 346.552 73.6683 340.911 68.9156 344.072C63.9099 347.402 58.0697 341.06 61.9615 336.477C65.6533 332.13 60.5553 325.924 55.5043 328.572C50.1844 331.362 45.0461 324.448 49.3921 320.301C53.5153 316.367 49.102 309.665 43.8077 311.774C38.2313 313.995 33.8536 306.585 38.6052 302.917C43.1135 299.437 39.4345 292.312 33.9539 293.861C28.1806 295.492 24.6141 287.666 29.7189 284.514C34.5626 281.523 31.6595 274.055 26.0507 275.029C20.1416 276.055 17.4279 267.899 22.8305 265.295C27.9573 262.824 25.8625 255.095 20.1846 255.485C14.2017 255.895 12.3726 247.501 18.0155 245.471C23.3703 243.544 22.1073 235.641 16.4199 235.442C10.4256 235.233 9.50294 226.694 15.3264 225.258C20.8526 223.896 20.4351 215.906 14.7977 215.121C8.85484 214.294 8.85484 205.706 14.7977 204.879C20.4351 204.094 20.8526 196.105 15.3264 194.742C9.50294 193.306 10.4256 184.767 16.4199 184.558C22.1073 184.36 23.3703 176.456 18.0155 174.53C12.3726 172.5 14.2017 164.105 20.1846 164.516C25.8625 164.905 27.9573 157.177 22.8305 154.705C17.4279 152.101 20.1416 143.946 26.0507 144.972C31.6595 145.946 34.5626 138.477 29.7188 135.486C24.6141 132.335 28.1806 124.508 33.9539 126.14C39.4345 127.689 43.1135 120.564 38.6052 117.084C33.8537 113.416 38.2313 106.005 43.8077 108.227C49.102 110.336 53.5153 103.633 49.3921 99.699C45.0461 95.5523 50.1844 88.6385 55.5043 91.428C60.5553 94.0764 65.6533 87.8702 61.9615 83.5231C58.0697 78.9405 63.9099 72.5982 68.9156 75.9282C73.6683 79.0899 79.3937 73.448 76.1755 68.7335C72.7823 63.7629 79.2584 58.06 83.8948 61.8972C88.2964 65.5401 94.5852 60.524 91.878 55.4924C89.0232 50.1867 96.0627 45.1835 100.278 49.4886C104.279 53.5753 111.061 49.2391 108.897 43.945C106.615 38.3617 114.14 34.1105 117.885 38.8386C121.44 43.3261 128.64 39.7162 127.045 34.2179C125.363 28.4184 133.292 24.963 136.524 30.0638C139.59 34.9041 147.129 32.0587 146.124 26.4175C145.064 20.4664 153.31 17.8423 155.99 23.2606C158.532 28.401 166.327 26.3498 165.924 20.6292C165.499 14.5936 173.974 12.8275 176.069 18.5035C178.057 23.8871 186.023 22.6513 186.228 16.9162C186.445 10.8648 195.058 9.97448 196.543 15.8448C197.951 21.4112 206.002 21.003 206.813 15.3188Z"/>
</mask>
<path d="M206.813 15.3188C207.67 9.32072 216.33 9.32072 217.187 15.3188C217.998 21.003 226.049 21.4112 227.457 15.8448C228.943 9.97448 237.555 10.8647 237.772 16.9162C237.978 22.6513 245.943 23.8871 247.931 18.5035C250.026 12.8275 258.501 14.5936 258.076 20.6292C257.673 26.3498 265.468 28.401 268.011 23.2606C270.691 17.8423 278.936 20.4664 277.876 26.4175C276.871 32.0588 284.41 34.9041 287.477 30.0638C290.708 24.963 298.637 28.4183 296.955 34.2179C295.36 39.7161 302.56 43.3261 306.115 38.8386C309.86 34.1105 317.386 38.3617 315.103 43.945C312.939 49.2391 319.721 53.5753 323.722 49.4886C327.937 45.1835 334.977 50.1867 332.122 55.4924C329.415 60.5239 335.704 65.5401 340.105 61.8972C344.742 58.06 351.218 63.7629 347.825 68.7335C344.606 73.448 350.332 79.0899 355.084 75.9282C360.09 72.5981 365.93 78.9405 362.039 83.5231C358.347 87.8702 363.445 94.0764 368.496 91.428C373.816 88.6385 378.954 95.5523 374.608 99.699C370.485 103.633 374.898 110.336 380.192 108.227C385.769 106.005 390.146 113.416 385.395 117.084C380.887 120.564 384.566 127.689 390.046 126.14C395.82 124.508 399.386 132.335 394.281 135.486C389.438 138.477 392.341 145.946 397.949 144.972C403.859 143.946 406.572 152.101 401.17 154.705C396.043 157.177 398.138 164.905 403.816 164.516C409.798 164.105 411.628 172.5 405.985 174.53C400.63 176.456 401.893 184.36 407.58 184.558C413.574 184.767 414.497 193.306 408.674 194.742C403.148 196.105 403.565 204.094 409.202 204.879C415.145 205.706 415.145 214.294 409.202 215.121C403.565 215.906 403.148 223.896 408.674 225.258C414.497 226.694 413.574 235.233 407.58 235.442C401.893 235.641 400.63 243.544 405.985 245.471C411.628 247.501 409.798 255.895 403.816 255.485C398.138 255.095 396.043 262.824 401.17 265.295C406.572 267.899 403.859 276.055 397.949 275.029C392.341 274.055 389.437 281.523 394.281 284.514C399.386 287.666 395.82 295.492 390.046 293.861C384.566 292.312 380.887 299.437 385.395 302.917C390.146 306.585 385.769 313.995 380.192 311.774C374.898 309.665 370.485 316.367 374.608 320.301C378.954 324.448 373.816 331.362 368.496 328.572C363.445 325.924 358.347 332.13 362.039 336.477C365.93 341.06 360.09 347.402 355.084 344.072C350.332 340.911 344.606 346.552 347.825 351.267C351.218 356.238 344.742 361.94 340.105 358.103C335.704 354.46 329.415 359.476 332.122 364.508C334.977 369.814 327.937 374.817 323.722 370.512C319.721 366.425 312.939 370.761 315.103 376.055C317.386 381.639 309.86 385.89 306.115 381.162C302.56 376.674 295.36 380.284 296.955 385.783C298.637 391.582 290.708 395.037 287.477 389.937C284.41 385.096 276.871 387.942 277.876 393.583C278.936 399.534 270.691 402.158 268.011 396.74C265.468 391.599 257.673 393.651 258.076 399.371C258.501 405.407 250.026 407.173 247.931 401.497C245.943 396.113 237.978 397.349 237.772 403.084C237.555 409.136 228.943 410.026 227.457 404.156C226.049 398.589 217.998 398.997 217.187 404.682C216.33 410.68 207.67 410.68 206.813 404.682C206.002 398.997 197.951 398.589 196.543 404.156C195.058 410.026 186.445 409.136 186.228 403.084C186.023 397.349 178.057 396.113 176.069 401.497C173.974 407.173 165.499 405.407 165.924 399.371C166.327 393.651 158.532 391.599 155.99 396.74C153.31 402.158 145.064 399.534 146.124 393.583C147.129 387.942 139.59 385.096 136.524 389.937C133.292 395.037 125.363 391.582 127.045 385.783C128.64 380.284 121.44 376.674 117.885 381.162C114.14 385.89 106.615 381.639 108.897 376.055C111.061 370.761 104.279 366.425 100.278 370.512C96.0627 374.817 89.0232 369.814 91.878 364.508C94.5852 359.476 88.2965 354.46 83.8948 358.103C79.2584 361.94 72.7823 356.238 76.1755 351.267C79.3937 346.552 73.6683 340.911 68.9156 344.072C63.9099 347.402 58.0697 341.06 61.9615 336.477C65.6533 332.13 60.5553 325.924 55.5043 328.572C50.1844 331.362 45.0461 324.448 49.3921 320.301C53.5153 316.367 49.102 309.665 43.8077 311.774C38.2313 313.995 33.8536 306.585 38.6052 302.917C43.1135 299.437 39.4345 292.312 33.9539 293.861C28.1806 295.492 24.6141 287.666 29.7189 284.514C34.5626 281.523 31.6595 274.055 26.0507 275.029C20.1416 276.055 17.4279 267.899 22.8305 265.295C27.9573 262.824 25.8625 255.095 20.1846 255.485C14.2017 255.895 12.3726 247.501 18.0155 245.471C23.3703 243.544 22.1073 235.641 16.4199 235.442C10.4256 235.233 9.50294 226.694 15.3264 225.258C20.8526 223.896 20.4351 215.906 14.7977 215.121C8.85484 214.294 8.85484 205.706 14.7977 204.879C20.4351 204.094 20.8526 196.105 15.3264 194.742C9.50294 193.306 10.4256 184.767 16.4199 184.558C22.1073 184.36 23.3703 176.456 18.0155 174.53C12.3726 172.5 14.2017 164.105 20.1846 164.516C25.8625 164.905 27.9573 157.177 22.8305 154.705C17.4279 152.101 20.1416 143.946 26.0507 144.972C31.6595 145.946 34.5626 138.477 29.7188 135.486C24.6141 132.335 28.1806 124.508 33.9539 126.14C39.4345 127.689 43.1135 120.564 38.6052 117.084C33.8537 113.416 38.2313 106.005 43.8077 108.227C49.102 110.336 53.5153 103.633 49.3921 99.699C45.0461 95.5523 50.1844 88.6385 55.5043 91.428C60.5553 94.0764 65.6533 87.8702 61.9615 83.5231C58.0697 78.9405 63.9099 72.5982 68.9156 75.9282C73.6683 79.0899 79.3937 73.448 76.1755 68.7335C72.7823 63.7629 79.2584 58.06 83.8948 61.8972C88.2964 65.5401 94.5852 60.524 91.878 55.4924C89.0232 50.1867 96.0627 45.1835 100.278 49.4886C104.279 53.5753 111.061 49.2391 108.897 43.945C106.615 38.3617 114.14 34.1105 117.885 38.8386C121.44 43.3261 128.64 39.7162 127.045 34.2179C125.363 28.4184 133.292 24.963 136.524 30.0638C139.59 34.9041 147.129 32.0587 146.124 26.4175C145.064 20.4664 153.31 17.8423 155.99 23.2606C158.532 28.401 166.327 26.3498 165.924 20.6292C165.499 14.5936 173.974 12.8275 176.069 18.5035C178.057 23.8871 186.023 22.6513 186.228 16.9162C186.445 10.8648 195.058 9.97448 196.543 15.8448C197.951 21.4112 206.002 21.003 206.813 15.3188Z" fill="#D93D4A"/>
<path d="M206.813 15.3188C207.67 9.32072 216.33 9.32072 217.187 15.3188C217.998 21.003 226.049 21.4112 227.457 15.8448C228.943 9.97448 237.555 10.8647 237.772 16.9162C237.978 22.6513 245.943 23.8871 247.931 18.5035C250.026 12.8275 258.501 14.5936 258.076 20.6292C257.673 26.3498 265.468 28.401 268.011 23.2606C270.691 17.8423 278.936 20.4664 277.876 26.4175C276.871 32.0588 284.41 34.9041 287.477 30.0638C290.708 24.963 298.637 28.4183 296.955 34.2179C295.36 39.7161 302.56 43.3261 306.115 38.8386C309.86 34.1105 317.386 38.3617 315.103 43.945C312.939 49.2391 319.721 53.5753 323.722 49.4886C327.937 45.1835 334.977 50.1867 332.122 55.4924C329.415 60.5239 335.704 65.5401 340.105 61.8972C344.742 58.06 351.218 63.7629 347.825 68.7335C344.606 73.448 350.332 79.0899 355.084 75.9282C360.09 72.5981 365.93 78.9405 362.039 83.5231C358.347 87.8702 363.445 94.0764 368.496 91.428C373.816 88.6385 378.954 95.5523 374.608 99.699C370.485 103.633 374.898 110.336 380.192 108.227C385.769 106.005 390.146 113.416 385.395 117.084C380.887 120.564 384.566 127.689 390.046 126.14C395.82 124.508 399.386 132.335 394.281 135.486C389.438 138.477 392.341 145.946 397.949 144.972C403.859 143.946 406.572 152.101 401.17 154.705C396.043 157.177 398.138 164.905 403.816 164.516C409.798 164.105 411.628 172.5 405.985 174.53C400.63 176.456 401.893 184.36 407.58 184.558C413.574 184.767 414.497 193.306 408.674 194.742C403.148 196.105 403.565 204.094 409.202 204.879C415.145 205.706 415.145 214.294 409.202 215.121C403.565 215.906 403.148 223.896 408.674 225.258C414.497 226.694 413.574 235.233 407.58 235.442C401.893 235.641 400.63 243.544 405.985 245.471C411.628 247.501 409.798 255.895 403.816 255.485C398.138 255.095 396.043 262.824 401.17 265.295C406.572 267.899 403.859 276.055 397.949 275.029C392.341 274.055 389.437 281.523 394.281 284.514C399.386 287.666 395.82 295.492 390.046 293.861C384.566 292.312 380.887 299.437 385.395 302.917C390.146 306.585 385.769 313.995 380.192 311.774C374.898 309.665 370.485 316.367 374.608 320.301C378.954 324.448 373.816 331.362 368.496 328.572C363.445 325.924 358.347 332.13 362.039 336.477C365.93 341.06 360.09 347.402 355.084 344.072C350.332 340.911 344.606 346.552 347.825 351.267C351.218 356.238 344.742 361.94 340.105 358.103C335.704 354.46 329.415 359.476 332.122 364.508C334.977 369.814 327.937 374.817 323.722 370.512C319.721 366.425 312.939 370.761 315.103 376.055C317.386 381.639 309.86 385.89 306.115 381.162C302.56 376.674 295.36 380.284 296.955 385.783C298.637 391.582 290.708 395.037 287.477 389.937C284.41 385.096 276.871 387.942 277.876 393.583C278.936 399.534 270.691 402.158 268.011 396.74C265.468 391.599 257.673 393.651 258.076 399.371C258.501 405.407 250.026 407.173 247.931 401.497C245.943 396.113 237.978 397.349 237.772 403.084C237.555 409.136 228.943 410.026 227.457 404.156C226.049 398.589 217.998 398.997 217.187 404.682C216.33 410.68 207.67 410.68 206.813 404.682C206.002 398.997 197.951 398.589 196.543 404.156C195.058 410.026 186.445 409.136 186.228 403.084C186.023 397.349 178.057 396.113 176.069 401.497C173.974 407.173 165.499 405.407 165.924 399.371C166.327 393.651 158.532 391.599 155.99 396.74C153.31 402.158 145.064 399.534 146.124 393.583C147.129 387.942 139.59 385.096 136.524 389.937C133.292 395.037 125.363 391.582 127.045 385.783C128.64 380.284 121.44 376.674 117.885 381.162C114.14 385.89 106.615 381.639 108.897 376.055C111.061 370.761 104.279 366.425 100.278 370.512C96.0627 374.817 89.0232 369.814 91.878 364.508C94.5852 359.476 88.2965 354.46 83.8948 358.103C79.2584 361.94 72.7823 356.238 76.1755 351.267C79.3937 346.552 73.6683 340.911 68.9156 344.072C63.9099 347.402 58.0697 341.06 61.9615 336.477C65.6533 332.13 60.5553 325.924 55.5043 328.572C50.1844 331.362 45.0461 324.448 49.3921 320.301C53.5153 316.367 49.102 309.665 43.8077 311.774C38.2313 313.995 33.8536 306.585 38.6052 302.917C43.1135 299.437 39.4345 292.312 33.9539 293.861C28.1806 295.492 24.6141 287.666 29.7189 284.514C34.5626 281.523 31.6595 274.055 26.0507 275.029C20.1416 276.055 17.4279 267.899 22.8305 265.295C27.9573 262.824 25.8625 255.095 20.1846 255.485C14.2017 255.895 12.3726 247.501 18.0155 245.471C23.3703 243.544 22.1073 235.641 16.4199 235.442C10.4256 235.233 9.50294 226.694 15.3264 225.258C20.8526 223.896 20.4351 215.906 14.7977 215.121C8.85484 214.294 8.85484 205.706 14.7977 204.879C20.4351 204.094 20.8526 196.105 15.3264 194.742C9.50294 193.306 10.4256 184.767 16.4199 184.558C22.1073 184.36 23.3703 176.456 18.0155 174.53C12.3726 172.5 14.2017 164.105 20.1846 164.516C25.8625 164.905 27.9573 157.177 22.8305 154.705C17.4279 152.101 20.1416 143.946 26.0507 144.972C31.6595 145.946 34.5626 138.477 29.7188 135.486C24.6141 132.335 28.1806 124.508 33.9539 126.14C39.4345 127.689 43.1135 120.564 38.6052 117.084C33.8537 113.416 38.2313 106.005 43.8077 108.227C49.102 110.336 53.5153 103.633 49.3921 99.699C45.0461 95.5523 50.1844 88.6385 55.5043 91.428C60.5553 94.0764 65.6533 87.8702 61.9615 83.5231C58.0697 78.9405 63.9099 72.5982 68.9156 75.9282C73.6683 79.0899 79.3937 73.448 76.1755 68.7335C72.7823 63.7629 79.2584 58.06 83.8948 61.8972C88.2964 65.5401 94.5852 60.524 91.878 55.4924C89.0232 50.1867 96.0627 45.1835 100.278 49.4886C104.279 53.5753 111.061 49.2391 108.897 43.945C106.615 38.3617 114.14 34.1105 117.885 38.8386C121.44 43.3261 128.64 39.7162 127.045 34.2179C125.363 28.4184 133.292 24.963 136.524 30.0638C139.59 34.9041 147.129 32.0587 146.124 26.4175C145.064 20.4664 153.31 17.8423 155.99 23.2606C158.532 28.401 166.327 26.3498 165.924 20.6292C165.499 14.5936 173.974 12.8275 176.069 18.5035C178.057 23.8871 186.023 22.6513 186.228 16.9162C186.445 10.8648 195.058 9.97448 196.543 15.8448C197.951 21.4112 206.002 21.003 206.813 15.3188Z" stroke="#D9D9D9" stroke-width="20" mask="url(#path-1-outside-1_22_177)"/>
</svg>
