<svg width="55" height="53" viewBox="0 0 55 53" fill="none" xmlns="http://www.w3.org/2000/svg">
<path d="M21.5504 5.60162C22.4591 -1.36341 32.5409 -1.36342 33.4496 5.6016L34.5438 13.9882C34.8922 16.6588 36.9774 18.77 39.6435 19.1515L49.4904 20.5605C56.3573 21.5431 56.3573 31.4569 49.4904 32.4395L39.6435 33.8485C36.9774 34.23 34.8922 36.3412 34.5438 39.0117L33.4496 47.3984C32.5409 54.3634 22.4591 54.3634 21.5504 47.3984L20.4562 39.0118C20.1078 36.3412 18.0226 34.23 15.3565 33.8485L5.50957 32.4395C-1.35727 31.4569 -1.35727 21.5431 5.50957 20.5605L15.3565 19.1515C18.0226 18.77 20.1078 16.6588 20.4562 13.9882L21.5504 5.60162Z" fill="black"/>
</svg>
