<svg width="48" height="49" viewBox="0 0 48 49" fill="none" xmlns="http://www.w3.org/2000/svg">
<path d="M18.0561 6.15186C19.0077 -0.756496 28.9923 -0.756504 29.9439 6.15186L30.831 12.5924C31.1986 15.261 33.2997 17.3575 35.9691 17.7193L42.1306 18.5544C49.0562 19.493 49.0562 29.507 42.1306 30.4456L35.9691 31.2807C33.2997 31.6425 31.1986 33.739 30.831 36.4076L29.9439 42.8481C28.9923 49.7565 19.0077 49.7565 18.0561 42.8481L17.169 36.4076C16.8014 33.739 14.7003 31.6425 12.0309 31.2807L5.86939 30.4456C-1.05619 29.507 -1.05619 19.493 5.86938 18.5544L12.0309 17.7193C14.7003 17.3575 16.8014 15.261 17.169 12.5924L18.0561 6.15186Z" fill="#D9D9D9"/>
</svg>
