<svg width="68" height="66" viewBox="0 0 68 66" fill="none" xmlns="http://www.w3.org/2000/svg">
<path d="M27.173 10.7685C28.8202 3.49722 39.1798 3.4972 40.827 10.7685L41.2314 12.5538C42.6539 18.8329 47.5014 23.7698 53.7535 25.3065L57.3979 26.2023C64.5034 27.9489 64.5034 38.0511 57.3979 39.7977L53.7535 40.6935C47.5014 42.2302 42.6539 47.1671 41.2315 53.4462L40.827 55.2315C39.1798 62.5028 28.8202 62.5028 27.173 55.2315L26.7685 53.4462C25.3461 47.1671 20.4986 42.2302 14.2465 40.6935L10.6021 39.7977C3.4966 38.0511 3.49663 27.9489 10.6021 26.2023L14.2465 25.3065C20.4986 23.7698 25.3461 18.8329 26.7686 12.5538L27.173 10.7685Z" fill="#D9D9D9" stroke="black" stroke-width="10"/>
</svg>
