<?xml version="1.0" encoding="UTF-8"?><svg id="Layer_1" xmlns="http://www.w3.org/2000/svg" viewBox="0 0 97.17 147.06"><defs><style>.cls-1{fill:#f2c572;}.cls-2{fill:#848c48;}.cls-3{fill:#010101;}</style></defs><g><path class="cls-3" d="m47.93,52.61c-1-3.02-3.8-5.05-6.98-5.05-1.16,0-2.32.28-3.35.81l-3.32,1.7,2.02-4.58c.81-1.83.83-3.94.06-5.79s-2.28-3.32-4.15-4.04l-4.61-1.77,4.61-1.77c1.87-.72,3.38-2.19,4.15-4.04s.75-3.96-.06-5.79l-2.02-4.58,3.32,1.7c1.03.53,2.19.81,3.35.81h0c3.18,0,5.98-2.03,6.98-5.05l1.18-3.58,1.18,3.58c1,3.02,3.8,5.05,6.98,5.05,1.16,0,2.32-.28,3.35-.81l3.32-1.7-2.02,4.58c-.81,1.83-.83,3.94-.06,5.79s2.28,3.32,4.15,4.04l4.61,1.77-4.61,1.77c-1.87.72-3.38,2.19-4.15,4.04s-.75,3.96.06,5.79l2.02,4.58-3.32-1.7c-1.03-.53-2.19-.81-3.35-.81-3.18,0-5.99,2.03-6.98,5.05l-1.18,3.58-1.18-3.58Z"/><path class="cls-3" d="m49.11,22.16c1.97,1.73,4.48,2.83,7.19,3.04,0,1.64.31,3.28.94,4.82.61,1.45,1.49,2.77,2.57,3.88-1.09,1.11-1.97,2.43-2.57,3.88-.64,1.54-.95,3.18-.94,4.82-2.72.21-5.22,1.3-7.19,3.04-1.97-1.73-4.48-2.83-7.19-3.04,0-1.64-.31-3.28-.94-4.82-.61-1.45-1.49-2.77-2.57-3.88,1.09-1.11,1.97-2.43,2.57-3.88.64-1.54.95-3.18.94-4.82,2.72-.21,5.22-1.3,7.19-3.04m0-21.37c-.94,0-1.88.54-2.23,1.61l-3.7,11.21c-.33,1-1.26,1.61-2.23,1.61-.36,0-.72-.08-1.07-.26l-9.97-5.11c-.36-.18-.73-.27-1.08-.27-1.57,0-2.87,1.65-2.14,3.31l5.03,11.41c.54,1.23-.05,2.66-1.31,3.14l-11.06,4.24c-2.01.77-2.01,3.62,0,4.39l11.06,4.24c1.25.48,1.85,1.91,1.31,3.14l-5.03,11.41c-.73,1.65.57,3.31,2.14,3.31.35,0,.72-.08,1.08-.27l9.97-5.11c.34-.18.71-.26,1.07-.26.98,0,1.9.61,2.23,1.61l3.7,11.21c.35,1.08,1.29,1.61,2.23,1.61s1.88-.54,2.23-1.61l3.7-11.21c.33-1,1.26-1.61,2.23-1.61.36,0,.72.08,1.07.26l9.97,5.11c.36.18.73.27,1.08.27,1.57,0,2.87-1.65,2.14-3.31l-5.03-11.41c-.54-1.23.05-2.66,1.31-3.14l11.06-4.24c2.01-.77,2.01-3.62,0-4.39l-11.06-4.24c-1.25-.48-1.85-1.91-1.31-3.14l5.03-11.41c.73-1.65-.57-3.31-2.14-3.31-.35,0-.72.08-1.08.27l-9.97,5.11c-.34.18-.71.26-1.07.26-.98,0-1.9-.61-2.23-1.61l-3.7-11.21c-.35-1.08-1.29-1.61-2.23-1.61h0Z"/></g><g><path class="cls-1" d="m41.45,141.15c-2.31,0-4.51-.94-6.21-2.64-1.76-1.77-2.8-4.21-2.97-6.92-1.34.84-2.85,1.29-4.39,1.29-2.81,0-5.53-1.51-7.28-4.04-2.07-3-2.49-6.9-1.15-10.44.09-.23.11-.45.1-.65-.39.06-.79.08-1.18.08-3.53,0-6.67-2.26-8.19-5.89-1.75-4.2-.89-9.08,2.14-12.14.16-.2.18-.81.05-1.18-3.88-1.3-6.47-5.19-6.49-9.84s2.54-8.56,6.41-9.89c.12-.37.1-.99-.07-1.19-3.07-3.05-3.96-7.94-2.22-12.16,1.51-3.65,4.64-5.92,8.19-5.92.37,0,.75.03,1.12.08,0-.19-.02-.42-.1-.65-1.38-3.55-.97-7.46,1.09-10.48,1.74-2.54,4.46-4.06,7.28-4.06,1.52,0,3.01.44,4.34,1.26.14-2.73,1.17-5.18,2.94-6.97,1.7-1.72,3.91-2.66,6.23-2.66,3.05,0,5.76,1.62,7.43,4.34,1.66-2.76,4.38-4.4,7.46-4.4,2.31,0,4.51.94,6.21,2.64,1.76,1.77,2.8,4.21,2.97,6.92,1.34-.84,2.85-1.29,4.39-1.29,2.81,0,5.53,1.51,7.28,4.04,2.07,3,2.49,6.9,1.15,10.44-.09.23-.11.45-.1.65.39-.06.79-.08,1.19-.08,3.53,0,6.67,2.26,8.19,5.89,1.75,4.2.89,9.08-2.14,12.14-.16.2-.18.81-.05,1.18,3.88,1.3,6.47,5.19,6.49,9.84.02,4.65-2.54,8.56-6.41,9.89-.12.37-.1.99.07,1.19,3.07,3.05,3.96,7.94,2.22,12.16-1.51,3.65-4.64,5.92-8.19,5.92-.37,0-.75-.03-1.12-.08,0,.19.02.42.1.65,1.38,3.55.97,7.46-1.09,10.48-1.74,2.54-4.46,4.06-7.28,4.06h0c-1.52,0-3.01-.44-4.34-1.26-.14,2.73-1.17,5.18-2.94,6.97-1.7,1.72-3.91,2.66-6.23,2.66-3.05,0-5.76-1.62-7.43-4.34-1.66,2.76-4.38,4.4-7.46,4.4Z"/><path class="cls-3" d="m56,41.09c2.11,0,4.21,1.99,4.2,5.36h0c-.01,3.18,2.02,5.37,4.17,5.37.89,0,1.81-.38,2.6-1.22h0c.82-.87,1.73-1.24,2.6-1.24,2.77,0,5.24,3.8,3.75,7.7h0c-1.39,3.64.77,7.67,3.7,7.67.33,0,.66-.05,1.01-.16h0c.36-.11.72-.17,1.05-.17,3.68,0,5.69,6.28,2.49,9.51h0c-2.76,2.78-1.73,8.44,1.7,9.38h0c4.35,1.2,4.38,9.16.04,10.39h0c-3.43.97-4.41,6.63-1.63,9.39h0c3.23,3.21,1.25,9.53-2.44,9.53-.33,0-.68-.05-1.03-.16h0c-.33-.1-.66-.15-.98-.15-2.94,0-5.08,4.06-3.66,7.69h0c1.52,3.9-.93,7.73-3.71,7.73-.87,0-1.76-.37-2.59-1.22h0c-.79-.82-1.7-1.2-2.59-1.2-2.16,0-4.19,2.2-4.15,5.4h0c.04,3.39-2.06,5.4-4.18,5.4-1.46,0-2.92-.95-3.7-3.05h0c-.75-2.03-2.25-3.05-3.75-3.05-1.51,0-3.01,1.03-3.75,3.07h0c-.77,2.12-2.23,3.08-3.7,3.08-2.11,0-4.21-1.99-4.2-5.36h0c.01-3.18-2.02-5.37-4.17-5.37-.89,0-1.81.38-2.6,1.22h0c-.82.87-1.73,1.24-2.6,1.24-2.77,0-5.24-3.8-3.75-7.7h0c1.39-3.64-.77-7.67-3.7-7.67-.33,0-.66.05-1.01.16h0c-.36.11-.72.17-1.05.17-3.68,0-5.69-6.28-2.49-9.51h0c2.76-2.78,1.73-8.44-1.7-9.38h0c-4.35-1.2-4.38-9.16-.04-10.39h0c3.43-.97,4.41-6.63,1.63-9.39h0c-3.23-3.21-1.25-9.53,2.44-9.53.33,0,.68.05,1.03.16h0c.33.1.66.15.98.15,2.94,0,5.08-4.06,3.66-7.69h0c-1.52-3.9.93-7.73,3.71-7.73.87,0,1.76.37,2.59,1.22h0c.79.82,1.7,1.2,2.59,1.2,2.16,0,4.19-2.2,4.15-5.4h0c-.04-3.39,2.06-5.4,4.18-5.4,1.46,0,2.92.95,3.7,3.05h0c.75,2.03,2.25,3.05,3.75,3.05s3.01-1.03,3.75-3.07h0c.77-2.12,2.23-3.08,3.7-3.08m0-10c-2.73,0-5.3.83-7.49,2.31-2.17-1.45-4.71-2.26-7.4-2.26-3.67,0-7.14,1.47-9.78,4.15-1.22,1.24-2.21,2.67-2.93,4.25-.26-.02-.53-.02-.79-.02-4.48,0-8.74,2.33-11.41,6.24-1.97,2.88-2.9,6.3-2.75,9.76-3.53,1.36-6.42,4.22-8.03,8.13-1.82,4.42-1.61,9.37.37,13.46-3.06,2.83-4.89,7.02-4.87,11.7.02,4.67,1.87,8.84,4.94,11.64-1.97,4.08-2.13,8.95-.27,13.42,1.63,3.91,4.57,6.78,8.12,8.12-.12,3.43.83,6.84,2.79,9.69,2.67,3.88,6.93,6.2,11.39,6.2.3,0,.6-.01.89-.03.73,1.56,1.71,2.97,2.92,4.19,2.64,2.65,6.1,4.11,9.75,4.11,2.73,0,5.3-.83,7.49-2.31,2.17,1.45,4.71,2.26,7.4,2.26,3.67,0,7.14-1.47,9.78-4.15,1.22-1.24,2.21-2.67,2.93-4.25.26.02.53.02.79.02,4.48,0,8.74-2.33,11.41-6.24,1.97-2.88,2.9-6.3,2.75-9.76,3.53-1.36,6.42-4.22,8.03-8.13,1.82-4.42,1.61-9.37-.37-13.46,3.06-2.83,4.89-7.02,4.87-11.7-.02-4.67-1.87-8.84-4.94-11.65,1.97-4.08,2.13-8.95.27-13.42-1.63-3.91-4.57-6.78-8.12-8.12.12-3.43-.83-6.84-2.79-9.69-2.67-3.88-6.93-6.2-11.39-6.2-.3,0-.6.01-.89.03-.73-1.56-1.71-2.97-2.92-4.19-2.64-2.65-6.1-4.11-9.75-4.11h0Z"/></g><g><path class="cls-3" d="m30.5,60.13l2.75,5.02s.03.03.04.04l5.02,2.75c.08.04.08.15,0,.19l-5.02,2.75s-.03.03-.04.04l-2.75,5.02c-.04.08-.15.08-.19,0l-2.75-5.02s-.03-.03-.04-.04l-5.02-2.75c-.08-.04-.08-.15,0-.19l5.05-2.76,2.76-5.05c.04-.08.15-.08.19,0Z"/><path class="cls-2" d="m30.4,60.07s-.08.02-.1.06l-2.76,5.05-5.05,2.76c-.08.04-.08.15,0,.19l5.02,2.75s.03.03.04.04l2.75,5.02s.06.06.1.06.08-.02.1-.06l2.75-5.02s.03-.03.04-.04l5.02-2.75c.08-.04.08-.15,0-.19l-5.02-2.75s-.03-.03-.04-.04l-2.75-5.02s-.06-.06-.1-.06h0Z"/></g><g><path class="cls-3" d="m48.71,60.04l2.75,5.02s.03.03.04.04l5.02,2.75c.08.04.08.15,0,.19l-5.02,2.75s-.03.03-.04.04l-2.75,5.02c-.04.08-.15.08-.19,0l-2.75-5.02s-.03-.03-.04-.04l-5.02-2.75c-.08-.04-.08-.15,0-.19l5.05-2.76,2.76-5.05c.04-.08.15-.08.19,0Z"/><path class="cls-2" d="m48.61,59.98s-.08.02-.1.06l-2.76,5.05-5.05,2.76c-.08.04-.08.15,0,.19l5.02,2.75s.03.03.04.04l2.75,5.02s.06.06.1.06.08-.02.1-.06l2.75-5.02s.03-.03.04-.04l5.02-2.75c.08-.04.08-.15,0-.19l-5.02-2.75s-.03-.03-.04-.04l-2.75-5.02s-.06-.06-.1-.06h0Z"/></g><g><path class="cls-3" d="m67.57,60.05l2.75,5.02s.03.03.04.04l5.02,2.75c.08.04.08.15,0,.19l-5.02,2.75s-.03.03-.04.04l-2.75,5.02c-.04.08-.15.08-.19,0l-2.75-5.02s-.03-.03-.04-.04l-5.02-2.75c-.08-.04-.08-.15,0-.19l5.05-2.76,2.76-5.05c.04-.08.15-.08.19,0Z"/><path class="cls-2" d="m67.48,59.99s-.08.02-.1.06l-2.76,5.05-5.05,2.76c-.08.04-.08.15,0,.19l5.02,2.75s.03.03.04.04l2.75,5.02s.06.06.1.06.08-.02.1-.06l2.75-5.02s.03-.03.04-.04l5.02-2.75c.08-.04.08-.15,0-.19l-5.02-2.75s-.03-.03-.04-.04l-2.75-5.02s-.06-.06-.1-.06h0Z"/></g><g><path class="cls-3" d="m30.09,79.74l2.75,5.02s.03.03.04.04l5.02,2.75c.08.04.08.15,0,.19l-5.02,2.75s-.03.03-.04.04l-2.75,5.02c-.04.08-.15.08-.19,0l-2.75-5.02s-.03-.03-.04-.04l-5.02-2.75c-.08-.04-.08-.15,0-.19l5.05-2.76,2.76-5.05c.04-.08.15-.08.19,0Z"/><path class="cls-2" d="m30,79.68s-.08.02-.1.06l-2.76,5.05-5.05,2.76c-.08.04-.08.15,0,.19l5.02,2.75s.03.03.04.04l2.75,5.02s.06.06.1.06.08-.02.1-.06l2.75-5.02s.03-.03.04-.04l5.02-2.75c.08-.04.08-.15,0-.19l-5.02-2.75s-.03-.03-.04-.04l-2.75-5.02s-.06-.06-.1-.06h0Z"/></g><g><path class="cls-3" d="m48.79,79.61l2.75,5.02s.03.03.04.04l5.02,2.75c.08.04.08.15,0,.19l-5.02,2.75s-.03.03-.04.04l-2.75,5.02c-.04.08-.15.08-.19,0l-2.75-5.02s-.03-.03-.04-.04l-5.02-2.75c-.08-.04-.08-.15,0-.19l5.05-2.76,2.76-5.05c.04-.08.15-.08.19,0Z"/><path class="cls-2" d="m48.7,79.55s-.08.02-.1.06l-2.76,5.05-5.05,2.76c-.08.04-.08.15,0,.19l5.02,2.75s.03.03.04.04l2.75,5.02s.06.06.1.06.08-.02.1-.06l2.75-5.02s.03-.03.04-.04l5.02-2.75c.08-.04.08-.15,0-.19l-5.02-2.75s-.03-.03-.04-.04l-2.75-5.02s-.06-.06-.1-.06h0Z"/></g><g><path class="cls-3" d="m67.4,79.91l2.75,5.02s.03.03.04.04l5.02,2.75c.08.04.08.15,0,.19l-5.02,2.75s-.03.03-.04.04l-2.75,5.02c-.04.08-.15.08-.19,0l-2.75-5.02s-.03-.03-.04-.04l-5.02-2.75c-.08-.04-.08-.15,0-.19l5.05-2.76,2.76-5.05c.04-.08.15-.08.19,0Z"/><path class="cls-2" d="m67.3,79.85s-.08.02-.1.06l-2.76,5.05-5.05,2.76c-.08.04-.08.15,0,.19l5.02,2.75s.03.03.04.04l2.75,5.02s.06.06.1.06.08-.02.1-.06l2.75-5.02s.03-.03.04-.04l5.02-2.75c.08-.04.08-.15,0-.19l-5.02-2.75s-.03-.03-.04-.04l-2.75-5.02s-.06-.06-.1-.06h0Z"/></g><g><path class="cls-3" d="m29.9,98.88l2.75,5.02s.03.03.04.04l5.02,2.75c.08.04.08.15,0,.19l-5.02,2.75s-.03.03-.04.04l-2.75,5.02c-.04.08-.15.08-.19,0l-2.75-5.02s-.03-.03-.04-.04l-5.02-2.75c-.08-.04-.08-.15,0-.19l5.05-2.76,2.76-5.05c.04-.08.15-.08.19,0Z"/><path class="cls-2" d="m29.8,98.82s-.08.02-.1.06l-2.76,5.05-5.05,2.76c-.08.04-.08.15,0,.19l5.02,2.75s.03.03.04.04l2.75,5.02s.06.06.1.06.08-.02.1-.06l2.75-5.02s.03-.03.04-.04l5.02-2.75c.08-.04.08-.15,0-.19l-5.02-2.75s-.03-.03-.04-.04l-2.75-5.02s-.06-.06-.1-.06h0Z"/></g><g><path class="cls-3" d="m48.76,98.79l2.75,5.02s.03.03.04.04l5.02,2.75c.08.04.08.15,0,.19l-5.02,2.75s-.03.03-.04.04l-2.75,5.02c-.04.08-.15.08-.19,0l-2.75-5.02s-.03-.03-.04-.04l-5.02-2.75c-.08-.04-.08-.15,0-.19l5.05-2.76,2.76-5.05c.04-.08.15-.08.19,0Z"/><path class="cls-2" d="m48.66,98.73s-.08.02-.1.06l-2.76,5.05-5.05,2.76c-.08.04-.08.15,0,.19l5.02,2.75s.03.03.04.04l2.75,5.02s.06.06.1.06.08-.02.1-.06l2.75-5.02s.03-.03.04-.04l5.02-2.75c.08-.04.08-.15,0-.19l-5.02-2.75s-.03-.03-.04-.04l-2.75-5.02s-.06-.06-.1-.06h0Z"/></g><g><path class="cls-3" d="m67.79,98.77l2.75,5.02s.03.03.04.04l5.02,2.75c.08.04.08.15,0,.19l-5.02,2.75s-.03.03-.04.04l-2.75,5.02c-.04.08-.15.08-.19,0l-2.75-5.02s-.03-.03-.04-.04l-5.02-2.75c-.08-.04-.08-.15,0-.19l5.05-2.76,2.76-5.05c.04-.08.15-.08.19,0Z"/><path class="cls-2" d="m67.69,98.71s-.08.02-.1.06l-2.76,5.05-5.05,2.76c-.08.04-.08.15,0,.19l5.02,2.75s.03.03.04.04l2.75,5.02s.06.06.1.06.08-.02.1-.06l2.75-5.02s.03-.03.04-.04l5.02-2.75c.08-.04.08-.15,0-.19l-5.02-2.75s-.03-.03-.04-.04l-2.75-5.02s-.06-.06-.1-.06h0Z"/></g></svg>