<?xml version="1.0" encoding="UTF-8"?><svg id="Layer_1" xmlns="http://www.w3.org/2000/svg" viewBox="0 0 211.0562 111.6404"><defs><style>.cls-1{fill:#f494b3;}.cls-1,.cls-2,.cls-3{stroke:#000;stroke-width:10px;}.cls-2{fill:#5564ae;}.cls-3{fill:#dad9d8;}</style></defs><path class="cls-2" d="m205.1236,105.9806h-44.7594c-.8186-29.4011-24.8988-52.9843-54.5046-52.9843s-53.6763,23.5833-54.4948,52.9843H5.9329C5.9329,50.9692,50.5267,6.3754,105.5282,6.3754s99.5954,44.5938,99.5954,99.6051Z"/><path class="cls-1" d="m184.983,106.0835h-35.5881c-.6508-23.3767-19.797-42.1277-43.3365-42.1277s-42.6779,18.751-43.3287,42.1277H26.6069c0-43.7394,35.4564-79.1958,79.188-79.1958s79.1881,35.4564,79.1881,79.1958Z"/><path class="cls-3" d="m161.1767,106.0698h-24.883c-.4551-16.3449-13.8419-29.4554-30.3006-29.4554s-29.8401,13.1106-30.2951,29.4554h-25.2568c0-30.5823,24.7909-55.3732,55.3677-55.3732s55.3678,24.7909,55.3678,55.3732Z"/></svg>