<?xml version="1.0" encoding="UTF-8"?><svg id="Layer_1" xmlns="http://www.w3.org/2000/svg" viewBox="0 0 88.1461 95.191"><defs><style>.cls-1{fill:#010101;}.cls-1,.cls-2{stroke:#010101;stroke-width:10px;}.cls-3{fill:#dad2d0;}.cls-2{fill:#d83e4a;}</style></defs><path class="cls-1" d="m50.6203,5.412l10.2007,10.0764c.0723.0715.1826.0878.2726.0405l12.6877-6.6791c.1794-.0945.3856.0692.3344.2654l-3.6261,13.8723c-.0257.0984.0153.2021.1013.2563l12.1281,7.6484c.1715.1082.1329.3686-.0627.4223l-13.8268,3.7959c-.0981.0269-.1674.1142-.1713.2158l-.5596,14.3275c-.0079.2026-.2528.2994-.397.1569l-10.2007-10.0764c-.0723-.0715-.1826-.0878-.2726-.0405l-12.6877,6.6791c-.1794.0945-.3856-.0692-.3344-.2654l3.6261-13.8723c.0257-.0984-.0153-.2021-.1013-.2563l-12.1281-7.6484c-.1715-.1082-.1329-.3686.0627-.4223l13.8268-3.7959c.0981-.0269.1674-.1142.1713-.2158l.5596-14.3275c.0079-.2026.2528-.2994.397-.1569Z"/><g><path class="cls-2" d="m49.1752,22.4098l16.161,12.046c15.823,11.7941,13.253,36.2245-4.677,44.4687l-17.537,8.0629c-17.93,8.244-38.1477-5.709-36.8004-25.3975l1.3761-20.1091c1.4051-20.5326,24.9768-31.3706,41.4773-19.071Z"/><circle class="cls-3" cx="62.1532" cy="56.0312" r="3.7287"/><circle class="cls-3" cx="28.5269" cy="32.8625" r="3.7287"/><circle class="cls-3" cx="45.3062" cy="43.9809" r="3.7287"/><circle class="cls-3" cx="25.7303" cy="54.1669" r="3.7287"/><circle class="cls-3" cx="45.3742" cy="66.2851" r="3.7287"/><circle class="cls-3" cx="26.7303" cy="72.8102" r="3.7287"/></g></svg>