<?xml version="1.0" encoding="UTF-8"?><svg id="Layer_2" xmlns="http://www.w3.org/2000/svg" viewBox="0 0 47.2583 46.3793"><defs><style>.cls-1{fill:#fec0ff;stroke:#000;stroke-width:6px;}</style></defs><g id="Layer_1-2"><path class="cls-1" d="m32.7875,5.6929l.1299-.0587c.7307-.3306,1.5697.1563,1.64.9536.2923,3.1643,2.8092,5.6672,5.9702,5.9476l.157.0135c.7632.0677,1.2233.8752.8985,1.5686-1.364,2.8893-.4276,6.3388,2.1921,8.1488.6441.4438.6441,1.403,0,1.8468-2.6197,1.81-3.5561,5.2595-2.1921,8.1488.3247.6934-.1353,1.5009-.8985,1.5686l-.157.0135c-3.161.2804-5.6779,2.7832-5.9702,5.9475-.0703.7973-.9093,1.2844-1.64.9537l-.1299-.0585c-2.885-1.3099-6.295-.3995-8.1516,2.1754-.4926.6896-1.5209.6896-2.0135,0-1.8566-2.5748-5.2665-3.4852-8.1516-2.1754l-.1299.0585c-.7307.3307-1.5697-.1564-1.64-.9537-.2923-3.1643-2.8092-5.6671-5.9702-5.9475l-.157-.0135c-.7632-.0677-1.2233-.8752-.8985-1.5686,1.364-2.8893.4276-6.3388-2.1921-8.1488-.6441-.4438-.6441-1.403,0-1.8468,2.6197-1.81,3.5561-5.2595,2.1921-8.1488-.3247-.6934.1353-1.5009.8985-1.5686l.157-.0135c3.161-.2804,5.6779-2.7833,5.9702-5.9476.0703-.7973.9093-1.2842,1.64-.9536l.1299.0587c2.885,1.3093,6.295.3989,8.1516-2.1756.4926-.6896,1.5209-.6896,2.0135,0,1.8566,2.5745,5.2665,3.485,8.1516,2.1756Z"/></g></svg>