<?xml version="1.0" encoding="UTF-8"?><svg id="Layer_2" xmlns="http://www.w3.org/2000/svg" viewBox="0 0 224.3405 274.8775"><defs><style>.cls-1{fill:#fce588;}.cls-2{fill:none;stroke:#000;stroke-linecap:round;stroke-linejoin:round;stroke-width:6px;}.cls-3{fill:#b8a5d7;}</style></defs><g id="Layer_1-2"><g><g><path class="cls-1" d="m199.1298,223.985c-.5907-.1235-1.1915-.3261-1.7965-.6428-1.5262-.799-2.694-1.7093-3.7679-2.8269-.0256-.0137-.0503-.029-.0762-.0428-.4149.0086-.8142.0412-1.1857.1126-.9925-.9682-2.1014-1.891-3.2945-2.7491-.0631-.0632-.1317-.1208-.1953-.1833-1.9014-1.265-3.7377-2.6366-5.505-4.0999-1.3902-.7306-2.9189-1.1936-4.4314-1.6767-.2529-.9825-.7495-1.9097-1.5844-2.6555-2.7036-2.4149-5.4071-4.8297-8.1105-7.2445-1.1107-.9921-2.5811-1.5743-4.0716-1.6928-.0253-.0264-.0434-.054-.0693-.0802-2.0594-2.0868-4.1184-4.1734-6.1777-6.2601-.5615-.5692-1.1471-.9957-1.7412-1.3045-.5023-.5114-.9906-1.036-1.4872-1.5527.3042-1.2842.0476-2.7304-1.0566-4.1931-.5025-.6656-1.005-1.3311-1.5075-1.9967l-9.641-15.555c-.5078-.8193-1.1082-1.4475-1.7625-1.9116-.2448-.3453-.4862-.6928-.736-1.0351-2.3706-4.1853-4.7689-8.3556-7.2126-12.5023-.9018-1.5301-2.3235-2.3719-3.8722-2.6695-9.3792-22.2588-16.0182-46.7065-22.6344-69.2815-1.9456-.3777-3.6706-1.7347-4.3463-4.3182-1.4281-5.4578-3.1662-10.7768-3.3387-16.4643-.0298-.9847.1475-1.8329.4515-2.5744-1.6509-4.9133-3.3555-9.6417-5.1514-14.1241,1.5124-1.3543,2.4083-3.3966,1.8645-5.9127-1.7774-8.2236-5.4285-15.7132-10.5643-22.2846-.6168-.1183-1.229-.3156-1.8171-.6208-1.8953-.9836-3.4921-2.5061-5.0021-3.9701-.3077-.2982-.5578-.6285-.7827-.9706-1.218.1023-2.3887.6227-3.3645,1.4156-6.6506-6.292-14.5416-10.0719-24.2406-10.489-2.7516.6694-5.5582.9675-8.3069.5199C21.261,7.1252,4.3043,40.4191,18.9282,59.3494c-1.9427,25.5161-18.1983,74.777,8.7144,102.5371,9.6063,15.1592,23.9079,19.9525,39.8449,21.9813,7.2052-7.0032,19.3854-4.4879,27.4867-.3301,1.1365.5833,1.956,1.5427,2.4617,2.6521,11.0098.9533,21.9309,2.6845,31.9023,7.3351,15.3188,8.3359,27.2315,20.0354,41.0767,28.6333.1131.0279.2195.0336.3344.0678,9.5989,2.8538,19.1686,3.668,28.8337,3.5193-.0772-.6055-.2185-1.2017-.4533-1.7601Z"/><path class="cls-3" d="m173.3857,238.079C163.7716,180.5714-1.8832,153.9069,3.9594,232.1138c11.4918,19.1278,52.5853,35.9875,74.4033,35.6517,24.8207,4.1637,98.9657,10.0062,95.0229-29.6865Z"/></g><g><path class="cls-2" d="m49.6562,181.8781c-1.9336-.7664-5.2889-3.2311-7.2604-4.678-4.2084-3.1514-8.6316-7.1672-12.2081-11.4222-2.6097-3.1085-7.3299-10.4474-9.333-14.641-1.8578-3.93-4.6444-12.7833-5.6491-17.6085-.8594-4.3531-2.1674-14.1076-2.4075-18.4423-.1769-4.2611-.2528-11.2505-.019-16.9279.5055-7.9091,2.7866-23.7396,4.9919-34.9165.3728-1.9436.8467-4.4144.9415-4.9417"/><path class="cls-2" d="m16.8422,57.3006c-.6003-.4476-2.2243-2.7897-2.8941-4.3163-1.4091-3.2924-2.3506-10.5209-2.1547-14.1383.1832-3.2679,1.9336-9.6197,3.1974-12.2009,1.605-3.2188,6.8623-10.0918,9.8891-12.722,3.3869-2.9184,9.3267-6.3579,13.3329-7.9827,2.4328-.9748,7.6458-2.3053,10.2113-2.5934,2.6729-.2882,5.4406-.3985,7.2288-.3249"/><path class="cls-2" d="m45.9849,3.4206c6.2241-.1104,11.7847.0981,15.772,1.0362,3.3111.7848,10.8875,3.9178,13.7499,5.5854,2.8814,1.6922,7.9555,6.1066,10.1039,8.8472,3.0141,3.881,7.0203,11.2444,8.6316,15.6036,2.4517,6.7013,4.8213,19.7973,5.7944,28.6751.0948.8522.2275,2.1459.2717,2.5812"/><path class="cls-2" d="m220.3611,230.9329l.9794.2207c-.7077-.2759-12.1765-3.881-15.1148-5.0459-4.0378-1.6125-11.1781-5.2298-14.9063-7.5167-2.9572-1.8455-7.57-5.0152-11.3298-7.8785-3.5702-2.8448-10.502-9.1108-12.4482-11.1034-1.7756-1.8271-9.8195-10.6742-12.0817-13.519-4.6507-6.1311-14.3945-21.2871-17.6044-26.9093-5.8513-10.2512-11.4877-21.5814-14.8115-29.7419-4.9414-12.6116-15.2665-42.5191-17.5476-49.202-.8278-2.3482-1.8704-5.3034-2.0916-5.9104"/><path class="cls-2" d="m149.1787,166.4646c.1074-.3679-1.5797-2.8203-3.9177-4.0772-.2527-.1349-13.2634-6.3579-14.4007-6.9588-2.8309-1.5082-9.7374-6.1311-12.4356-8.277-2.9951-2.385-9.036-8.1114-11.9427-11.3732-3.1215-3.5192-8.6632-11.2935-10.7737-15.3522-1.883-3.6357-4.1642-10.3677-5.0046-14.3713-.9226-4.4941-1.327-11.833-1.1248-16.4068.1074-2.0417.2591-4.7945.3033-5.5119"/><path class="cls-2" d="m14.5989,36.8473c-.1832.3556.3159,2.3237,1.0363,3.9975.7709,1.7474,3.0899,5.4383,4.3474,6.9404,2.1421,2.5321,7.0961,5.9042,9.8385,6.9281,2.7297,1.0055,9.2572,1.8087,12.8779,1.5757,3.8609-.2759,11.3298-2.1398,14.0848-3.2066,2.9951-1.1956,7.5195-3.5438,9.2319-4.4328.7583-.3985,1.8893-.9871,2.2622-1.1833"/><path class="cls-2" d="m62.6162,53.1376l-.3602,1.0178-.2528-.2391-.0695-1.0177,1.1627.6867-1.6808-.6683c.594-.3372,1.8325.141,2.0536.6008.1137.2759-.3665.9319-.8151,1.0913-.1959-.0858-.3223-.1655-.3791-.2268-.0632-.0613-.1453-.1962-.2401-.4108"/><path class="cls-2" d="m39.1352,79.6239c-1.8262-.656-4.6949-2.5076-5.7944-3.6848-1.0047-1.1097-2.4265-3.3721-2.8498-4.5677-.455-1.3427-.5561-4.3592-.0948-6.033.8594-2.992,3.7471-5.8123,4.7771-6.781.3539-.3311.714-.6683,1.0679-1.0055"/><path class="cls-2" d="m39.944,80.8256c.1264-.4169,9.4657-6.0882,11.9869-9.5216,1.011-1.3979,1.744-3.4579,1.8135-4.4021.0505-.9994-.7393-2.8019-1.5924-3.6112-.3981-.3617-1.3902-.9442-2.0284-1.1833-.5687-.2146-1.7377-.5641-2.7487-.84-.1453-.0368-.2844-.0797-.417-.1165"/><path class="cls-2" d="m5.4113,234.7587c-1.3143-2.1643-2.0789-4.4573-2.3001-6.0514-.436-3.2127.4866-9.8649,1.4407-13.0286.8783-2.8571,3.3869-7.8355,5.7312-10.9256,2.4012-3.1391,8.0882-8.3383,11.0517-10.4474,4.0062-2.8203,11.2856-6.3886,14.6346-7.6332,3.4185-1.263,10.799-3.2066,14.8684-3.8932,4.1389-.6928,12.4356-1.3734,17.497-1.4224,4.7834-.0123,12.2966.5702,19.1399,1.355,4.5307.6438,13.2381,2.2194,17.4781,3.1391,5.6554,1.404,12.6378,3.4763,16.9789,5.0398,3.5955,1.2936,11.1402,4.5554,14.3439,6.1679,4.6317,2.3298,12.5241,7.1795,16.1384,9.8465,3.507,2.6057,9.6679,8.234,11.9174,10.9869,2.5276,3.1146,4.9856,7.6393,5.8703,10.0795,1.0552,2.9613,2.1547,8.8165,2.1358,11.6061-.0316,2.618-1.308,9.1108-2.8119,11.8882-.9857,1.778-3.2732,4.445-4.7076,5.4628-.3096.2207-2.0473,1.3734-2.6666,1.7842"/><path class="cls-2" d="m150.6574,266.5852c-.2212-.3249-3.7787.5825-5.4722,1.0239-4.4106,1.1158-11.2666,2.4402-15.0769,2.9245-4.063.4598-11.7405,1.1833-16.3533,1.3243-6.4263.1042-14.4766-.2268-19.5001-.5395-4.973-.3801-14.7294-1.4224-19.3864-2.0968-2.9572-.466-13.6678-2.7713-17.0484-3.6664-5.4532-1.545-13.0106-4.071-17.1369-5.7755-6.1609-2.6302-10.4514-4.7209-15.1527-7.4493-5.4595-3.1943-12.8905-9.681-13.295-10.055"/><path class="cls-2" d="m45.8964,256.3831c-1.0616-1.2569-2.7929-8.4425-3.3364-14.3345-.3223-3.7951.0885-11.3732.8594-15.3277.8341-4.1569,3.8482-12.5871,6.0093-16.7133,2.1547-4.071,6.976-10.6987,9.7248-13.1573,2.1232-1.8822,8.2967-6.3395,10.8432-7.86,1.5039-.8952,2.6666-1.4286,4.2021-2.0907"/><path class="cls-2" d="m63.0017,190.0018c-1.7503.0306-4.973.2452-8.4547.564-6.698.6499-12.2144,1.6309-16.189,2.6486-2.0536.5273-5.7565,1.8025-6.7296,2.1459-.1896.0674-.3791.1349-.5687.2085"/><path class="cls-2" d="m150.3667,203.8826c.6066,1.0975,3.0773,2.992,4.6697,4.2121,3.6965,2.8632,10.3504,8.1973,14.3249,10.6006,3.6144,2.1704,12.0817,5.9655,15.7277,7.014,2.0473.5763,5.6491,1.1588,8.9223,1.4776,2.2369.2085,4.1768.3066,4.5938.325"/><path class="cls-2" d="m101.9703,70.0103l.455-1.0913"/><path class="cls-2" d="m156.6477,262.4528l-.3981.0368-.1074.2514"/><path class="cls-2" d="m8.6971,238.4251c.1517-.2452.2591-.4046.3159-.4905.0632-.0858.158-.2085.297-.374"/></g></g></g></svg>