<?xml version="1.0" encoding="UTF-8"?><svg id="Layer_2" xmlns="http://www.w3.org/2000/svg" xmlns:xlink="http://www.w3.org/1999/xlink" viewBox="0 0 364.3206 282.0225"><defs><style>.cls-1{stroke-width:2px;}.cls-1,.cls-2,.cls-3,.cls-4,.cls-5{stroke:#000;}.cls-2{stroke-linecap:round;}.cls-2,.cls-3,.cls-4{stroke-width:6px;}.cls-2,.cls-5{fill:none;}.cls-6{fill:#fff;}.cls-3,.cls-4{fill:#d9d9d9;}.cls-4{stroke-miterlimit:10;}.cls-5{stroke-width:10px;}.cls-7{mask:url(#mask);}</style><mask id="mask" x="301.9332" y="7.0083" width="28.118" height="28.118" maskUnits="userSpaceOnUse"><g id="path-5-inside-1_1_19"><rect class="cls-6" x="306.9332" y="12.0083" width="18.118" height="18.118" rx="4.3922" ry="4.3922"/></g></mask></defs><g id="Layer_2-2"><g><path class="cls-4" d="m16.5317,19.375h331.2571c7.4734,0,13.5317,6.1901,13.5317,13.8259v231.9957c0,7.6358-6.0584,13.8259-13.5317,13.8259H16.5317c-7.4734,0-13.5317-6.1901-13.5317-13.8259V33.2009c0-7.6358,6.0584-13.8259,13.5317-13.8259Z"/><path class="cls-3" d="m16.5317,3h331.2571c7.4749,0,13.5317,7.2738,13.5317,16.2465v17.5801H3v-17.5801C3,10.2738,9.0584,3,16.5317,3Z"/><path class="cls-3" d="m63.0982,26.6843h186.6314c3.2834,0,5.9453-2.5501,5.9453-5.6961s-2.6619-5.6961-5.9453-5.6961H63.0982c-3.2833,0-5.9448,2.5501-5.9448,5.6961s2.6614,5.6961,5.9448,5.6961Z"/><path class="cls-1" d="m331.3067,26.949v.025l.0021.0249c.0409.4315.2748.7697.6268.9994.3296.2148.7028.3165,1.1021.3165.403,0,.7799-.0647,1.1063-.2223.3179-.1426.6034-.3425.8565-.5944l.0027-.0029.0027-.0029,4.5397-4.6638,4.5402,4.6638.0043.0046.0048.0045c.2679.2626.5571.4696.8687.5982.3349.1475.7018.2152,1.0904.2152.4141,0,.8017-.0976,1.1372-.3165.3567-.233.5859-.5832.5938-1.0263.033-.4772-.2095-.8922-.5401-1.2296l-.0016-.0015-5.2765-5.336,4.8518-4.9036c.0005-.0002.0005-.0004.0005-.0006.3333-.3345.6119-.7531.5779-1.2328-.0075-.4424-.219-.8051-.5827-1.047-.3216-.229-.7055-.3237-1.1133-.3237-.3998,0-.7741.0637-1.0989.2188-.3131.1311-.5917.3414-.8389.6086l-4.1968,4.3019-4.167-4.3013c-.2536-.2744-.5471-.4841-.8825-.613-.3227-.1524-.6943-.215-1.0909-.215-.3993,0-.7725.1017-1.1021.3165-.352.2298-.5859.5679-.6268.9994l-.0021.0249v.025c0,.4627.2754.8699.6119,1.2079l4.8284,4.9221-5.2112,5.3427c-.3493.3312-.6172.7371-.6172,1.2133Z"/><g class="cls-7"><rect class="cls-5" x="306.9332" y="12.0083" width="18.118" height="18.118" rx="4.3922" ry="4.3922"/></g><line class="cls-2" x1="284.9782" y1="25.3342" x2="299.7141" y2="25.3342"/></g></g></svg>