<?xml version="1.0" encoding="UTF-8"?><svg id="Layer_2" xmlns="http://www.w3.org/2000/svg" viewBox="0 0 470.1055 328.0303"><g id="Layer_1-2"><g><g><path d="m86.72.4181c1.7208,1.8943,3.4528,3.7794,5.1597,5.6851,2.607,2.9107,5.2682,5.7807,7.7775,8.7669,4.0614,4.8333,8.0382,9.732,12.0134,14.6308,3.6431,4.4895,7.2342,9.0174,10.8546,13.5237.6345.7898,1.233,1.6223,1.972,2.3142.6364.5958,1.5734.9117,2.1651,1.5354,5.5774,5.8792,11.206,11.718,16.63,17.7249,7.0472,7.8046,14.6932,15.0513,22.2734,22.3638,1.7822,1.7192,3.5292,3.4766,5.3918,5.113,1.0862.9543,1.5014,2.0623,1.6238,3.4009.0448.4898.3101,1.0522.6639,1.4114,4.9744,5.0515,10.1457,9.9358,14.9297,15.1454,3.9915,4.3466,8.5659,8.0402,13.1254,11.7605,4.6113,3.7626,9.3893,7.3408,14.1481,10.9347,1.5056,1.137,3.1926,1.941,5.1963,2.2029,1.1435.1495,2.2661.7991,3.2851,1.3989,2.9275,1.7232,4.98,4.3041,7.0644,6.84,2.4499,2.9805,4.8945,5.9649,7.3429,8.9465.3066.3733.622.7399,1.0473.967-.7875-2.7448-1.575-5.4896-2.3675-8.2517-.0251-.0001-.1006-.0223-.1508.0024-1.9221.9448-1.9647.9642-2.8897-.9669-2.6894-5.6144-4.7087-11.4489-4.7793-17.6605-.04-3.5193-.1921-6.9958-.6724-10.4791-.2239-1.6236-.1794-3.281-.2572-4.9382-1.0149.1142-1.0863-.7193-1.2665-1.3589-.5042-1.7896-.3136-3.5854.0984-5.3662,1.0588-4.5765,3.31-8.656,5.9928-12.5009,1.981-2.8391,4.2216-5.517,6.4313-8.203.5138-.6246,1.3896-.9692,2.0667-1.4814.5889-.4455,1.3077-.8489,1.6644-1.4391,1.2424-2.0559,2.3265-4.1984,3.5193-6.2825,1.4514-2.5361,1.2259-5.4175,1.9072-8.1091,1.6153-6.3809,2.1103-13.0645,5.2514-19.0347,1.7833-3.3896,3.5858-6.8512,5.9672-9.8547,4.5122-5.6909,10.7106-9.2117,17.9868-10.7716,7.6927-1.6492,15.519-2.116,23.3377-1.0658,9.8685,1.3256,17.9997,5.4609,23.21,13.9765,1.864,3.0465,2.8219,6.3281,3.1153,9.804.2005,2.3758.2893,4.7602.432,7.2088,1.0549-.1017,1.4526.5574,1.6917,1.2684,1.3427,3.9928,3.5261,7.5632,5.7863,11.1307,1.3127,2.072,2.1118,4.4412,3.1735,6.7453.2272-.0704.5231-.162.9168-.2839.1982.5826.4814,1.1169.5458,1.6743.097.8402.5381,1.3939,1.1735,1.9299.5839.4925,1.0749,1.0012,2.1077.1847-.5114,1.9118.8864,2.7532,1.6864,3.8867,1.2832,1.8181,2.756,3.5487,3.7778,5.4942,2.948,5.6128,7.0221,10.6994,8.7335,16.8926.3764,1.362.7164,2.7332,1.0847,4.1444.1987-.0806.3695-.1148.4943-.2064.6794-.4982,1.0179-.1984,1.2236.4541.7599,2.4103.9476,4.873.7352,7.3711-.8402,9.8841-3.9118,19.1894-8.0168,28.2263-.3358.7393-.7093,1.4652-1.0006,2.2201-.3401.8812-.8185,1.5995-1.7801,1.971-.2524.0975-.5599.3542-.6121.5852-.2291,1.0157-1.0905,1.3796-1.865,1.8897-.3822.2517-.7964.7301-.8378,1.139-.2594,2.5677-.437,5.1437-.5859,7.7199-.0188.3257.2158.7299.4588.9908.5144.5524,1.0709,1.0859,1.686,1.5316.7149.518.7.9954.1491,1.5891-.2606.2809-.4666.6081-.7521.9872-.6008-.5094-1.1172-.9472-1.6871-1.4304-.3529.9716-.4285,1.7708.4851,2.4058.3242.2253.5835.5356.873.8065,1.3102,1.2257,1.2748,1.651-.2992,2.8836-.5246-.4598-1.059-.9282-1.7288-1.5153-1.2017,6.7864-5.5254,11.782-9.4342,17.0192-.1331.423-.201.9474-.4555,1.3689-.3195.529-.3719.9169.1587,1.325.2323.1787.4296.418.5882.6622,1.0023,1.5426,2.467,2.6513,3.8586,3.8347.2284.1943.3111.5568.4306.8528.1072.2652.1535.5528.2589.8188,1.299,3.2782,2.2891,6.6183,2.1318,10.1708-.1166,2.6317-.2793,5.2616-.4205,7.8738,4.9919,1.0293,9.6178,3.2776,14.4581,4.9436.3438.1183.7111.53.8084.8724.1975.6952.6299,1.0701,1.2617,1.3926,9.1088,4.6499,18.208,9.3169,27.3102,13.9787.2028.1039.4131.1945.7087.1395-1.612-.9144-3.2286-1.8213-4.8351-2.7443-12.2302-7.0263-24.4617-14.0508-36.6743-21.1049-.4309-.2489-.9104-.7773-.9594-1.2168-.3491-3.134-.1346-6.2468.6834-9.31.0578-.2164.1588-.4238.2558-.6285.0526-.1111.139-.2076.2348-.3464,15.5369,8.8973,31.0439,17.7775,46.5868,26.6783.2907-.3191.4785-.5253.7045-.7734.1746.0682.3642.1182.5284.2099,8.1607,4.5543,16.3412,9.0767,24.4704,13.6818,5.5162,3.1249,10.9287,6.4174,16.4589,9.5188,1.3438.7536,1.826,1.7052,1.8012,3.0366-.0269,1.4501-.1594,2.8991-.158,4.3485.0003.3666.2303.9068.5322,1.0736,5.2018,2.8727,10.4312,5.6997,15.656,8.5344.1116.0605.2395.0936.5013.1934.2715-2.688.1893-5.3735,1.3695-7.9993.8081.4745,1.5111.8978,2.2245,1.3044,4.2028,2.3952,8.4068,4.7885,12.6156,7.1742.2497.1415.5438.2112.8173.3143-.0287,5.4219-.0575,10.8439-.0862,16.2658-.2973,1.0975-.5947,2.195-.9287,3.4279-12.1067-6.5788-24.0265-12.9969-35.8851-19.5165-11.8715-6.5267-23.6819-13.1549-35.5771-19.7709-.0685.8256-.065.82.7281,1.2625,21.5885,12.0443,43.1769,24.0887,64.7631,36.1368,2.2975,1.2823,4.5809,2.5875,6.8709,3.8822l-.0626,11.8121c-.0783-.061-.15-.1326-.2359-.1814-10.2326-5.8161-20.4358-11.6802-30.7076-17.4325-13.1526-7.3656-26.3593-14.6428-39.5459-21.9528-1.3589-.7533-2.7397-1.4707-4.1236-2.2119-.3114.9707-.5895,1.8377-.9282,2.8935-3.9135-1.6858-7.6072-3.277-11.3472-4.888-.173,1.6339-.3377,3.1881-.5237,4.945,2.5343-.1535,4.9846-.2474,7.4207-.4784.8782-.0833,1.2716.1194,1.3162.9289.0497.9003.1767,1.8097.0972,2.7011-.2237,2.5097-.5361,5.0122-.8246,7.6172,2.4321-.1158,4.4108,1.309,6.4903,2.5927,8.6738,5.3542,17.4361,10.5619,26.4801,15.345,8.9145,4.7147,17.7232,9.6181,26.4818,14.5938,6.6994,3.8058,13.2483,7.8535,19.8641,11.7936l-.0534,10.0693c-7.4749-4.4414-14.8704-9.0111-22.445-13.2914-9.2296-5.2154-18.6423-10.1341-27.9137-15.2833-6.1823-3.4336-12.2716-7.0216-18.3715-10.5891-2.6447-1.5467-5.175-3.2731-7.8316-4.7995-.9788-.5623-2.1646-.8044-3.2682-1.1577-3.2153-1.0293-6.2521-.2542-9.3801.6109-3.1872.8814-6.5289.9094-9.6033-.5274-3.4597-1.6168-5.4751-4.3007-5.638-8.0759-.0513-1.1899.0037-2.3839.0107-3.7111-1.3696-.266-2.7394-.5405-4.1128-.7973-4.6948-.8777-9.4036-1.6923-14.0784-2.6579-1.39-.2871-2.699-.9623-4.0211-1.5125-1.3395-.5574-1.8981-1.6333-1.8002-2.9707.1058-1.4437.2963-2.8849.5282-4.3155.0927-.5717.032-.9636-.5837-1.119-1.6824-.4244-1.9191-1.5843-1.657-2.9762.1357-.7208-.1316-.9916-.884-1.1671-4.1251-.9625-8.2337-1.9897-12.3486-2.9921-.1273-.031-.2618-.035-.5631-.073.2722.7574.484,1.4444.7633,2.1053.7974,1.8868.651,3.6578-.7007,5.2643-.4959.5894-.4337,1.0455.065,1.5971,1.8977,2.0991,3.7962,4.1992,5.6296,6.3493.9993,1.1719,1.9684,2.3886,2.7723,3.6862,1.1572,1.868,1.7458,3.9004,1.1877,6.1011-.1883.7426-.4021,1.4793-.6377,2.341,1.1649,1.2753,1.182,1.2863-.0186,2.988-1.2846,1.8208-.7862,1.9822-2.8653.4389-10.1296-7.5189-17.9951-16.9411-25.1594-26.9908-3.2861-4.6096-6.8195-9.0591-10.2865-13.549-.4303-.5573-.7669-.966-.0333-1.6539-1.9719-.5027-3.8058-.972-5.6406-1.4378-10.7342-2.7251-21.4337-5.5489-31.7892-9.4481-3.0078-1.1325-5.7371-2.5648-7.701-5.0907-1.1933-1.5348-2.7277-1.7645-4.5803-1.3173-1.555.3753-3.155.71-4.7489.7817-3.4428.155-5.8122-1.6736-7.7491-4.1797-1.4157-1.8317-2.8008-3.6928-4.3418-5.4252-.8362-.9401-1.896-1.7463-2.9827-2.4264-3.4939-2.1866-7.2819-4.0068-10.5203-6.4882-4.3593-3.3404-8.4011-7.0777-12.4182-10.8032-5.1843-4.808-10.1291-9.8523-15.3253-14.6481-5.3648-4.9513-10.9004-9.7339-16.3743-14.5768-4.8299-4.2732-9.692-8.5131-14.5138-12.7946-5.6134-4.9844-11.2531-9.9435-16.7821-15.0125-7.2844-6.6785-14.5972-13.3357-21.6753-20.2114-14.9188-14.4922-29.6358-29.174-44.5397-43.6803C52.522,50.8296,30.1241,29.1991,7.7616,7.5354,5.4376,5.284,3.0991,3.0462.7622.807c-.2358-.2259-.5073-.4179-.7622-.6256C.2705.1182.5412-.0008.8115,0c5.6057.0169,11.2114.0474,16.817.0752.1969.2488.3687.5208.5943.743,12.0795,11.9012,24.1554,23.8059,36.2654,35.6788.8148.7988,1.2172,1.6296,1.0087,2.6723-.5117,2.5588-1.043,5.1161-1.6719,7.65-.1488.5993-.0847.9283.3487,1.3374,1.2731,1.2014,2.5033,2.4443,3.7558,3.6657.1942.1894.4175.3516.6906.579.6241-2.5504.8365-5.0832,2.4448-7.4386,10.689,7.8533,19.4148,17.4961,29.2495,26.1606.2065-3.6637.8054-7.1223,2.4485-10.5222,10.1935,8.4871,19.2616,17.67,28.7432,26.6224.7701-3.1699,1.4312-6.1868,3.3009-8.9103,2.0748,1.783,4.02,3.4547,5.9652,5.1263.0476-.0488.0951-.0975.1427-.1463-5.9082-6.2144-11.8164-12.4288-17.9085-18.8367-.2362,3.964-.7477,7.5249-2.5125,11.0291-.9725-.9088-1.818-1.6799-2.6418-2.4716-8.1159-7.7998-16.372-15.4721-24.3053-23.4381-10.0056-10.0468-19.6773-20.3967-29.6285-30.4939-5.9478-6.0352-12.1581-11.834-18.2369-17.7517-.3398-.3308-.5566-.7771-.8306-1.1696,4.5251.0225,9.0501.0449,13.5752.0674.1266.1489.2434.3067.3811.4455,5.5757,5.6161,11.225,11.1673,16.7164,16.8577,13.1809,13.6585,26.2538,27.4134,40.2549,40.3232.302.2784.6064.5544,1.0058.9192.4125-3.5379.7867-6.9057,2.539-10.0344.3983.277.6436.4437.8848.6158,3.7531,2.6774,6.9899,5.8794,10.09,9.2039,13.6806,14.6708,27.6288,29.095,42.5986,42.5886.3858.3478.6643.997.6678,1.5076.02,2.9294-.6691,5.7494-1.6171,8.5211-.1006.2942-.1712.7662-.006.9454.6554.7106,1.4101,1.3376,2.2105,2.0711.4546-1.4708.8137-2.773,1.2628-4.0462.4558-1.2924.8681-2.6221,1.9302-3.7234,16.5554,15.5012,33.0397,30.9359,49.524,46.3707.0569-.0561.1139-.1121.1708-.1682-2.0799-2.0503-4.1166-4.1426-6.2469-6.1439-11.3655-10.6779-22.6975-21.3861-33.2419-32.8219-.4369-.4739-.8226-1.1662-.8543-1.7748-.1188-2.2798-.0765-4.567-.1055-6.8514-.0039-.3079.0508-.7216-.1267-.9055-1.2014-1.2446-2.4581-2.4405-3.7814-3.7348-.273,1.413-.5106,2.6426-.7986,4.1329-.5234-.4448-.8016-.6588-1.0529-.8984-1.7687-1.6866-3.5399-3.3709-5.2953-5.07-7.6132-7.3695-15.3443-14.6256-22.4563-22.4603-5.7937-6.3824-11.8069-12.5827-17.6954-18.8871-.3536-.3785-.6294-.9544-.6602-1.4543-.1245-2.0241-.1341-4.0545-.1991-6.0821-.0099-.3072.019-.6903-.1523-.9065-1.6452-2.0761-3.3294-4.1239-5.0234-6.2055-.1406,3.7672-.7423,7.3384-2.5016,10.9774C100.1995,35.6693,83.7343,17.9954,67.269.3216c4.2549.0211,8.5098.0422,12.7647.0633,2.9997,3.2351,5.9929,6.4758,9.0005,9.7042,9.2252,9.9022,18.4556,19.8,27.686,29.6978.2137.2291.4506.4386.8521.8269-.086-.353-.0817-.4278-.1182-.4722-5.7657-7.0237-11.4463-14.1134-17.3343-21.0422-3.8008-4.4726-7.8938-8.7193-11.8798-13.047-1.7593-1.9102-3.578-3.7704-5.3697-5.6533,1.2832.0064,2.5664.0127,3.8497.0191Zm106.8223,178.6736c.1292.1281.2585.2561.3877.3842,1.3104,1.2993,2.5835,2.6353,3.9381,3.891,4.2151,3.9075,8.2934,7.9724,12.7533,11.6082,3.051,2.4873,6.6178,4.4088,10.0161,6.4907,2.3593,1.4453,4.8249,2.7451,6.606,4.88,1.6552,1.984,3.2909,3.9859,4.8487,6.0398.9554,1.2597,2.1915,1.9259,3.7484,2.2143,2.0272.3755,3.9776.043,5.8789-.5611,2.7848-.8849,4.8591.0463,6.5522,2.1411,1.2603,1.5594,2.7963,2.7918,4.7378,3.5054,2.7034.9936,5.4158,1.9648,8.1265,2.9403.1358.0488.2916.0468.4585.0714-.4066-3.8226-.1408-7.5351.6361-10.1459.2053-.6899.4824-.9345,1.2667-.7687,2.3378.4943,4.6921.9175,7.0415,1.3608.2216.0418.4543.0294.6818.0422-4.2967-1.8275-8.5164-3.7232-12.8974-5.1739-2.1239-.7033-2.9938-1.772-3.0457-3.7339-.0646-2.4451-.2207-4.8935-.1376-7.3343.0415-1.2204.1099-1.4678-1.0878-1.9577.1688,2.9071.3844,5.8072-.6117,8.7041-8.3514-7.988-17.8572-14.5472-26.8006-21.9345-.1626.4892-.2665.8567-.406,1.2113-.4854,1.2335-.9302,2.4852-1.4916,3.6868-.5208,1.1146-.6729,1.1159-1.6658.4068-2.0267-1.4476-4.0479-2.9021-6.0747-4.3495-10.9591-7.8261-21.2847-16.3651-31.3198-25.243-6.0157-5.322-12.1766-10.4947-18.3099-15.6938-.6572-.557-.8897-1.0888-.683-1.842.6311-2.3006,1.2414-4.6073,1.9362-6.8905.1673-.5498.115-.8634-.3121-1.2517-3.9858-3.6242-7.9514-7.2688-11.9262-10.9041-.1952-.1785-.4228-.3248-.5683-.4352.2096,3.9181-.6626,7.599-2.2211,11.1689.7239.712,1.457,1.4693,2.2299,2.1876,10.047,9.3384,20.7063,18.0173,31.4452,26.6085.8189.6551,1.0223,1.3253.8614,2.2687-.5126,3.0048-1.4135,5.89-2.8042,8.665,2.7431,2.5861,5.4779,5.1643,8.2126,7.7425Zm92.1681-102.0023c.8249-.1796,1.652-.351,2.4732-.5451.1883-.0445.3971-.1301.5274-.26,1.3253-1.3216,1.9352-3.0077,2.8482-4.7841-2.5059.9836-2.8741.9355-3.969-.4345,1.8757-.9414,3.742-1.878,5.8032-2.9126-1.2305-.2355-2.1678-.3614-3.0712-.6029-.8945-.2391-1.7549-.5947-2.7167-.9293.4042.8245.7601,1.5507,1.0798,2.2027-1.5394.2615-2.9542.5336-4.3797.738-4.5376.6507-7.9095-2.2177-8.7754-5.985,1.2072.3279,2.4272.6593,3.6473.9907-.7203-1.2072-1.5272-2.2233-2.358-3.2213-.1141-.137-.3375-.2116-.5258-.2683-1.2197-.3673-2.4479-.7089-3.6653-1.0829-1.9922-.6121-4.6245,1.3091-4.8187,3.0595-.1409,1.2692-.0239,2.4692,1.15,3.642-.0911-.9172-.2282-1.5796-.2015-2.2358.0256-.6294.0404-1.3772.3925-1.8438.3632-.4815,1.1273-.6867,1.8451-1.0843-.382,4.2009.698,7.4786,4.9825,9.1152-1.5301,1.2687-2.0235,1.4306-3.5157.4752-.9725-.6226-1.7406-1.5729-2.4932-2.4594-.4231-.4983-.6286-1.1654-.9326-1.7571-.3247.1738-.5893.3125-.8509.4561-1.2551.6888-1.708.5362-2.2311-.7538-.8666-2.1373-.0445-4.4299,2.0212-5.6299.6057-.3519,1.2148-.6983,1.8224-1.0472-.0408-.1202-.0816-.2404-.1223-.3606-1.0212.2236-2.0393.4617-3.0648.6658-.7075.1408-1.4391.381-2.1357.3206-1.7317-.15-2.9699-1.1572-3.943-2.4621-1.5786-2.1169-1.8907-4.4953-1.5017-7.0048.0931-.6007.1778-1.2026.2999-2.0321-.2246.2735-.31.3364-.3379.4174-1.414,4.0962-2.8257,8.1932-4.2247,12.2941-.0688.2016-.0827.4575-.0184.6576.652,2.0298,1.2126,4.0956,2.021,6.068,1.066,2.6006,2.6458,4.8728,5.4155,6.1397,2.9752,1.3609,6.0953,1.8124,9.3549,1.324,1.3076-.1959,2.6087-.4306,3.9128-.6476.0068.084.0136.168.0204.2521-4.1786,1.4213-8.402,1.8091-12.7403.4307-4.6714-1.4842-6.6472-5.1165-8.0874-9.2105-.0744.8711-.2687,1.7473-.0528,2.5187,1.5636,5.5867,5.1851,9.4478,10.8735,11.4765,1.3452.4797,1.6887,1.1565,1.0858,2.5988-3.2344-.715-5.8524-2.4308-8.073-4.7035-3.5288-3.6116-5.0306-7.9256-4.5591-12.8734-1.0967,2.6089-1.1671,5.2504-.0696,7.7912,2.6044,6.0293,7.4815,9.611,13.916,11.4284.3055.0863.764.2941.8037.505.1089.5788.0323,1.1894.0281,1.9851-4.2946-.9464-7.8459-2.8757-10.817-5.7593-3.0013-2.9129-5.0368-6.3025-5.0961-10.6055-.1271.1096-.1677.1272-.1733.1521-.1572.6926-.3406,1.3813-.4602,2.08-.7487,4.3737-2.2629,8.4396-5.4587,11.7498-.9061.9385-1.218,1.8371-.8745,3.029.0614.2132-.0336.5975-.2011.7161-.473.3349-1.0212.5728-1.6139.8885-.199-.4369-.3493-.7667-.5243-1.1509-.8523.9647-1.5865,1.8516-1.3808,3.2148.1556,1.0317-1.2727,1.9407-2.3719,1.6204-.0866.1344-.1774.27-.2628.4086-.4278.6944-.8546,1.3893-1.281,2.0844-3.8919,6.3446-6.1681,13.1248-5.6581,20.546.1934,2.8143.7886,5.6119,1.3322,8.3936.7408,3.791,1.5519,7.5715,2.4373,11.3341.7691,3.2688,1.843,6.4774,2.4979,9.7644,1.1429,5.7359,3.4354,10.8438,7.982,14.883,1.6228,1.4418,3.3655,2.7162,5.3929,3.6293-.1156-.3618-.2836-.6664-.4904-.9447-1.7201-2.3146-3.4589-4.6166-5.1681-6.9385-.9844-1.3373-.9021-1.8218.4321-3.0056.1295.1384.2759.2647.3849.4156,2.7016,3.7435,5.3731,7.5071,8.1065,11.2291,1.8786,2.5581,3.7293,5.1436,6.2206,7.2297,3.3684,2.8205,7.0662,5.1751,10.9997,7.203.4588.2365.9429.4281,1.4153.6405-.0431-.316-.164-.4994-.3166-.6541-2.9695-3.0101-5.3832-6.4172-7.6157-9.9355-.9366-1.4761-1.5925-3.1147-2.3785-4.6783-.3992-.7941-.6777-1.6775-1.2253-2.3645-8.9573-11.239-14.4206-23.9121-17.057-37.7533-.0698-.3663-.1463-.8403.0296-1.1217.8262-1.3212,1.7397-2.5925,2.8379-4.197.3235.6717.6024,1.0684.71,1.5038.7525,3.0443,1.3528,6.1273,2.2193,9.1409,3.0059,10.4539,8.0832,19.9352,14.9478,28.553.1145.1437.2539.2693.2598.2755.3097-1.9358,1.9238-3.1878,2.8325-4.8163.1358-.0219.2715-.0437.4072-.0655.8363,1.4594,1.6726,2.9187,2.5784,4.4994.6448-.9372,1.2361-1.7204,1.7403-2.5518.4686-.7727.9238-.7078,1.4617-.1098.1319.1467.2623.2957.3807.4524,3.103,4.1067,6.2154,8.2071,9.2804,12.3395.2005.2703.1891.8676.0131,1.1752-.5322.9299-1.1926,1.7929-1.8059,2.6801-.7894,1.1419-.944,1.1441-1.8313.003-.8399-1.0802-1.6705-2.1669-2.5591-3.3209-.9585,1.3661-1.8499,2.6366-2.8664,4.0853-2.3657-2.5467-4.1595-5.26-5.8648-8.1301-.8853,1.2559-1.6883,2.3951-2.5843,3.666.9896,1.1785,1.949,2.5522,3.1431,3.7034,5.42,5.2248,11.8184,9.0608,18.9919,11.658,6.5523,2.3723,13.3588,3.0819,20.3065,2.1279,2.3586-.3239,4.7849-.5859,6.8483-1.8885.681-.4299,1.0952-.3008,1.5192.2395.5631.7174,1.1204,1.439,1.8409,2.3654.5839-1.3213,1.339-2.4533,1.5737-3.6767.5516-2.8749.8796-5.7906,1.2468-8.6957.164-1.2979.9426-1.8318,2.4059-1.4614-.0663,1.1428-.1182,2.2987-.2032,3.4524-.2068,2.8062-.5681,5.5736-1.8114,8.1821-.5422,1.1375-1.0762,2.14-2.6026,2.1316-.1736-.0009-.3482.1535-.556.2518.5219.9475,1.0328,1.8751,1.4577,2.6465.6333-.6992,1.2984-1.3535,1.8679-2.0767,2.1226-2.6953,3.9182-5.5686,4.9348-8.8261.2524-.8088.7198-1.3406,1.5038-1.6977,2.6409-1.2031,5.4087-2.0091,8.2942-2.4361.5658-.0837,1.1577-.0067,1.8683-.0032-.8165,2.2722-1.3751,4.485-2.3948,6.4828-1.0655,2.0876-2.5747,3.9683-3.9915,6.0917.3345-.1806.7217-.2707.8979-.5054.7658-1.0201,1.421-2.1174,2.2054-3.1232,3.436-4.4061,5.1198-9.3843,5.4596-14.8326.0557-.8938-.0834-1.6007-.7801-2.2612-.7634-.7237-1.4239-1.5528-2.0798-2.3721-1.0123-1.2645-.8512-1.9957.5725-2.9407.7747.9549,1.55,1.9104,2.3635,2.9131.7407-1.2393-.1639-1.8358-.7713-2.5351-1.1089-1.2765-.9306-2.2072.5633-3.0926.1874.261.3737.5207.4601.641.784-3.8198,1.5789-7.6387,2.3311-11.4653.0558-.2839-.1942-.6227-.2816-.8768.4001-1.2524.8017-2.5098,1.2034-3.7673-.157-.0495-.3141-.099-.4711-.1485-.1404.3865-.3484.7637-.4092,1.1613-.2357,1.543-.698,2.0448-2.2664,2.3295-.018-.0914-.0656-.1878-.0497-.2734,1.2906-6.9109.8591-13.8214-.001-20.732-.1917-1.5408.2713-2.1085,1.9824-2.317.3289,3.1221.6575,6.2422.9862,9.3623-.0941-1.6408-.0502-3.2842-.0828-4.9263-.1412-7.1242-1.4656-14.0456-4.1818-20.6834-.6768-1.6539-1.7827-3.1561-2.7758-4.6777-.2939-.4505-.8765-.7289-1.4684-1.1985.8723-.488,1.6356-.8755,2.353-1.3292.5568-.3521,1.0391-.2933,1.4263.1588.8274.9659,1.8502,1.8662,2.3619,2.975,1.3573,2.9414,2.7045,5.9173,3.6599,8.9918,2.0205,6.5017,1.8876,13.1878,1.2508,19.8645-.1256,1.3171.2983,2.9097-1.335,3.7812-.0204.0109-.0241.0596-.0263.0912-.1311,1.8981-.2612,3.7962-.3915,5.6943.4431-.4245.676-.8799.8703-1.3498,1.6175-3.9119,2.7846-7.9458,3.5729-12.0823.3128-1.6415,1.3185-2.5512,3.3479-2.9238-.5261,3.7355-1.5465,7.3013-2.5783,10.8763,1.1798-2.4874,2.3123-4.9864,3.3092-7.5338,3.4698-8.8666,2.8575-17.5241-1.6804-25.9122-1.4718-2.7205-3.0845-5.3743-4.7123-8.0138-1.6074-2.6064-3.3168-5.1554-4.9756-7.733-.1028-.1598-.1547-.3495-.2303-.5253-.1214.0333-.2428.0665-.3642.0998.1432,1.5942-.3861,2.7013-2.1911,2.9592.0015-.2827-.0105-.5576.0067-.8308.083-1.3201.2051-2.639.2414-3.9602.0101-.3659-.2267-.7379-.3502-1.1072-.1427-.03-.2854-.06-.4281-.09.3867,1.7663-.6848,2.3301-1.9963,2.7125.0057-1.0741-.0626-2.1014.0348-3.1142.1278-1.3303-.5518-2.0491-1.757-2.4563-.3469-.1172-.7093-.2004-1.0709-.2688-1.1614-.2197-1.34-.0861-1.5101,1.0272-.2604,1.7042-.8004,3.2858-2.316,4.4436-.001-.5418.124-1.0431.3369-1.5076.4554-.9933,1.1088-1.9273,1.4066-2.9581.5967-2.0659-.1408-4.0516-1.0497-5.8514-1.3148-2.6036-2.8955-5.0884-4.4339-7.5837-1.3244-2.1483-2.418-4.3867-2.9728-6.8189-.2629-1.1526-.2397-2.3672-.3175-3.5554-.1393-2.1243-.2569-4.2499-.3836-6.3749-.2681.3728-.3384.7448-.3741,1.1197-.1811,1.9047-1.0327,3.5246-2.3431,4.9286-.5876.6296-1.0228,1.2343-1.2796,2.1137-.3504,1.1998-1.2004,2.2663-1.8215,3.364.6111-.1913,1.353-.4236,2.0926-.6552.2433,1.5309.0869,2-1.355,2.6084-1.1769.4967-2.4563.7792-3.7021,1.1168-.9744.264-1.967.4669-2.9514.697,1.7225,1.1755,3.394,2.0818,5.0336,3.0383.2429.1417.527.5794.4598.7772-.1877.553-.5496,1.052-.8367,1.5614-.4643-.1811-.7558-.2948-1.0474-.4085.554.9333,1.3338,1.8644,2.3855,1.6392.826-.1769,1.3199.07,1.9347.3218.5577.2285,1.0963.5618,1.6776.6563.513.0834,1.2621.0912,1.5804-.197,1.473-1.334,2.2745-3.0003,1.732-4.963-.256-.9262.166-1.1.8668-1.2701.8857,1.7904.3482,4.1406-1.2702,5.7415-1.567,1.55-3.1406,1.7965-5.2712.9217-.4329-.1778-1.1232-.2942-1.4563-.0876-1.0361.6424-2.0471.461-2.8034-.1701-.9642-.8045-1.729-1.8429-2.5007-2.8367-.4775-.615-.808-1.3344-1.1305-1.8814.0545,1.5726.2038,3.1993.1454,4.8192-.0871,2.4195-.8139,4.7556-1.9944,6.8449-1.1348,2.0084-.7233,3.4129.738,5.0384,3.1712,3.5273,6.8243,5.9359,11.937,5.6598.2249-.0121.4714.3426.7079.5264-.1974.2312-.3536.5955-.601.6655-.4931.1395-1.0364.1173-1.6323.1682.0895.2036.132.3173.1879.4247.6883,1.3236.5939,1.503-.9713,1.5377-2.3937.0531-4.5226-.6595-6.3082-2.1961-2.0774-1.7877-3.5127-4.0393-4.8796-6.3323-.0879-.1474-.0954-.3387-.1403-.5096,2.6626,3.4421,5.0421,7.1905,10.391,6.8869-5.0069-1.2791-8.3257-4.4402-10.7799-8.6263-.2982.2483-.7101.5868-1.1165.931-.363.3074-.6767.7274-1.0991.885-.1967.0734-.6614-.3067-.8937-.5705-.3444-.3912-.5698-.8759-.8872-1.292-.1459-.1913-.3653-.3814-.5932-.4576-1.7313-.5782-3.4742-1.1247-5.2102-1.6904-.2655-.0865-.5137-.2213-.8176-.3547-.2979,1.0742-.5625,2.0283-.8195,2.9549l2.3415.0116c-1.2003,4.0166-3.199,7.5006-6.4737,10.1672-2.8715,2.3383-9.1818,3.7978-11.7537,2.8935.3564-.0507.5643-.0877.7739-.1089,1.1909-.1206,2.3798-.2935,3.5741-.339,1.0843-.0413.9978-.5556.7681-1.2081-1.2434.076-2.4366.2997-3.5894.1769-1.1471-.1222-2.2481-.6128-3.3822-.8942-.2528-.0627-.5586.0995-.8421.1105-.257.01-.5168-.045-.7753-.0714.0812-.2861.0657-.7141.2596-.8347,1.0334-.6429,2.0782-1.3739,3.383-.4625.3709.2591.8531.3839,1.298.5327,1.1895.3978,2.3938.5731,3.6189.1864-.0227-2.7176.0236-2.7984,1.9606-3.2719.095.9274.1881,1.836.2926,2.8557.3118-.2056.5274-.3349.7278-.4831.2662-.1969.5288-.3997.7786-.6152,3.4055-2.9383,4.8017-6.8413,5.7877-10.9524.129-.5381.4761-1.0284.7643-1.6287-1.1688-1.0742-2.2241-2.5104-2.222-4.2298.002-1.647-1.415-2.5926-1.5917-4.0822-.4364.6214-.7494,1.2257-1.0929,1.8137-1.1709,2.0047-3.1394,3.0014-5.2904,3.7239-.4038.1356-1.0837.4224-1.1885-.4346.0937-.0842.1873-.1684.281-.2526Zm20.4093-46.2087c-.0643-.0816-.1286-.1632-.1928-.2448-.4127-.1098-.8207-.2401-1.2387-.3264-5.4982-1.136-11.0136-1.7291-16.6167-.6658-3.3702.6395-6.7706,1.1344-10.1367,1.7916-.5695.1112-1.1981.6174-1.5209,1.1083-3.5849,5.4522-3.5305,11.3126-2.029,17.3121.0607-.2156.0351-.4341.0276-.6531-.0835-2.4475-.3123-4.9008-.2095-7.3412.1412-3.3513,1.0766-6.5067,3.563-9.0382.6113-.6224,1.3907-1.0941,2.0928-1.6351.0839.076.1679.1521.2518.2281-3.4298,2.9435-4.3803,6.8153-4.4447,10.9457-.0795,5.0951.3688,10.1238,2.8004,14.8035.1274.2452.0552.834-.1239.9332-.8471.4694-1.7639.8242-2.7913,1.2799-.754-2.203-1.5481-4.2604-2.1622-6.3656-2.0638-7.0749-2.6124-14.0434,2.0325-20.7022-.338.1091-.52.1573-.6934.2255-2.3956.9427-4.4769,2.2304-6.2137,4.1592-1.9594,2.176-3.0282,4.573-2.9272,7.3966.1953,5.4603,2.3905,10.1914,6.0009,14.3615.172.1986.4909.3013.7612.3985,1.6053.5774,3.2756,1.0229,4.8129,1.7326,2.9105,1.3437,5.7192,2.8878,8.62,4.2519,2.6996,1.2695,5.4467,2.5872,8.577,1.3257.7957-.3207,1.2737-.0825,1.69.5248.1406.2052.2822.4098.4513.6553,2.5228-1.5852,4.6614-1.2292,6.3514,1.1397,1.6198-1.3461,3.2744-2.3962,5.4148-2.4669.1516-.005.3098-.1147.4463-.2023,1.4017-.8995,2.5625-2.0086,3.1122-3.5701.2541-.7219.7326-.9619,1.5901-.9826-.3158.7286-.5899,1.361-.8641,1.9934,1.5563-.7876,3.0577-1.6352,4.327-2.7289,1.5655-1.3489,3.1284-2.7724,4.3458-4.4004,1.5602-2.0864,1.5361-4.5577.8822-6.9844-.1914-.7102-.0114-1.0728.6501-1.3681.8762-.3911,1.7204-.8476,2.5621-1.268-2.1703-6.7264-13.2085-15.8343-18.6795-15.4777.4394,1.6582.1047,2.1424-1.7802,2.6152-.4188-1.2048-.7184-2.3877,1.2612-2.7608Zm21.596,196.3071c-.0124.0534-.0248.1068-.0373.1602.1239.0344.2464.0745.3718.1024,5.4851,1.2217,10.9699,2.4443,16.456,3.6617,1.5988.3548,1.7662.4669,1.7554,2.0652-.0132,1.9647-.0685,3.9355-.2576,5.8903-.1146,1.1846-.517,2.3438-.8313,3.6911-14.8745-3.4813-29.4887-6.9015-44.129-10.3279.1954.0901.3681.1864.5527.2525,6.4776,2.3204,12.8695,4.9014,19.4581,6.8857,7.3258,2.2063,14.8242,3.8931,22.2617,5.754,2.4835.6214,2.6324.5557,2.4731,2.9909-.0962,1.4703.4125,2.2662,1.7731,2.7736,1.0691.3987,1.5266,1.2177,1.422,2.314-.1614,1.693-.3228,3.3859-.4964,5.207,1.8987.3634,3.8719.7505,5.8492,1.1176,4.0735.7562,8.151,1.4925,12.2229,2.2562,1.6433.3082,2.0496.7592,1.9725,2.3857-.0639,1.3491-.2471,2.6962-.4436,4.0354-.1729,1.1785.972,3.2318,2.0118,3.668.2861-2.2853.5245-4.6207.8877-6.9382.239-1.5251.3195-1.5118,1.8513-1.4547.0997.0037.2017-.0493.5336-.1368-.7178-.1994-1.2004-.3249-1.6774-.4673-6.2383-1.8616-12.4729-3.7346-18.7175-5.5767-.7191-.2121-1.1001-.614-1.1464-1.2826-.2194-3.1717-.071-6.3167.8141-9.4033.181-.6312.4882-.7802,1.1797-.5493,3.1204,1.042,6.2569,2.0412,9.399,3.0225,1.5981.4991,3.2201.928,4.8313,1.3887l.1008-.253c-3.3245-1.5613-6.5877-3.2633-10-4.6235-1.6595-.6616-2.2901-1.5413-2.262-3.1315.005-.2786-.3103-.6993-.5902-.8243-2.3825-1.0636-4.7799-2.0988-7.1996-3.0822-.5792-.2353-.8394-.5239-.9089-1.11-.4077-3.4357-.0011-6.7971.9836-10.3055-1.4385-.3693-2.8745-.8253-4.3488-1.0748-.6202-.1049-.9088-.2825-1.0159-.8129-.2036-1.0089-.4739-2.013-.5745-3.0318-.1645-1.667-.2154-3.3443-.3165-5.0558q-1.1332,1.9912-2.1293,2.0757c-.6273-2.8931-.5403-5.7966.0171-8.9088-.8631.6023-1.2032.2366-1.4368-.3627-.2076-.5325-.3168-1.1362-.6544-1.5801-1.4406-1.894-2.0184-4.0784-2.3476-6.3211-.2845-1.938-1.708-3.1987-2.7728-4.7664-.2656.3326-.5198.7211-.412.9607.7043,1.564.5345,3.1764.3236,4.7702-.2364,1.7863-.5342,3.5657-1.9816,4.9504-.5166.4942-.1535,1.3164.5537,1.536.7702.2391,1.5315.5175,2.3175.6934.9161.205,1.4045.749,1.5434,1.5848.2538,1.5272.5545,3.0554.659,4.5942.062.9119.2677,1.3968,1.2972,1.5451.41.059.976.5435,1.0765.9284.8313,3.1832,1.1127,6.4124.6366,9.6832-.0819.5622-.3156.6813-.8825.5493-1.5389-.3583-3.0916-.6626-4.6391-.9872-1.7921-.3759-3.5844-.7505-5.3767-1.1257Zm-53.1126-23.9871c1.1692.385,2.6169.8102,4.015,1.3525.4352.1688.9501.5999,1.0636,1.0044.8103,2.8892,1.0343,5.8495.7481,8.8203-.0722.7498.0543,1.0166.7892,1.208,9.991,2.6012,19.9746,5.2285,29.963,7.839,1.2225.3195,2.4624.5785,3.6942.8655-.138-.2159-.3091-.308-.4925-.3617-7.5091-2.1988-14.973-4.5596-22.555-6.4986-2.5913-.6626-3.5681-1.8232-3.589-4.1389-.0206-2.2809-.0574-4.5617-.0576-6.8426,0-.7922.4533-.9571,1.215-.7349,3.0007.8754,6.0054,1.7394,9.0194,2.5717,8.521,2.3529,17.047,4.6891,25.5729,7.026.3003.0823.6195.1019.9261.1501.1504-.8018-.0247-1.1419-.8451-1.2901-2.6804-.4844-5.3814-.9381-7.9978-1.6584-8.7412-2.4065-17.4514-4.9164-26.1618-7.4239-.3619-.1042-.7848-.5415-.8729-.8937-.3123-1.2482-.6119-2.5197-.6923-3.7953-.1153-1.8301-.0681-3.6724-.0195-5.5078.0188-.7076.2791-1.1955,1.2787-.8766,2.463.7856,4.963,1.4649,7.4455,2.1949,1.5629.4596,3.1211.9336,4.8296,1.4456-.109-1.2009-.2012-2.2162-.2724-3.0007-3.2051-.9986-6.3399-1.7891-9.3139-2.9546-2.9523-1.1569-5.7427-2.6913-8.8417-4.1737,1.8764,4.0764,1.4632,8.2921,1.6889,12.4386.0278.5108.017,1.0453-.1079,1.5382-.4752,1.8746-.972,3.7459-1.5444,5.5948-.1005.3245-.6027.5353-1.1598.9984-.4428-1.9561-.8418-3.5819-1.1699-5.2207-.1935-.9663.0074-2.0577-1.2276-2.5897-.2315-.0997-.3867-.4499-.491-.7154-.4255-1.0828-.9367-2.1521-1.1985-3.2728-.6599-2.8255-1.1589-5.6721-2.6479-8.2734-.5126-.8954-.5601-2.0339-.8419-3.1479-.7857-.3097-1.1923-1.0488-1.0602-2.1739-.786-.3228-1.5808-.6492-2.4963-1.0252.0506.306.0933.4846.1081.6653.2081,2.5338.5514,5.0679.5501,7.6018-.0005,1.0337.1504,1.4969,1.1882,1.5917,1.1753.1073,1.6518.8082,1.84,1.8388.524,2.8694.8996,5.7461.4327,8.6528-.0645.4017-.4497.7563-.7112,1.172Zm-92.0834-68.6286c-.4752,1.4817-.846,2.8514-1.3658,4.1674-.2541.6434-.1058.9801.3841,1.4014,2.3322,2.0056,4.6511,4.0259,6.9434,6.0729,9.6178,8.5888,19.5358,16.8396,30.034,24.4394.3505.2537.7185.4854,1.2581.8483.007-1.3172-.0477-2.3839.0352-3.4407.0836-1.0646.3038-2.1195.4913-3.3576,2.1783,2.0362,4.1372,3.8673,6.1498,5.7486-.0961-2.0861-.4558-4.0134-.2021-5.8638.3246-2.367-.4711-3.9919-2.3008-5.4912-1.828-1.4978-3.441-3.2353-5.085-4.8073-.214,3.6018-1.2196,7.0004-2.9638,10.2081-.3962.7288-.7837.3159-1.1668-.0329-3.4446-3.1365-6.9223-6.2406-10.3296-9.4137-6.2096-5.7827-12.3765-11.6073-18.5643-17.4114-1.0741-1.0075-2.163-2.0006-3.3178-3.0675Zm113.7601-60.333c-.0782.5639-.2494,1.0097-.1779,1.4166.3387,1.9263,1.2613,3.5675,3.0481,4.5822,1.3238.7518,2.7443,1.3622,4.1635,1.9424,1.4207.5809,3.3412.3287,3.89,2.4182,1.0557-2.3333,2.0732-4.5193,2.7378-6.7993.4817-1.6526.6601-3.4287.6737-5.1518.0146-1.8562-.4845-3.6564-2.0323-4.9913-.9177-.7915-2.5552-.9328-3.4847-.3242-1.444.9455-1.7944,1.9355-1.1729,3.314.5053,1.1206.3375,1.377-1.1307,1.6539-.1426-.309-.2623-.6459-.4445-.9485-.6017-.9992-1.1245-2.0632-1.8691-2.9566-.8072-.9685-1.9739-1.3026-3.2833-.9658-.7859.2021-1.2858.5629-.896,1.4144-2.2718,1.5356-2.2106,3.4727-.0218,5.396Zm32.5039,119.0079c.4602-.2525,1.0144-.6061,1.6155-.8573.1913-.0799.5805.038.754.1932.9117.815,1.8805,1.5975,2.6492,2.5274,1.8077,2.1871,3.6054,4.3436,3.9573,7.333.2768,2.3516,1.215,4.5646,3.2399,6.1276-.8023,2.9324-1.1019,5.8384-.4505,8.7989.2572-.5348.5152-1.0761.5697-1.6356.2304-2.3669.2922-4.7528.617-7.1064.5076-3.6777-.4327-7.1094-1.6659-10.5116-.1038-.2865-.4318-.5082-.6801-.7356-.4844-.4437-1.0623-.8167-1.4518-1.3239-.2289-.2982-.033-.8963-.2639-1.1909-1.0104-1.2898-2.0616-2.5576-3.199-3.7451-.3568-.3725-1.009-.5577-1.5616-.674-1.5106-.3179-3.0471-.5231-4.5575-.8414-.4075-.0859-.7588-.4159-1.2302-.6884-.9408.1868-2.0196.401-3.0656.6086-.8235,3.1797.3522,5.7542,2.3639,8.1004.9573-.2114,1.2685.0194,1.5181.9483.2924,1.088.6384,2.164,1.0002,3.2332.1439.4254.2832,1.03.6141,1.186.9486.4472.7117,1.2404.8216,1.9328.1012.6376.1349,1.2851.1984,1.9282.0869-.0019.1738-.0038.2608-.0058.7901-2.4295,1.3652-4.8822.6818-7.4542-.1254-.4721.1032-1.2932-.7954-.9598-.6475-1.7316-1.2682-3.3914-1.9399-5.1875ZM125.7465,105.021c.0714-.0742.1429-.1484.2143-.2226-9.5964-9.1699-19.1927-18.3397-28.7891-27.5096-.0761.0714-.1523.1428-.2284.2142.2415.2472.4769.5.7254.7406,4.5519,4.4073,9.1161,8.803,13.6386,13.2376.3766.3693.6678.9989.6685,1.5079.0042,3.1575-.6476,6.2132-1.906,9.1309-.237.5496-.181.8397.2339,1.2336,2.2748,2.1596,4.5232,4.3447,6.7853,6.5166.155.1488.3477.2617.5599.4186.7098-3.2372,1.4269-6.3858,3.3498-9.2804,1.6986,1.4356,3.2232,2.7241,4.7478,4.0125Zm128.6155,67.6004c.1711,3.1233.5291,6.1596-.49,9.254-.3512-.2376-.5539-.3444-.7183-.4906-1.9772-1.7585-3.996-3.4773-5.9127-5.2944-5.561-5.2719-11.0865-10.5781-16.6017-15.8938-.3534-.3406-.6219-.8528-.7237-1.3258-.5972-2.7746-.5798-5.576-.2346-8.3779.0715-.58.2496-1.1479.4202-1.9069.667.5361,1.1358.9129,1.6047,1.2897.0607-.0524.1214-.1049.1821-.1574-.4284-.4626-.8379-.9429-1.2887-1.3846-1.5214-1.4907-3.1575-2.9601-5.3503-3.2994-2.2227-.3439-4.0678-1.2777-5.8625-2.4397-.1886-.1221-.397-.2163-.5963-.3235-.084.0972-.168.1945-.252.2917,2.9867,2.8023,5.9919,5.5871,8.9402,8.4259.4397.4234.8409,1.091.8678,1.6624.1134,2.4087.1469,4.8261.0587,7.2352-.0294.8027.1065,1.2936.7821,1.7833,1.613,1.1691,3.24,2.3392,4.7191,3.655,6.1518,5.4727,12.2512,10.9991,18.369,16.5067,1.0458.9415,2.087,1.8875,3.3119,2.9958-.5978-3.6241-1.1079-6.9857-.2991-10.4225,3.9646,1.7538,7.763,3.4341,11.5613,5.1143-1.9158-1.6258-3.8973-3.0738-5.8874-4.5111-.1492-.1077-.354-.1619-.5421-.2008-.8599-.178-1.7687-.2317-2.5742-.5368-1.1756-.4453-2.2779-1.0676-3.4833-1.649Zm64.412,21.237c.2068,2.6263.4271,5.1503.5868,7.6777.0326.5154.1794.7491.7107.8404,1.0616.1824,2.1057.479,3.1729.6035.7896.0922,1.1438.5093,1.2748,1.1469.2399,1.1671.4018,2.3488.6365,3.517.0467.2327.2324.5727.4244.6245,1.3568.3661,2.732.6699,4.2503,1.0287-.098-1.6801-.1904-3.2636-.2877-4.9312-.2106.0916-.3597.1487-.5014.2193-1.1264.5612-1.1783.5828-1.6781-.5629-.5433-1.2453-.9753-2.5349-1.4577-3.8046-.2114-.5564-.177-1.339-1.2116-1.1262-.1266.026-.3563-.256-.489-.4296-1.2434-1.6276-2.3667-3.3074-2.502-5.4068-.0088-.136-.1295-.2655-.189-.3802-1.0261.3682-1.9932.7153-2.7401.9833Zm-42.4358-11.3679c.0348.4492.0257,1.0865.0939,1.0941.8276.093.5439.714.6675,1.1412.277.9574.4122,1.9918.8918,2.8482,1.101,1.9661,1.6192,4.0597,2.0449,6.2228.2965,1.5064.8889,2.9612,1.3869,4.4274.0531.1563.3598.2341.7471.4681.0527.1593.1921.5808.3591,1.0859-.5909.68-.3041,4.1679.7282,5.4335.3099-1.7002.5389-3.4104.6352-5.1274.0262-.4675.0583-1.1929-.8226-1.2798-.0903-.0089-.2245-.3813-.2001-.5685.4348-3.325-.5081-6.4671-1.4019-9.6093-.7442-2.616-2.1825-4.7623-5.13-6.1361Zm22.6241,51.9973c.2635-.8307.5288-1.6667.7941-2.503-3.0528-.8105-6.106-1.6084-9.1513-2.4331-3.079-.8338-6.1388-1.7345-9.228-2.531-3.0547-.7876-6.1234-1.5344-9.2089-2.202-3.0779-.666-6.1843-1.2115-9.2782-1.8098.7745.4649,1.5845.7824,2.4218,1.0076,9.5359,2.565,19.0674,5.1458,28.6221,7.6457,1.9545.5114,3.8672.9181,4.9053,2.8135.0085.0154.0642.0072.1231.0121Zm-36.0966-191.8261c-2.4832,2.9825-3.5202,6.3433-3.358,9.5865.1231,2.4618,1.1538,4.5574,3.3594,5.9895,1.2739.8272,2.6008.9723,4.0763.0712-5.791-4.0487-5.397-9.6162-4.0777-15.6471Zm-5.2591,143.6367c.783,3.411.8521,6.6698.3721,9.9477-.0315.2149.0445.5928.1885.6584.9862.4495,2.0038.8359,3.0435,1.2556-.1965-1.7999-.4526-3.4525-.5373-5.1132-.086-1.688-.003-3.3839.0071-5.2911-.7589-.3598-1.8356-.8703-3.0739-1.4575Zm10.6654-129.0996c-.1917-.376-.2847-.5386-.3597-.7084-1.0592-2.3993-2.2474-4.7562-3.1347-7.2124-.8129-2.2502-.9269-4.647-.3108-6.9731.3616-1.3651,1.0518-2.6507,1.4964-3.7338-4.6493,4.4097-5.0589,14.7001,2.3087,18.6277Zm109.1475,186.1873c.0323-.0648.0647-.1297.0971-.1945-6.3146-3.2205-12.6292-6.441-18.9438-9.6614l-.2301.2166c.2314.2633.4073.6313.7025.7745,5.0202,2.436,10.0559,4.8427,15.0864,7.2594,1.0996.5283,2.1921,1.07,3.2879,1.6055Zm-30.0864-122.1981c-.7836.0476-.9078.4004-.8731.973.1812,2.9925.3272,5.987.4863,8.9807.0186.35.0429.6997.0645,1.0495l.264-.0085c.0194-3.6545.0387-7.3089.0583-10.9947Zm-58.4114-25.2415c2.7646-1.4871,4.6265-3.6347,5.9779-6.23-1.5369,1.849-3.2927,3.4707-5.4281,4.6729-.6528.3675-.8021.7824-.5498,1.5571Zm93.9504,178.2387c-.0111-.1099-.0222-.2198-.0333-.3297-2.6133.1356-5.2266.2712-7.8398.4068.0074.1153.0147.2307.022.3461,2.6599.5605,5.2677.269,7.8511-.4231Zm-71.2852-209.5762c-.7827.4932-1.6314,1.028-2.4307,1.5317.5394.4089,1.1559.8763,1.8888,1.4318.1994-1.0907.3784-2.0693.5419-2.9635Zm-76.3073,75.8483c.0905-.0428.1811-.0855.2716-.1283-.5886-1.8104-1.1771-3.6209-1.7657-5.4313-.0812.0243-.1624.0485-.2436.0728.5792,1.8289,1.1584,3.6578,1.7377,5.4868Z"/><path d="m18.8442.0813c4.7952.0238,9.5904.0476,14.3856.0714.1692.2272.3134.4768.5113.6783,3.8808,3.9522,7.8015,7.8691,11.6476,11.8519,12.5911,13.0383,24.8107,26.4152,38.4837,38.4661.3274.2885.5752.8299.5793,1.2558.0309,3.2279-.6624,6.3345-1.8836,9.3374-.2849.7006-.6432.7904-1.2466.2281-2.2962-2.1397-4.6377-4.2349-6.9412-6.3676-9.4897-8.7862-18.2428-18.2362-27.1601-27.5386C38.5988,19.0703,29.9712,10.0811,20.6117,1.7686c-.6096-.5414-1.1793-1.124-1.7675-1.6874Z"/><path d="m63.6219.3035c4.4465,4.6347,8.8635,9.2957,13.3456,13.8987,9.61,9.8695,19.2587,19.7045,28.8656,29.5768.397.4079.7481,1.0479.7522,1.5824.0241,3.159-.6567,6.2065-1.8578,9.1474-.0852.2085-.2072.4055-.3323.5957-.0492.0749-.1537.1166-.173.1305-1.0327-.9446-2.0984-1.8328-3.061-2.8134-7.8972-8.0454-15.8004-16.0858-23.6525-24.1714C68.4636,18.9361,59.4687,9.5774,50.452.2381c4.39.0218,8.78.0436,13.1699.0654Z"/><path d="m470.087,266.0654c-9.9489-4.9266-19.9739-9.7184-29.8313-14.807-23.1812-11.9666-45.6258-25.1199-67.7531-38.7772-8.507-5.2506-17.0705-10.4192-25.6679-15.5335-1.9859-1.1813-4.2202-1.9796-6.3288-2.9762-.2014-.0952-.4485-.342-.4573-.5278-.035-.7393-.0194-1.4851.0455-2.2231.0604-.6866.6333-.6246,1.0696-.4663,1.0061.365,2.0414.7133,2.9569,1.2398,4.9162,2.8272,9.85,5.6311,14.6848,8.5821,17.3555,10.5928,34.6155,21.3266,52.3157,31.3981,19.0674,10.8495,38.603,20.8642,58.43,30.3726.1802.0864.3694.1556.5544.2329l-.0185,3.4855Z"/><path d="m193.5422,179.0916c.1003-3.591,1.9339-9.2689,3.5227-10.7096,2.1543,1.6729,4.3308,3.3457,6.4879,5.0411,7.5001,5.8949,14.9531,11.8454,22.5087,17.6745,3.1191,2.4064,6.4355,4.582,9.7027,6.8083.7113.4847.9701,1.0195.853,1.7886-.4593,3.0149-1.3075,5.9171-2.7074,8.6658-.3935.7726-.7667.8217-1.5253.3086-8.1267-5.4969-15.8751-11.4495-23.4815-17.5817-4.6903-3.7813-9.4688-7.4628-14.2134-11.1825-.2247-.1761-.5051-.2874-.7595-.4288-.1292-.1281-.2585-.2561-.3877-.3842Z"/><path d="m285.4293,77.342c-.1546.0525-.3209.085-.4621.1604-2.3748,1.2686-4.8035-.0591-4.9028-2.6835-.0092-.2445-.0241-.4889-.0386-.7768-1.3094,1.0509-1.9818,3.095-1.4963,4.3767.2218.5858.4974.9375,1.2686.6588.4233-.153,1.2025-.2516,1.3727-.042.5245.6457.8614,1.4403,1.1959,2.2071.0514.1177-.2645.4263-.4612.5915-2.5394,2.1328-5.4394,3.675-8.6058,4.7813-.6988.2442-1.0997.0574-1.4276-.6001-.9802-1.9659-1.038-1.9994.8466-3.2437,1.6017-1.0576,3.2899-1.9955,4.9869-3.0146-1.1029-1.9188-.2266-3.6038.9485-5.3453-1.5733,1.0988-2.367,2.8292-1.9553,4.4017.2129.8131-.1062,1.124-.9538,1.314-1.0149-2.6937.5426-4.4353,2.4676-6.169-8.037,2.1481-14.4929.3552-18.9845-6.5926-2.0108-3.1103-2.5677-9.9423-1.398-11.4762-.0052.984-.0514,1.9696-.0087,2.9516.2046,4.7069,2.1045,8.6507,6.0524,11.5261,3.6187,2.6356,7.7293,3.376,12.1703,2.4032,1.5429-.338,3.0879-.6669,4.7129-1.0174.0395.2835.0722.5184.1133.813.4852-.2236.9486-.4372,1.2469-.5746.1785,1.1547.1793,2.352.5786,3.4122.411,1.0913,1.875,1.5343,3.2067,1.229-.0759.1805-.134.3186-.1921.4567-.0937.0842-.1874.1684-.281.2526Z"/><path d="m238.2473,128.6738c.4839.4456-.0681,1.5649,1.0943,1.5696-.1531-2.4514-.3749-4.8911-.4449-7.3348-.1953-6.8068,1.4137-13.3245,3.7648-19.6794.6436-1.7396,1.7443-3.3461,2.7956-4.9154.3872-.5779,1.2372-.8725,1.8761-1.2963.0608.0562.1217.1125.1826.1687-.0718.1913-.1082.4044-.2204.5709-3.464,5.1426-4.8398,10.9568-5.7554,16.8728-1.1712,7.5674-.4204,15.045,1.6597,22.413.0702.2487.1443.4968.2297.741q.5053,1.4455-.8543,2.3822c.8152,2.0171,1.5997,4.0981,2.4965,6.134.7716,1.7518,1.6504,3.4618,2.5238,5.1708.4041.7908.109,1.1865-.699,1.4499-.1773-.34-.3408-.6536-.4985-.9559-.0889-.016-.1657-.0556-.2136-.0347-1.5001.6551-1.804.7227-2.5842-.7986-1.6424-3.2022-3.2884-6.4377-4.4814-9.8056-1.1619-3.2802-1.7965-6.7349-2.5914-10.1282-.4103-1.7515-.2074-1.96,1.72-2.5239Z"/><path d="m254.1055,86.1663c1.3173,2.4794,2.7181,4.8943,4.944,6.7387,1.241,1.0283,1.3028,1.4254.2019,2.8736-1.435-.7261-2.4558-1.8862-3.3783-3.1044-1.8645-2.4623-3.4756-5.0676-4.5168-7.9621-.0109-.0304-.0418-.0611-.0381-.0884.1378-1.0097.5966-2.1013.3398-3.0079-.3337-1.1781.1744-1.9442.5546-2.8848,1.1213,1.9724,2.1434,3.8847,3.2752,5.7358,1.9921,3.2582,4.6452,5.9113,8.0637,7.8534,1.5521.8818,1.5942,1.3507.4445,2.8489-4.2349-2.058-7.4361-5.1451-9.8906-9.0029Z"/><path d="m285.0247,82.8049c.6484,1.5345,1.2458,2.8578,1.7485,4.2132.1025.2763-.0317.7984-.2583.9951-2.5512,2.2134-5.514,3.7758-8.7479,4.8782-.5803.1978-1.049.0457-1.2861-.5667-.4199-1.0844-.8913-2.1519-1.2685-3.2493-.0976-.2839-.0551-.7835.1426-.9625,2.7836-2.5205,6.0694-4.2022,9.6698-5.308Z"/><path d="m320.8854,90.1429c-.3226-.1548-.6404-.2692-.9152-.4451-2.5935-1.66-4.8737-3.6467-6.8252-5.9796-.5957-.7122-.6463-1.2852.2789-1.7738.4101-.2166.8425-.4545,1.1466-.7828.7206-.7778,1.4097-.6471,2.2049-.1253,2.6008,1.7066,4.9139,3.6993,6.8628,6.0798.4714.5758.4828.9986-.1515,1.4313-.6553.447-1.2835.9305-1.9422,1.3727-.1776.1192-.4229.1463-.6591.2229Z"/><path d="m328.6185,81.9318c-.6423.3637-1.0565.5718-1.4415.821-1.3207.8552-1.3343.8821-2.6041-.0668-1.561-1.1664-3.0469-2.4115-4.1148-3.9719.0716-.1616.0796-.2439.125-.273,2.3358-1.4969,1.8384-1.9337,4.4852.1564,1.2525.989,2.3318,2.1783,3.5501,3.3342Z"/><path d="m330.6681,86.786c-1.0363-.126-1.9322-.235-2.7961-.3401.2511.6139.491,1.2002.7309,1.7865-.0828.0527-.1657.1054-.2485.1581-.7524-.6054-1.5904-1.141-2.2202-1.8464-.3038-.3403-.2156-1.0003-.305-1.5156.4138-.0047.8357-.0613,1.2401-.0042,1.1624.1641,2.3176.3742,3.5386.5767.0202.3979.0386.7601.0602,1.1849Z"/><path d="m302.851,65.9202c-.45.2215-.8271.4072-1.0905.5369.0058-1.0886.1002-2.2028-.0066-3.2991-.1145-1.1753.2412-1.9294,1.7632-2.2255.3268,1.336.6614,2.7044.9961,4.0728l.2186.0894c.6557-1.3487,1.3829-2.671,1.9403-4.0558.3377-.8389.8881-1.2835,1.9916-1.633-.718,1.586-1.3467,2.9746-1.9754,4.3632.6238-1.2437,1.6215-1.9533,3.3083-2.1114-.8657,1.2844-1.2067,2.6858-2.8732,3.2449-.9692.3252-1.8258.9798-2.7001,1.5336-.7507.4755-1.3393.6141-1.5723-.5158Z"/><path d="m310.248,32.3877c.4626,1.6915.7648,1.3299-.7475,2.1349-.2706.144-.6782.0529-1.0225.0704.0669-.4644-.027-1.0588.2406-1.361.3514-.397.9875-.5638,1.5294-.8443Z"/><path d="m240.3552,198.7804c2.4869,1.4477,4.8576,2.8612,7.2635,4.2175,1.8294,1.0313,3.6715,2.0516,5.5711,2.9553.9664.4598,1.4162,1.1041,1.555,2.0619.4236,2.9219.4582,5.8436.0043,8.7637-.0473.3043-.2149.5916-.3743,1.0123-2.0093-1.067-3.9577-2.0605-5.8633-3.124-2.4739-1.3807-4.9398-2.7783-7.3475-4.2602-.5218-.3212-1.006-.9895-1.1242-1.5693-.5842-2.8672-.5639-5.766-.1837-8.6616.0289-.2204.1052-.4373.18-.6492.0742-.2101.1744-.4119.3189-.7464Z"/></g><path d="m469.7934,302.8334v11.711c-.1296-.0209-.276-.011-.3863-.0671-3.7808-1.9242-7.6055-3.7738-11.3269-5.7998-9.7912-5.3306-19.5871-10.6561-29.2883-16.1367-11.2122-6.3343-22.3235-12.8349-33.4851-19.2526-.635-.3652-1.0308-.8141-.9923-1.5509.1423-2.7184.2499-5.4393.4533-8.1534.0491-.6551.4164-1.2879.656-1.9851.4268.2224.6383.3222.8393.4389,7.012,4.0721,13.9958,8.1904,21.0399,12.2102,16.0009,9.1312,31.9526,18.3477,48.4337,26.6671,1.3339.6733,2.7036,1.2806,4.0567,1.9185Z"/></g></g></svg>